<svg xmlns="http://www.w3.org/2000/svg" version="1.1" xmlns:xlink="http://www.w3.org/1999/xlink" width="1000" height="1000"><g clip-path="url(#SvgjsClipPath1078)"><rect width="1000" height="1000" fill="#000000"></rect><g transform="matrix(16.666666666666668,0,0,16.666666666666668,150,308.3333333333333)"><svg xmlns="http://www.w3.org/2000/svg" version="1.1" xmlns:xlink="http://www.w3.org/1999/xlink" width="42" height="23"><svg width="42" height="23" viewBox="0 0 42 23" fill="none" xmlns="http://www.w3.org/2000/svg">
<path d="M29.7498 4.9977C35.1394 4.9977 35.7275 10.6727 40.1246 10.6727H41.8351V3.89624H33.5175C29.8241 3.89624 26.8751 0.799798 21.1369 0.832909C15.3988 0.79956 12.4495 3.896 8.75616 3.896H0.438477V10.6725H2.14904C6.54585 10.6725 7.13422 4.99746 12.5239 4.99746H29.7498V4.9977Z" fill="white"></path>
<path d="M29.7498 18.668C35.1394 18.668 35.7275 12.993 40.1246 12.993H41.8351V19.7695H33.5175C29.8241 19.7695 26.8748 22.8659 21.1367 22.8326C15.3985 22.8659 12.4493 19.7695 8.75592 19.7695H0.438477V12.993H2.14904C6.54585 12.993 7.13422 18.668 12.5239 18.668H29.7498Z" fill="white"></path>
<path d="M21.137 14.0861C22.3814 14.0861 23.3902 13.0773 23.3902 11.8329C23.3902 10.5885 22.3814 9.57971 21.137 9.57971C19.8926 9.57971 18.8838 10.5885 18.8838 11.8329C18.8838 13.0773 19.8926 14.0861 21.137 14.0861Z" fill="white"></path>
</svg></svg></g></g><defs><clipPath id="SvgjsClipPath1078"><rect width="1000" height="1000" x="0" y="0" rx="150" ry="150"></rect></clipPath></defs></svg>