<svg width="21" height="20" viewBox="0 0 21 20" fill="none" xmlns="http://www.w3.org/2000/svg">
<g clip-path="url(#clip0_3470_1463)">
<path d="M18.4665 10C18.4665 8.90565 18.2509 7.82202 17.8321 6.81097C17.4133 5.79993 16.7995 4.88127 16.0257 4.10744C15.2519 3.33362 14.3332 2.71979 13.3222 2.30101C12.3111 1.88222 11.2275 1.66667 10.1331 1.66667C7.923 1.66667 5.80338 2.54464 4.24058 4.10744C2.67778 5.67025 1.7998 7.78986 1.7998 10C1.7998 12.2101 2.67778 14.3298 4.24058 15.8926C5.80338 17.4554 7.923 18.3333 10.1331 18.3333C12.3433 18.3333 14.4629 17.4554 16.0257 15.8926C17.5885 14.3298 18.4665 12.2101 18.4665 10ZM16.7415 9.16667H14.2998C14.1624 7.20679 13.4909 5.32196 12.3581 3.71667C13.5219 4.12997 14.5479 4.85839 15.3219 5.8207C16.0958 6.78301 16.5873 7.94139 16.7415 9.16667ZM7.6998 10.8333H12.6331C12.4199 12.8922 11.5423 14.8256 10.1331 16.3417C8.72486 14.832 7.86746 12.8911 7.6998 10.8333ZM7.6998 9.16667C7.89388 7.11819 8.7478 5.1881 10.1331 3.66667C11.5537 5.17177 12.4332 7.1067 12.6331 9.16667H7.6998ZM7.9998 3.69167C6.8611 5.30585 6.1788 7.19727 6.0248 9.16667H3.5248C3.68223 7.92625 4.18531 6.7551 4.97661 5.78698C5.76791 4.81885 6.81552 4.09278 7.9998 3.69167ZM3.5248 10.8333H6.0248C6.16205 12.8011 6.8397 14.6927 7.98314 16.3C6.80312 15.8969 5.75979 15.171 4.97169 14.2047C4.1836 13.2383 3.68232 12.0703 3.5248 10.8333ZM12.3165 16.2917C13.4568 14.6839 14.142 12.7981 14.2998 10.8333H16.7581C16.6005 12.0669 16.1011 13.2317 15.3162 14.1963C14.5313 15.1609 13.4922 15.8867 12.3165 16.2917Z" fill="#FEFEFE" fill-opacity="0.4"/>
</g>
<defs>
<clipPath id="clip0_3470_1463">
<rect width="20" height="20" fill="white" transform="translate(0.133301)"/>
</clipPath>
</defs>
</svg>
