<svg width="60" height="60" viewBox="0 0 60 60" fill="none" xmlns="http://www.w3.org/2000/svg">
<path d="M55.0608 40.6188L46.9508 36.3188L55.1408 31.8888C55.7708 31.5188 56.1408 30.8588 56.1208 30.1288C56.1008 29.4088 55.7108 28.7688 55.0608 28.4288L46.9408 24.1288L55.1108 19.6988H55.1208C55.7508 19.3288 56.1207 18.6688 56.1007 17.9488C56.0807 17.2288 55.6908 16.5788 55.0508 16.2388L30.4808 3.22877C29.9008 2.91877 29.2108 2.92877 28.6308 3.22877L4.05076 16.2488C3.41076 16.5888 3.01077 17.2288 3.00077 17.9588C2.99077 18.6888 3.35077 19.3388 4.00077 19.7088L12.1708 24.1288L4.05076 28.4288C3.41076 28.7688 3.02077 29.3988 3.00077 30.1288C2.98077 30.8588 3.35076 31.5088 3.99076 31.8888L12.1607 36.3088L4.04075 40.6088C3.40075 40.9588 3.01077 41.5988 3.00077 42.3288C2.99077 43.0488 3.36076 43.6988 3.99076 44.0688L28.5608 57.3688C28.8708 57.5488 29.2108 57.6388 29.5608 57.6388C29.9108 57.6388 30.2407 57.5488 30.5307 57.3788L55.1308 44.0588C55.7608 43.6988 56.1208 43.0488 56.1108 42.3288C56.1008 41.5988 55.7008 40.9588 55.0508 40.6088L55.0608 40.6188ZM4.00077 17.9788C4.00077 17.6188 4.20079 17.3088 4.52079 17.1388L29.1007 4.11877C29.2407 4.03877 29.4008 4.00877 29.5608 4.00877C29.7208 4.00877 29.8708 4.04877 30.0208 4.11877L54.6007 17.1388C54.9207 17.3088 55.1108 17.6188 55.1208 17.9788C55.1208 18.3388 54.9508 18.6588 54.6408 18.8388L30.0508 32.1488C29.7508 32.3288 29.3708 32.3288 29.0608 32.1488L4.49076 18.8488C4.18076 18.6688 4.00078 18.3488 4.01078 17.9888L4.00077 17.9788ZM4.00077 30.1588C4.00077 29.7988 4.20079 29.4888 4.52079 29.3188L13.2207 24.7088L28.5608 33.0088C28.8708 33.1888 29.2108 33.2788 29.5608 33.2788C29.9108 33.2788 30.2407 33.1888 30.5407 33.0188L45.8908 24.7088L54.5907 29.3288C54.9107 29.4988 55.1008 29.8088 55.1108 30.1688C55.1108 30.5288 54.9408 30.8488 54.6408 31.0288L30.0307 44.3388C29.7307 44.5188 29.3607 44.5188 29.0407 44.3388L4.48075 31.0488C4.17075 30.8688 3.99076 30.5388 3.99076 30.1788L4.00077 30.1588ZM54.6408 43.1988L30.0307 56.5188C29.7307 56.6988 29.3607 56.6988 29.0407 56.5188L4.47074 43.2188C4.16074 43.0388 3.98076 42.7188 3.99076 42.3688C3.99076 42.0088 4.19078 41.6888 4.51078 41.5188L13.2108 36.9088L28.5508 45.2088C28.8608 45.3888 29.2008 45.4788 29.5508 45.4788C29.9008 45.4788 30.2308 45.3888 30.5208 45.2188L45.8808 36.9088L54.5808 41.5188C54.9008 41.6888 55.1008 42.0088 55.1108 42.3688C55.1108 42.7188 54.9408 43.0388 54.6408 43.2088V43.1988Z" fill="white"/>
</svg>
