<svg width="60" height="60" viewBox="0 0 60 60" fill="none" xmlns="http://www.w3.org/2000/svg">
<g clip-path="url(#clip0_3470_970)">
<path d="M63.34 29.18H56.33C56.07 14.83 44.5 3.20002 30.17 2.83002V-4H29.17V2.82001C14.67 2.99001 2.89001 14.7 2.63 29.18H-4V30.18H2.63C2.9 44.66 14.67 56.37 29.17 56.54V63.36H30.17V56.53C44.5 56.17 56.07 44.53 56.33 30.18H63.34V29.18ZM55.33 29.18H50.74C50.48 17.9 41.42 8.79001 30.17 8.42001V3.83002C43.95 4.19002 55.07 15.38 55.33 29.18ZM29.47 49.97C18.28 49.97 9.17999 40.87 9.17999 29.68C9.17999 18.49 18.28 9.39001 29.47 9.39001C40.66 9.39001 49.76 18.49 49.76 29.68C49.76 40.87 40.66 49.97 29.47 49.97ZM29.16 3.82001V8.40002C17.73 8.57002 8.47001 17.77 8.20001 29.18H3.60999C3.87999 15.25 15.2 3.99001 29.15 3.82001H29.16ZM3.62 30.18H8.21002C8.48002 41.58 17.74 50.79 29.17 50.96V55.54C15.22 55.37 3.89001 44.11 3.63 30.18H3.62ZM30.16 55.52V50.93C41.41 50.57 50.47 41.45 50.73 30.17H55.32C55.06 43.97 43.93 55.15 30.16 55.52Z" fill="white"/>
</g>
<defs>
<clipPath id="clip0_3470_970">
<rect width="60" height="60" fill="white"/>
</clipPath>
</defs>
</svg>
