<svg width="60" height="60" viewBox="0 0 60 60" fill="none" xmlns="http://www.w3.org/2000/svg">
<path d="M29.5 14C13.2308 14 0 20.9555 0 29.5C0 38.0445 13.2308 45 29.5 45C45.7692 45 59 38.0445 59 29.5C59 20.9555 45.7692 14 29.5 14ZM29.5 43.9907C13.7596 43.9907 0.961538 37.4848 0.961538 29.49C0.961538 21.4952 13.7692 14.9894 29.5 14.9894C45.2308 14.9894 58.0385 21.4952 58.0385 29.49C58.0385 37.4848 45.2308 43.9907 29.5 43.9907Z" fill="white"/>
<path d="M29.68 22.5791C25.86 22.5791 22.75 25.6891 22.75 29.5091C22.75 33.3291 25.86 36.4291 29.68 36.4291C33.5 36.4291 36.61 33.3191 36.61 29.5091C36.61 25.6991 33.5 22.5791 29.68 22.5791ZM29.68 35.4291C26.41 35.4291 23.75 32.7691 23.75 29.5091C23.75 26.2491 26.41 23.5791 29.68 23.5791C32.95 23.5791 35.61 26.2391 35.61 29.5091C35.61 32.7791 32.95 35.4291 29.68 35.4291Z" fill="white"/>
</svg>
