<svg width="54" height="54" viewBox="0 0 54 54" fill="none" xmlns="http://www.w3.org/2000/svg">
<path d="M26.87 0C12.06 0 0 12.05 0 26.87C0 41.69 12.05 53.74 26.87 53.74C41.69 53.74 53.74 41.69 53.74 26.87C53.74 12.05 41.69 0 26.87 0ZM27.37 20.98C30.4 21.24 32.79 23.78 32.79 26.88C32.79 30.15 30.13 32.8 26.86 32.8C23.59 32.8 20.93 30.14 20.93 26.88C20.93 23.62 23.32 21.23 26.36 20.98V26.98H27.36V20.98H27.37ZM19.94 26.88C19.94 30.7 23.05 33.8 26.87 33.8C30.69 33.8 33.8 30.69 33.8 26.88C33.8 23.07 30.96 20.24 27.38 19.98V11.04C35.88 11.32 42.71 18.3 42.71 26.87C42.71 35.44 35.6 42.72 26.86 42.72C18.12 42.72 11.01 35.61 11.01 26.87C11.01 18.13 17.86 11.3 26.38 11.04V19.98C22.79 20.24 19.95 23.23 19.95 26.88H19.94ZM26.87 52.73C12.61 52.73 1 41.13 1 26.86C1 12.59 12.34 1.27 26.37 1.01V10.04C17.3 10.3 10 17.74 10 26.87C10 36 17.56 43.72 26.85 43.72C36.14 43.72 43.7 36.16 43.7 26.87C43.7 17.58 36.42 10.32 27.37 10.04V1.01C41.4 1.28 52.73 12.77 52.73 26.86C52.73 40.95 41.13 52.73 26.86 52.73H26.87Z" fill="white"/>
</svg>
