<svg width="60" height="60" viewBox="0 0 60 60" fill="none" xmlns="http://www.w3.org/2000/svg">
<path d="M55.2886 30.4925L53.2486 29.1225C50.9986 27.6125 50.3186 24.6125 51.6886 22.2825L52.9386 20.1725C53.4686 19.2725 53.4586 18.1525 52.9186 17.2325C51.6386 15.0625 50.0586 13.0825 48.2386 11.3625C47.4686 10.6325 46.3686 10.3725 45.3786 10.6925L45.1486 10.7625C41.3886 11.9525 37.3286 10.0025 35.9186 6.31252L35.8286 6.08251C35.4586 5.11251 34.5686 4.4125 33.5186 4.2625C31.0586 3.9125 28.4786 3.9125 26.0186 4.2625C24.9686 4.4125 24.0786 5.10251 23.7086 6.08251L22.8286 8.38253C21.8586 10.9125 19.0786 12.2425 16.5086 11.4225L14.1686 10.6825C13.1786 10.3625 12.0886 10.6225 11.3186 11.3525C9.48864 13.0725 7.91864 15.0525 6.63864 17.2125C6.09864 18.1325 6.08864 19.2525 6.61864 20.1525L7.86864 22.2725C9.23864 24.6025 8.55863 27.6025 6.30863 29.1125L4.26863 30.4825C3.40863 31.0625 2.92864 32.0725 3.00864 33.1325C3.20864 35.6425 3.76864 38.1125 4.67864 40.4525C5.05864 41.4425 5.93864 42.1425 6.95864 42.2925L9.39864 42.6325C12.0786 43.0125 13.9986 45.4225 13.7686 48.1125L13.5586 50.5725C13.4686 51.6025 13.9686 52.6125 14.8486 53.2025C16.9386 54.6025 19.2086 55.7025 21.5986 56.4625C21.8986 56.5525 22.1986 56.6025 22.4986 56.6025C23.2286 56.6025 23.9286 56.3325 24.4686 55.8325L26.2686 54.1325C28.2386 52.2725 31.3186 52.2725 33.2786 54.1325L35.0786 55.8325C35.8386 56.5425 36.9386 56.7925 37.9486 56.4625C40.3486 55.6925 42.6186 54.6025 44.6986 53.2025C45.5786 52.6125 46.0786 51.6025 45.9886 50.5625L45.7786 48.1025C45.5486 45.4125 47.4686 43.0025 50.1486 42.6225L52.5786 42.2825C53.6086 42.1425 54.4786 41.4325 54.8586 40.4425C55.7586 38.0925 56.3186 35.6325 56.5286 33.1125C56.6186 32.0525 56.1286 31.0425 55.2786 30.4625L55.2886 30.4925ZM53.9386 40.1125C53.6886 40.7625 53.1186 41.2225 52.4486 41.3225L50.0186 41.6625C46.8186 42.1225 44.5186 45.0025 44.7886 48.2225L44.9986 50.6825C45.0586 51.3525 44.7286 52.0125 44.1486 52.4025C42.1386 53.7425 39.9586 54.8025 37.6486 55.5325C36.9786 55.7425 36.2586 55.5925 35.7686 55.1225L33.9686 53.4225C31.6186 51.2025 27.9286 51.2025 25.5786 53.4225L23.7786 55.1225C23.2886 55.5825 22.5686 55.7425 21.8986 55.5325C19.5986 54.8025 17.4186 53.7425 15.3986 52.3925C14.8186 52.0025 14.4986 51.3425 14.5486 50.6725L14.7586 48.2125C15.0286 44.9925 12.7386 42.1125 9.52864 41.6525L7.08863 41.3125C6.41863 41.2225 5.84863 40.7525 5.59863 40.1025C4.72863 37.8425 4.18864 35.4725 3.99864 33.0625C3.93864 32.3625 4.25864 31.6925 4.81864 31.3225L6.86864 29.9525C9.55864 28.1525 10.3686 24.5525 8.72863 21.7725L7.47863 19.6525C7.13863 19.0725 7.14864 18.3325 7.49864 17.7325C8.72864 15.6425 10.2486 13.7425 12.0086 12.0925C12.3786 11.7425 12.8486 11.5625 13.3286 11.5625C13.5186 11.5625 13.6986 11.5925 13.8786 11.6425L16.2186 12.3825C19.2986 13.3625 22.6186 11.7625 23.7786 8.74251L24.6586 6.44252C24.8986 5.81252 25.4786 5.3625 26.1686 5.2625C28.5286 4.9325 31.0286 4.9325 33.3886 5.2625C34.0786 5.3625 34.6586 5.81252 34.8986 6.44252L34.9886 6.6725C36.5886 10.8525 41.1786 13.0725 45.4486 11.7125L45.6786 11.6425C46.3186 11.4325 47.0386 11.6125 47.5486 12.0925C49.3086 13.7525 50.8186 15.6525 52.0586 17.7425C52.4186 18.3425 52.4186 19.0825 52.0786 19.6625L50.8286 21.7725C49.1886 24.5525 50.0086 28.1425 52.6886 29.9525L54.7286 31.3225C55.2886 31.7025 55.5986 32.3625 55.5386 33.0625C55.3386 35.4825 54.7986 37.8525 53.9386 40.1125Z" fill="white"/>
<path d="M38.23 26.75H37.29V23.79C37.29 20.6 34.7 18 31.51 18H28.19C25 18 22.4 20.6 22.4 23.79V26.75H21.46C20.66 26.75 20 27.4 20 28.21V41.24C20 42.04 20.65 42.7 21.46 42.7H38.22C39.02 42.7 39.68 42.05 39.68 41.24V28.21C39.68 27.41 39.03 26.75 38.22 26.75H38.23ZM23.4 23.79C23.4 21.15 25.55 19 28.19 19H31.51C34.15 19 36.29 21.15 36.29 23.79V26.75H23.4V23.79ZM38.69 41.23C38.69 41.48 38.48 41.69 38.23 41.69H21.47C21.22 41.69 21.01 41.48 21.01 41.23V28.2C21.01 27.95 21.22 27.74 21.47 27.74H38.23C38.48 27.74 38.69 27.95 38.69 28.2V41.23Z" fill="white"/>
</svg>
