<svg xmlns="http://www.w3.org/2000/svg" width="29" height="29" viewBox="0 0 29 29" fill="none">
  <g clip-path="url(#clip0_3537_2751)">
    <path d="M28.0235 15.5095C27.9217 16.8208 27.6278 18.0869 27.1643 19.2625C27.0061 19.6921 26.633 19.9973 26.1809 20.0538L24.9148 20.2347C23.3774 20.4495 22.2809 21.8286 22.4052 23.3773L22.5182 24.666C22.5522 25.1182 22.3374 25.5477 21.9643 25.8077C20.9017 26.5199 19.7374 27.0851 18.5052 27.4808C18.0756 27.6164 17.6009 27.526 17.2617 27.2095L16.3235 26.3277C15.193 25.2651 13.4296 25.2651 12.2991 26.3277L11.3609 27.2208C11.033 27.5373 10.5582 27.6277 10.1174 27.4921C8.88521 27.0964 7.72086 26.5312 6.65825 25.819C6.28521 25.5703 6.05912 25.1295 6.10434 24.6773L6.21738 23.3886C6.35303 21.8399 5.24521 20.4608 3.70781 20.246L2.43042 20.0651C1.97825 19.9973 1.60521 19.6921 1.44694 19.2738C0.994771 18.0869 0.700858 16.8321 0.587814 15.5208C0.553901 15.0686 0.746075 14.6277 1.13042 14.3677L2.20434 13.6555C3.49303 12.7851 3.88868 11.0669 3.09738 9.73294L2.44173 8.62511C2.21564 8.22946 2.22694 7.74337 2.44173 7.35903C3.09738 6.23989 3.91129 5.23381 4.83825 4.35207C5.16608 4.03555 5.64086 3.9225 6.07042 4.05816L7.29129 4.4425C8.77216 4.91729 10.3548 4.14859 10.92 2.70163L11.3835 1.49207C11.5417 1.0625 11.9261 0.76859 12.3782 0.712068C13.0113 0.621633 13.6443 0.576416 14.3 0.576416C14.9556 0.576416 15.6 0.621633 16.2217 0.712068C16.6739 0.779894 17.0582 1.07381 17.2165 1.49207L17.2617 1.61642C18.053 3.67381 20.3026 4.75902 22.4052 4.09207L22.5296 4.05816C22.9591 3.9225 23.4339 4.03555 23.7617 4.35207C24.7 5.23381 25.5026 6.2512 26.1582 7.35903C26.3843 7.75468 26.3956 8.24076 26.1582 8.62511L25.5026 9.73294C24.7113 11.0669 25.1069 12.7851 26.3956 13.6555L27.4583 14.3677C27.8313 14.6164 28.0348 15.0573 28.0009 15.5095H28.0235Z" stroke="white" stroke-miterlimit="10"/>
    <path d="M10.9424 13.9722L13.2937 16.3235L18.4146 11.2026" stroke="white" stroke-miterlimit="10"/>
  </g>
  <defs>
    <clipPath id="clip0_3537_2751">
      <rect width="28.6" height="28.1139" fill="white"/>
    </clipPath>
  </defs>
</svg>