<svg xmlns="http://www.w3.org/2000/svg" width="29" height="29" viewBox="0 0 29 29" fill="none">
  <g clip-path="url(#clip0_3537_2989)">
    <path d="M7.00049 5.31122C9.19403 4.08844 11.7236 3.39771 14.4118 3.39771C17.1001 3.39771 19.5083 4.06043 21.6739 5.22721" stroke="white" stroke-miterlimit="10"/>
    <path d="M4.01367 11.677C6.26322 8.34466 10.0809 6.15112 14.412 6.15112C18.743 6.15112 22.3087 8.20465 24.5863 11.3689" stroke="white" stroke-miterlimit="10"/>
    <path d="M6.18882 21.3192C2.01643 13.0491 13.6748 4.12561 20.7315 11.4903C21.2542 11.985 22.533 13.3105 22.8597 15.4013C22.9904 16.2321 23.3638 18.6776 21.8049 19.6951C20.6102 20.4791 18.8553 20.0498 18.0619 19.051C17.2779 18.0616 17.6979 17.0161 16.7458 15.728C14.0576 12.097 8.06499 16.0641 13.0401 22.3646C14.8323 24.6329 17.5019 25.0996 18.3793 25.2116" stroke="white" stroke-miterlimit="10"/>
    <path d="M20.2177 17.0909C20.1804 16.6522 19.9284 14.3467 17.9495 12.8159C15.9613 11.2757 13.2078 11.2944 11.2476 12.4425C9.05403 13.7213 8.49398 15.9895 8.40064 16.4002C8.0366 17.9964 8.43797 19.2845 8.718 20.1992C9.40873 22.4394 10.7715 23.9329 11.6769 24.7357" stroke="white" stroke-miterlimit="10"/>
    <path d="M14.2065 16.9321C14.2252 17.2495 14.1879 19.9937 16.5774 21.6272C18.5843 22.99 20.9272 22.6073 21.3285 22.5233" stroke="white" stroke-miterlimit="10"/>
    <path d="M5.07789 28.1333H1.44689C0.905504 28.1333 0.466797 27.6946 0.466797 27.1532V23.5222" stroke="white" stroke-miterlimit="10"/>
    <path d="M23.522 28.1333H27.153C27.6944 28.1333 28.1331 27.6946 28.1331 27.1532V23.5222" stroke="white" stroke-miterlimit="10"/>
    <path d="M28.1331 5.07789V1.44689C28.1331 0.905504 27.6944 0.466797 27.153 0.466797H23.522" stroke="white" stroke-miterlimit="10"/>
    <path d="M5.07789 0.466797H1.44689C0.905504 0.466797 0.466797 0.905504 0.466797 1.44689V5.07789" stroke="white" stroke-miterlimit="10"/>
    <path d="M0.251953 14.3H28.3479" stroke="white" stroke-miterlimit="10"/>
  </g>
  <defs>
    <clipPath id="clip0_3537_2989">
      <rect width="28.6" height="28.6" fill="white"/>
    </clipPath>
  </defs>
</svg>