<svg xmlns="http://www.w3.org/2000/svg" width="29" height="29" viewBox="0 0 29 29" fill="none">
  <g clip-path="url(#clip0_3537_2527)">
    <path d="M9.28161 27.8447C14.1469 27.8447 18.0911 23.9006 18.0911 19.0353C18.0911 14.17 14.1469 10.2258 9.28161 10.2258C4.41629 10.2258 0.472168 14.17 0.472168 19.0353C0.472168 23.9006 4.41629 27.8447 9.28161 27.8447Z" stroke="white" stroke-miterlimit="10"/>
    <path d="M19.3182 27.8447C24.1836 27.8447 28.1277 23.9006 28.1277 19.0353C28.1277 14.17 24.1836 10.2258 19.3182 10.2258C14.4529 10.2258 10.5088 14.17 10.5088 19.0353C10.5088 23.9006 14.4529 27.8447 19.3182 27.8447Z" stroke="white" stroke-miterlimit="10"/>
    <path d="M14.3046 18.0911C19.1699 18.0911 23.114 14.1469 23.114 9.28161C23.114 4.41629 19.1699 0.472168 14.3046 0.472168C9.43924 0.472168 5.49512 4.41629 5.49512 9.28161C5.49512 14.1469 9.43924 18.0911 14.3046 18.0911Z" stroke="white" stroke-miterlimit="10"/>
  </g>
  <defs>
    <clipPath id="clip0_3537_2527">
      <rect width="28.6" height="28.3262" fill="white"/>
    </clipPath>
  </defs>
</svg>