<svg xmlns="http://www.w3.org/2000/svg" width="29" height="27" viewBox="0 0 29 27" fill="none">
  <g clip-path="url(#clip0_3537_3073)">
    <path d="M21.5702 25.5201L27.5302 22.9201C27.8702 22.7701 28.1002 22.4301 28.1002 22.0601V15.1801C28.1002 14.8101 27.8802 14.4701 27.5402 14.3201L21.7802 11.8001C21.4402 11.6501 21.2202 11.3101 21.2202 10.9401V4.07006C21.2202 3.70006 20.9902 3.36006 20.6502 3.21006L14.7002 0.580059C14.4602 0.470059 14.1902 0.470059 13.9402 0.580059L7.97023 3.19006C7.63023 3.34006 7.40023 3.68006 7.40023 4.06006V10.9301C7.40023 11.3101 7.19023 11.6501 6.84023 11.8001L1.06023 14.3201C0.720234 14.4701 0.490234 14.8101 0.490234 15.1801V22.0601C0.490234 22.4301 0.710234 22.7701 1.06023 22.9201L7.02023 25.5201C7.26023 25.6301 7.53023 25.6301 7.78023 25.5201L13.9202 22.8401C14.1602 22.7301 14.4302 22.7301 14.6802 22.8401L20.8202 25.5201C21.0602 25.6301 21.3302 25.6301 21.5702 25.5201Z" stroke="white" stroke-miterlimit="10"/>
    <path d="M21.22 3.42993H21.21" stroke="white" stroke-miterlimit="10"/>
    <path d="M7.43018 11.48L14.3302 14.5V14.51V22.61H14.3202" stroke="white" stroke-miterlimit="10"/>
    <path d="M7.41992 17.52V25.62" stroke="white" stroke-miterlimit="10"/>
    <path d="M14.33 14.5L7.42002 17.52L0.52002 14.5" stroke="white" stroke-miterlimit="10"/>
    <path d="M14.3298 22.61H14.3198V14.51V14.5H14.3298L21.2298 11.48" stroke="white" stroke-miterlimit="10"/>
    <path d="M21.21 17.52V25.62" stroke="white" stroke-miterlimit="10"/>
    <path d="M28.1298 14.5L21.2098 17.52L14.3198 14.5" stroke="white" stroke-miterlimit="10"/>
    <path d="M21.2302 11.48L14.3402 14.5H14.3302L7.43018 11.48" stroke="white" stroke-miterlimit="10"/>
    <path d="M14.3301 6.38989V14.4999" stroke="white" stroke-miterlimit="10"/>
    <path d="M21.2402 3.37012L14.3302 6.40012L7.43018 3.37012" stroke="white" stroke-miterlimit="10"/>
  </g>
  <defs>
    <clipPath id="clip0_3537_3073">
      <rect width="28.6" height="26.1" fill="white"/>
    </clipPath>
  </defs>
</svg>