<svg width="24" height="25" viewBox="0 0 24 25" fill="none" xmlns="http://www.w3.org/2000/svg">
<path fill-rule="evenodd" clip-rule="evenodd" d="M3.5 5.5C3.5 4.39543 4.39543 3.5 5.5 3.5C6.03043 3.5 6.53914 3.71071 6.91421 4.08579C7.28929 4.46086 7.5 4.96957 7.5 5.5C7.5 6.60457 6.60457 7.5 5.5 7.5C4.39543 7.5 3.5 6.60457 3.5 5.5ZM21 13.91C21.0345 11.7449 19.5574 9.84762 17.45 9.35C16.0377 9.0459 14.5657 9.44467 13.5 10.42V10C13.5 9.72386 13.2761 9.5 13 9.5H10.5C10.2239 9.5 10 9.72386 10 10V20C10 20.2761 10.2239 20.5 10.5 20.5H13C13.2761 20.5 13.5 20.2761 13.5 20V14.36C13.4753 13.3557 14.1753 12.4787 15.16 12.28C15.7464 12.1788 16.3473 12.3439 16.7997 12.7305C17.252 13.1171 17.5087 13.685 17.5 14.28V20C17.5 20.2761 17.7239 20.5 18 20.5H20.5C20.7761 20.5 21 20.2761 21 20V13.91ZM7.5 10V20C7.5 20.2761 7.27614 20.5 7 20.5H4.5C4.22386 20.5 4 20.2761 4 20V10C4 9.72386 4.22386 9.5 4.5 9.5H7C7.27614 9.5 7.5 9.72386 7.5 10Z" fill="#FEFEFE"/>
</svg>
