<svg width="125" height="22" viewBox="0 0 125 22" fill="none" xmlns="http://www.w3.org/2000/svg">
<g clip-path="url(#clip0_3470_1429)">
<path d="M29.3113 4.16492C34.7009 4.16492 35.2891 9.83994 39.6861 9.83994H41.3967V3.06345H33.079C29.3856 3.06345 26.4366 -0.0329843 20.6985 0.000126312C14.9603 -0.0332225 12.0111 3.06322 8.31768 3.06322H0V9.8397H1.71056C6.10737 9.8397 6.69574 4.16468 12.0854 4.16468H29.3113V4.16492Z" fill="white"/>
<path d="M29.3113 17.8352C34.7009 17.8352 35.2891 12.1602 39.6861 12.1602H41.3967V18.9367H33.079C29.3856 18.9367 26.4364 22.0331 20.6982 21.9998C14.9601 22.0331 12.0108 18.9367 8.31745 18.9367H0V12.1602H1.71056C6.10737 12.1602 6.69574 17.8352 12.0854 17.8352H29.3113Z" fill="white"/>
<path d="M20.6985 13.2533C21.9429 13.2533 22.9517 12.2445 22.9517 11.0001C22.9517 9.75572 21.9429 8.74693 20.6985 8.74693C19.4541 8.74693 18.4453 9.75572 18.4453 11.0001C18.4453 12.2445 19.4541 13.2533 20.6985 13.2533Z" fill="white"/>
<path d="M62.7584 7.57472C62.7584 10.4656 60.4064 12.8176 57.5155 12.8176H54.1411C51.25 12.8176 48.8979 10.4656 48.8979 7.57472C48.8979 4.68385 51.25 2.33132 54.1411 2.33132H57.5155C60.4064 2.33132 62.7584 4.68385 62.7584 7.57472ZM60.9414 7.57472C60.9414 5.6855 59.4047 4.1486 57.5155 4.1486H54.1411C52.2519 4.1486 50.7147 5.6855 50.7147 7.57472C50.7147 9.46393 52.2519 11.0008 54.1411 11.0008H57.5155C59.4047 11.0008 60.9414 9.46393 60.9414 7.57472Z" fill="white"/>
<path d="M78.6033 12.7921H76.3092L73.708 9.41771H66.4579V12.8179H64.6411V9.41771V2.33132H74.9678C76.9166 2.33132 78.5019 3.91706 78.5019 5.86534C78.5019 7.49396 77.3999 8.87079 75.9023 9.28765L78.6033 12.7919V12.7921ZM66.4579 4.14859V7.60067H74.9497C75.9066 7.60067 76.6848 6.82222 76.6848 5.86558C76.6848 4.90895 75.9145 4.14836 74.9678 4.14836H66.4582L66.4579 4.14859Z" fill="white"/>
<path d="M92.9707 8.21811C93.4278 8.7231 93.6798 9.37078 93.6793 10.042C93.6788 11.5689 92.3923 12.811 90.8113 12.811L82.6766 12.8114C81.9193 12.8114 81.2049 12.5289 80.6654 12.0165C80.1125 11.4918 79.8083 10.7907 79.8083 10.0416L81.6251 10.042C81.6251 10.2874 81.7285 10.5211 81.9162 10.6993C82.1168 10.8896 82.3869 10.9946 82.6763 10.9946L90.8111 10.9942C91.3904 10.9942 91.862 10.5668 91.8623 10.042C91.8623 9.57016 91.4892 9.17426 90.975 9.10042L82.254 7.84841C81.5813 7.7517 80.9646 7.42655 80.517 6.93227C80.0599 6.42727 79.8079 5.78007 79.8079 5.1088C79.8079 3.58214 81.0944 2.34037 82.6754 2.3399L90.813 2.33775H90.8137C91.5707 2.33775 92.2851 2.62027 92.8249 3.13217C93.3778 3.65694 93.6819 4.35845 93.6819 5.10714H91.8649C91.8649 4.86178 91.7615 4.6281 91.5738 4.44993C91.3732 4.2596 91.1034 4.15503 90.8139 4.15503L82.6763 4.15669C82.097 4.15669 81.6258 4.58404 81.6256 5.1088C81.6256 5.58021 81.9986 5.97563 82.5129 6.04972L91.2339 7.30197C91.9066 7.39844 92.5238 7.72383 92.9711 8.21811H92.9707Z" fill="white"/>
<path d="M97.5534 4.15503V6.66143H109.597V8.47823H97.5534V10.9944H109.597V12.8112H95.7366V2.33775H109.597V4.15503H97.5534Z" fill="white"/>
<path d="M124.407 10.0604C123.49 11.7614 121.72 12.8179 119.789 12.8179H116.415C113.524 12.8179 111.172 10.4658 111.172 7.57496C111.172 4.68409 113.524 2.33156 116.415 2.33156H119.789C121.685 2.33156 123.439 3.36014 124.366 5.01496L122.781 5.90323C122.175 4.82082 121.028 4.14884 119.789 4.14884H116.415C114.526 4.14884 112.989 5.68574 112.989 7.57496C112.989 9.46417 114.526 11.0011 116.415 11.0011H119.789C121.051 11.0011 122.208 10.3103 122.808 9.19833L124.407 10.0606V10.0604Z" fill="white"/>
<path d="M52.3746 19.6689C52.0254 19.6689 51.7116 19.633 51.4329 19.5608C51.1545 19.4888 50.9175 19.3847 50.7221 19.2492C50.5266 19.1134 50.3763 18.9493 50.271 18.7566C50.1657 18.5639 50.113 18.3457 50.113 18.1018C50.113 17.8578 50.165 17.643 50.2691 17.4491C50.3729 17.2552 50.5218 17.0901 50.7159 16.9543C50.9101 16.8188 51.1454 16.7149 51.4227 16.6428C51.7 16.5706 52.0115 16.5346 52.3581 16.5346C53.0565 16.5346 53.6759 16.6913 54.2161 17.0044V17.4908L54.1911 17.4951C53.8946 17.3121 53.6008 17.1785 53.3098 17.0939C53.0189 17.0094 52.7071 16.9672 52.3746 16.9672C52.1085 16.9672 51.8689 16.9934 51.6554 17.046C51.442 17.0989 51.2619 17.1742 51.1149 17.2726C50.968 17.371 50.8551 17.4901 50.7762 17.6301C50.6974 17.7699 50.6578 17.9288 50.6578 18.1061C50.6578 18.2833 50.6966 18.4379 50.7743 18.5779C50.8517 18.7178 50.9646 18.8374 51.113 18.9355C51.2614 19.0339 51.4415 19.1089 51.6535 19.1599C51.8655 19.2113 52.1047 19.2368 52.3705 19.2368C52.7031 19.2368 53.0149 19.1949 53.306 19.1103C53.5968 19.0258 53.8922 18.8921 54.1914 18.7092L54.2123 18.7132V19.1997C53.9351 19.3576 53.6475 19.4755 53.3498 19.5529C53.0518 19.6306 52.7269 19.6694 52.375 19.6694L52.3746 19.6689Z" fill="white"/>
<path d="M60.2311 16.6175L60.2394 16.6342L58.4269 18.6711V19.6189H57.8991V18.6711L56.0825 16.6342L56.0909 16.6175H56.7019L58.1652 18.2637L59.6242 16.6175H60.2311Z" fill="white"/>
<path d="M65.5686 18.056C66.0036 18.1668 66.2213 18.4107 66.2213 18.7876C66.2213 18.9403 66.1894 19.0663 66.1258 19.1661C66.062 19.2656 65.9719 19.3488 65.8557 19.4155C65.7699 19.4655 65.6777 19.5043 65.5794 19.5317C65.481 19.5596 65.3826 19.5796 65.2842 19.5922C65.1858 19.6048 65.0918 19.6122 65.0017 19.6151C64.9117 19.6177 64.8333 19.6191 64.7668 19.6191H62.1895V16.6177H64.6878C64.7597 16.6177 64.8388 16.6185 64.9248 16.6199C65.0105 16.6213 65.0999 16.6282 65.1928 16.6406C65.2857 16.653 65.3783 16.6711 65.4712 16.6947C65.5639 16.7183 65.652 16.7538 65.7352 16.8007C65.8376 16.8564 65.9207 16.9317 65.9846 17.0272C66.0482 17.1227 66.0801 17.2428 66.0801 17.3869C66.0801 17.6999 65.9098 17.9233 65.5689 18.0563L65.5686 18.056ZM62.7168 17.0501V17.8731H64.6125C64.8314 17.8731 64.9955 17.8633 65.1051 17.844C65.2147 17.8247 65.2997 17.7971 65.3607 17.7609C65.4191 17.7249 65.4605 17.6825 65.4855 17.6342C65.5105 17.5858 65.5229 17.5282 65.5229 17.4615C65.5229 17.3176 65.4605 17.2135 65.3359 17.1499C65.2695 17.1165 65.182 17.0915 65.0741 17.0749C64.966 17.0584 64.8204 17.0501 64.6375 17.0501H62.7171H62.7168ZM65.4772 19.0663C65.602 18.9857 65.6642 18.8709 65.6642 18.7211C65.6642 18.5713 65.5948 18.4565 65.4562 18.3845C65.3869 18.3485 65.2947 18.3221 65.1799 18.3054C65.0648 18.2888 64.9007 18.2807 64.6873 18.2807H62.7168V19.1868H64.733C64.8438 19.1868 64.9395 19.1839 65.0198 19.1785C65.1001 19.173 65.1689 19.1654 65.2256 19.1556C65.2823 19.1458 65.3309 19.1334 65.3709 19.1182C65.411 19.1032 65.4464 19.0858 65.4769 19.0663H65.4772Z" fill="white"/>
<path d="M72.0367 17.0501H68.9024V17.9064H71.8495V18.3262H68.9024V19.1868H72.0367V19.6189H68.3745V16.6175H72.0367V17.0498V17.0501Z" fill="white"/>
<path d="M78.1598 19.6022L78.1517 19.6189H77.499L76.3225 18.4383H74.7637V19.6189H74.2358V16.6175H76.5886C76.874 16.6175 77.1074 16.6363 77.2889 16.6737C77.4704 16.7111 77.6208 16.7659 77.7401 16.8381C77.9757 16.9851 78.0936 17.2054 78.0936 17.4991C78.0936 17.7707 77.9959 17.9841 77.8006 18.1394C77.605 18.2947 77.3204 18.3876 76.9461 18.4179L78.16 19.6025L78.1598 19.6022ZM74.7637 17.0501V18.0062H76.4931C76.7313 18.0062 76.9135 17.9965 77.0398 17.9772C77.166 17.9579 77.2649 17.9288 77.337 17.8898C77.4809 17.8123 77.5531 17.6918 77.5531 17.5282C77.5531 17.4367 77.5331 17.3605 77.4926 17.2995C77.4526 17.2385 77.4006 17.1916 77.3368 17.1582C77.2618 17.1196 77.1572 17.0918 77.0229 17.0751C76.8885 17.0587 76.7091 17.0503 76.4845 17.0503H74.7635L74.7637 17.0501Z" fill="white"/>
<path d="M86.8935 17.0001C87.2565 17.2578 87.4383 17.6304 87.4383 18.1184C87.4383 18.6065 87.2553 18.9788 86.8894 19.2366C86.7065 19.364 86.4785 19.4598 86.2056 19.5236C85.9326 19.5875 85.6008 19.6191 85.2101 19.6191H83.1772V16.6177H85.2101C85.6036 16.6177 85.9366 16.6497 86.2096 16.7135C86.4826 16.7773 86.7106 16.8729 86.8935 17.0003V17.0001ZM86.4943 18.9331C86.7603 18.7611 86.8933 18.4896 86.8933 18.1184C86.8933 17.7473 86.7603 17.4753 86.4943 17.3038C86.3585 17.2149 86.1805 17.1506 85.96 17.1104C85.7396 17.0703 85.4564 17.0501 85.1098 17.0501H83.7049V19.1868H85.1098C85.4564 19.1868 85.7394 19.1661 85.96 19.1241C86.1803 19.0827 86.3583 19.0191 86.4943 18.9331Z" fill="white"/>
<path d="M93.2532 17.0501H90.1189V17.9064H93.066V18.3262H90.1189V19.1868H93.2532V19.6189H89.5908V16.6175H93.2532V17.0498V17.0501Z" fill="white"/>
<path d="M99.1272 17.0501H95.9805V17.8981H98.9405V18.3304H95.9805V19.6189H95.4526V16.6175H99.1274V17.0498L99.1272 17.0501Z" fill="white"/>
<path d="M104.951 17.0501H101.817V17.9064H104.764V18.3262H101.817V19.1868H104.951V19.6189H101.289V16.6175H104.951V17.0498V17.0501Z" fill="white"/>
<path d="M110.563 16.6175H111.091V19.6189H110.517L107.678 17.2204V19.6189H107.15V16.6175H107.695L110.563 19.037V16.6175H110.563Z" fill="white"/>
<path d="M115.303 19.6689C115.118 19.6689 114.934 19.6634 114.751 19.6523C114.568 19.6413 114.392 19.6246 114.222 19.6022C114.051 19.5803 113.89 19.5529 113.738 19.5212C113.586 19.4896 113.447 19.4526 113.323 19.4112V18.9412L113.348 18.9288C113.625 19.0315 113.93 19.1084 114.264 19.1594C114.598 19.2109 114.953 19.2363 115.33 19.2363C115.829 19.2363 116.199 19.1949 116.438 19.1118C116.678 19.0286 116.798 18.9081 116.798 18.7502C116.798 18.6504 116.748 18.5727 116.648 18.5174C116.548 18.4619 116.417 18.4198 116.253 18.3907C116.089 18.3617 115.903 18.3407 115.694 18.3283C115.485 18.3159 115.271 18.3014 115.054 18.2847C114.836 18.268 114.623 18.2454 114.413 18.2161C114.204 18.1868 114.018 18.1411 113.854 18.0789C113.691 18.0165 113.559 17.9336 113.459 17.8295C113.36 17.7254 113.31 17.5906 113.31 17.4243C113.31 17.1306 113.474 16.9088 113.802 16.759C114.13 16.6094 114.606 16.5346 115.23 16.5346C115.577 16.5346 115.909 16.5568 116.228 16.6013C116.546 16.6456 116.844 16.7106 117.121 16.7966V17.2416L117.097 17.2497C116.964 17.2056 116.821 17.1661 116.67 17.1313C116.519 17.0968 116.364 17.0668 116.205 17.042C116.045 17.0172 115.886 16.9984 115.725 16.9858C115.564 16.9734 115.406 16.9672 115.251 16.9672C115.032 16.9672 114.835 16.9774 114.661 16.9982C114.486 17.0189 114.339 17.0482 114.218 17.0856C114.097 17.1227 114.005 17.1673 113.941 17.2185C113.877 17.27 113.846 17.3271 113.846 17.391C113.846 17.4882 113.896 17.5637 113.995 17.6175C114.095 17.6716 114.226 17.7125 114.39 17.7402C114.553 17.7678 114.739 17.7878 114.946 17.8004C115.154 17.8128 115.367 17.8274 115.586 17.844C115.804 17.8605 116.017 17.884 116.225 17.9148C116.433 17.9453 116.618 17.9924 116.782 18.056C116.945 18.1199 117.076 18.2051 117.176 18.3116C117.276 18.4183 117.325 18.5565 117.325 18.7252C117.325 19.0494 117.164 19.2878 116.842 19.44C116.519 19.5927 116.006 19.6687 115.303 19.6687L115.303 19.6689Z" fill="white"/>
<path d="M123.191 17.0501H120.057V17.9064H123.004V18.3262H120.057V19.1868H123.191V19.6189H119.529V16.6175H123.191V17.0498V17.0501Z" fill="white"/>
</g>
<defs>
<clipPath id="clip0_3470_1429">
<rect width="124.407" height="22" fill="white"/>
</clipPath>
</defs>
</svg>
