<svg width="47" height="49" viewBox="0 0 47 49" fill="none" xmlns="http://www.w3.org/2000/svg">
<path d="M13.6505 29.1741H32.4016C39.5191 29.1741 45.2924 34.9474 45.2924 42.0649V42.442C45.2924 45.4302 42.8651 47.8575 39.8769 47.8575H6.16549C3.1773 47.8575 0.75 45.4302 0.75 42.442V42.0649C0.75 34.9474 6.52329 29.1741 13.6408 29.1741H13.6505Z" stroke="white" stroke-width="1.5" stroke-miterlimit="10"/>
<path d="M23.0212 1.42847C28.4077 1.42847 32.7885 5.80921 32.7885 11.1957V17.3752C32.7885 22.017 29.017 25.7885 24.3751 25.7885H21.677C17.0352 25.7885 13.2637 22.017 13.2637 17.3752V11.1957C13.2637 5.80921 17.6444 1.42847 23.0309 1.42847H23.0212Z" stroke="white" stroke-width="1.5" stroke-miterlimit="10"/>
<path d="M34.307 35.9238L35.0613 37.3164C35.1 37.3937 35.1677 37.4421 35.2547 37.4518L36.8117 37.7419C37.3339 37.8386 37.537 38.4672 37.1695 38.854L36.0767 40.0048C36.0187 40.0628 35.9897 40.1498 35.9994 40.2272L36.2121 41.7938C36.2798 42.316 35.7479 42.7029 35.2644 42.4804L33.8332 41.7938C33.7558 41.7551 33.6688 41.7551 33.6011 41.7938L32.1698 42.4804C31.696 42.7029 31.1544 42.316 31.2221 41.7938L31.4349 40.2272C31.4446 40.1498 31.4155 40.0628 31.3575 40.0048L30.2647 38.854C29.8973 38.4768 30.11 37.8386 30.6226 37.7419L32.1795 37.4518C32.2569 37.4324 32.3342 37.3841 32.3729 37.3164L33.1272 35.9238C33.3787 35.4596 34.0459 35.4596 34.2974 35.9238H34.307Z" fill="white"/>
</svg>
