<svg width="52" height="49" viewBox="0 0 52 49" fill="none" xmlns="http://www.w3.org/2000/svg">
<path d="M7.1303 23.2461H6.00003C3.48777 23.2461 1.45117 25.2827 1.45117 27.795V33.8076C1.45117 36.3199 3.48777 38.3565 6.00003 38.3565H7.1303C9.64256 38.3565 11.6792 36.3199 11.6792 33.8076V27.795C11.6792 25.2827 9.64256 23.2461 7.1303 23.2461Z" stroke="white" stroke-width="1.5" stroke-miterlimit="10"/>
<path d="M45.9858 23.2461H44.8555C42.3432 23.2461 40.3066 25.2827 40.3066 27.795V33.8076C40.3066 36.3199 42.3432 38.3565 44.8555 38.3565H45.9858C48.498 38.3565 50.5346 36.3199 50.5346 33.8076V27.795C50.5346 25.2827 48.498 23.2461 45.9858 23.2461Z" stroke="white" stroke-width="1.5" stroke-miterlimit="10"/>
<path d="M6.57422 38.3569V41.3772C6.57422 43.6747 8.43638 45.5369 10.734 45.5369H19.3963" stroke="white" stroke-width="1.5" stroke-miterlimit="10"/>
<path d="M27.5214 42.6372H21.4069C20.2966 42.6372 19.3965 43.5373 19.3965 44.6476V46.204C19.3965 47.3143 20.2966 48.2144 21.4069 48.2144H27.5214C28.6317 48.2144 29.5318 47.3143 29.5318 46.204V44.6476C29.5318 43.5373 28.6317 42.6372 27.5214 42.6372Z" stroke="white" stroke-width="1.5" stroke-miterlimit="10"/>
<path d="M19.6097 28.7677C20.6535 28.7677 21.4996 27.9215 21.4996 26.8777C21.4996 25.834 20.6535 24.9878 19.6097 24.9878C18.5659 24.9878 17.7197 25.834 17.7197 26.8777C17.7197 27.9215 18.5659 28.7677 19.6097 28.7677Z" fill="white"/>
<path d="M26.178 28.7677C27.2218 28.7677 28.068 27.9215 28.068 26.8777C28.068 25.834 27.2218 24.9878 26.178 24.9878C25.1342 24.9878 24.2881 25.834 24.2881 26.8777C24.2881 27.9215 25.1342 28.7677 26.178 28.7677Z" fill="white"/>
<path d="M32.7464 28.7677C33.7902 28.7677 34.6364 27.9215 34.6364 26.8777C34.6364 25.834 33.7902 24.9878 32.7464 24.9878C31.7026 24.9878 30.8564 25.834 30.8564 26.8777C30.8564 27.9215 31.7026 28.7677 32.7464 28.7677Z" fill="white"/>
<path d="M6.68555 23.2556V21.0692C6.68555 10.2205 15.4775 1.42847 26.3262 1.42847C37.1749 1.42847 45.9669 10.2205 45.9669 21.0692V23.2556" stroke="white" stroke-width="1.5" stroke-miterlimit="10"/>
</svg>
