<svg width="49" height="49" viewBox="0 0 49 49" fill="none" xmlns="http://www.w3.org/2000/svg">
<path d="M17.795 1.52295H4.96561C2.65627 1.52295 0.78418 3.39504 0.78418 5.70439V12.9691C0.78418 15.2785 2.65627 17.1506 4.96561 17.1506H17.795C20.1044 17.1506 21.9765 15.2785 21.9765 12.9691V5.70439C21.9765 3.39504 20.1044 1.52295 17.795 1.52295Z" stroke="white" stroke-width="1.5" stroke-miterlimit="10"/>
<path d="M17.795 21.2368H4.96561C2.65627 21.2368 0.78418 23.1089 0.78418 25.4183V43.6751C0.78418 45.9844 2.65627 47.8565 4.96561 47.8565H17.795C20.1044 47.8565 21.9765 45.9844 21.9765 43.6751V25.4183C21.9765 23.1089 20.1044 21.2368 17.795 21.2368Z" stroke="white" stroke-width="1.5" stroke-miterlimit="10"/>
<path d="M30.4559 47.8569H43.2853C45.5947 47.8569 47.4668 45.9848 47.4668 43.6755V36.4108C47.4668 34.1014 45.5947 32.2293 43.2853 32.2293H30.4559C28.1466 32.2293 26.2745 34.1014 26.2745 36.4108V43.6755C26.2745 45.9848 28.1466 47.8569 30.4559 47.8569Z" stroke="white" stroke-width="1.5" stroke-miterlimit="10"/>
<path d="M30.4559 28.0483L43.2853 28.0483C45.5947 28.0483 47.4668 26.1762 47.4668 23.8669V5.61005C47.4668 3.30071 45.5947 1.42861 43.2853 1.42861L30.4559 1.42861C28.1466 1.42861 26.2745 3.30071 26.2745 5.61005L26.2745 23.8669C26.2745 26.1762 28.1466 28.0483 30.4559 28.0483Z" stroke="white" stroke-width="1.5" stroke-miterlimit="10"/>
</svg>
