<svg width="225" height="271" viewBox="0 0 225 271" fill="none" xmlns="http://www.w3.org/2000/svg">
<g clip-path="url(#clip0_3470_317)">
<path d="M77.6267 177.452C77.6267 178.057 75.4679 178.55 72.8052 178.55C70.1424 178.55 67.9805 178.057 67.9805 177.452C67.9805 177.406 67.9932 177.356 68.0217 177.309L68.0312 177.3C68.3514 176.766 70.3674 176.358 72.8052 176.358C75.4679 176.358 77.6267 176.847 77.6267 177.452Z" stroke="white" stroke-width="0.5" stroke-miterlimit="10"/>
<path d="M65.8284 180.025L65.8157 180.041C65.7048 180.147 65.6445 180.262 65.6445 180.381C65.6445 181.254 68.8494 181.962 72.8055 181.962C76.7616 181.962 79.9664 181.254 79.9664 180.381C79.9664 180.262 79.9094 180.15 79.7984 180.041" stroke="white" stroke-width="0.5" stroke-miterlimit="10"/>
<path d="M65.8154 180.041L65.8281 180.025L68.0217 177.309L68.0312 177.3" stroke="white" stroke-width="0.5" stroke-miterlimit="10"/>
<path d="M77.5347 177.231L79.798 180.041" stroke="white" stroke-width="0.5" stroke-miterlimit="10"/>
<path d="M106.996 177.452C106.996 178.057 104.838 178.55 102.175 178.55C99.512 178.55 97.3501 178.057 97.3501 177.452C97.3501 177.406 97.3628 177.356 97.3913 177.309L97.4008 177.3C97.721 176.766 99.7371 176.358 102.175 176.358C104.838 176.358 106.996 176.847 106.996 177.452Z" stroke="white" stroke-width="0.5" stroke-miterlimit="10"/>
<path d="M95.198 180.025L95.1853 180.041C95.0744 180.147 95.0142 180.262 95.0142 180.381C95.0142 181.254 98.219 181.962 102.175 181.962C106.131 181.962 109.336 181.254 109.336 180.381C109.336 180.262 109.279 180.15 109.168 180.041" stroke="white" stroke-width="0.5" stroke-miterlimit="10"/>
<path d="M95.1851 180.041L95.1977 180.025L97.3914 177.309L97.4009 177.3" stroke="white" stroke-width="0.5" stroke-miterlimit="10"/>
<path d="M106.904 177.231L109.168 180.041" stroke="white" stroke-width="0.5" stroke-miterlimit="10"/>
<path d="M136.366 177.452C136.366 178.057 134.207 178.55 131.544 178.55C128.882 178.55 126.72 178.057 126.72 177.452C126.72 177.406 126.732 177.356 126.761 177.309L126.77 177.3C127.091 176.766 129.107 176.358 131.544 176.358C134.207 176.358 136.366 176.847 136.366 177.452Z" stroke="white" stroke-width="0.5" stroke-miterlimit="10"/>
<path d="M124.568 180.025L124.555 180.041C124.444 180.147 124.384 180.262 124.384 180.381C124.384 181.254 127.589 181.962 131.545 181.962C135.501 181.962 138.706 181.254 138.706 180.381C138.706 180.262 138.649 180.15 138.538 180.041" stroke="white" stroke-width="0.5" stroke-miterlimit="10"/>
<path d="M124.555 180.041L124.567 180.025L126.761 177.309L126.77 177.3" stroke="white" stroke-width="0.5" stroke-miterlimit="10"/>
<path d="M136.274 177.231L138.538 180.041" stroke="white" stroke-width="0.5" stroke-miterlimit="10"/>
<path d="M77.6267 177.452C77.6267 178.057 75.4679 178.55 72.8052 178.55C70.1424 178.55 67.9805 178.057 67.9805 177.452C67.9805 177.406 67.9932 177.356 68.0217 177.309L68.0312 177.3C68.3514 176.766 70.3674 176.358 72.8052 176.358C75.4679 176.358 77.6267 176.847 77.6267 177.452Z" stroke="white" stroke-width="0.5" stroke-miterlimit="10"/>
<path d="M106.996 177.452C106.996 178.057 104.838 178.55 102.175 178.55C99.512 178.55 97.3501 178.057 97.3501 177.452C97.3501 177.406 97.3628 177.356 97.3913 177.309L97.4008 177.3C97.721 176.766 99.7371 176.358 102.175 176.358C104.838 176.358 106.996 176.847 106.996 177.452Z" stroke="white" stroke-width="0.5" stroke-miterlimit="10"/>
<path d="M136.366 177.452C136.366 178.057 134.207 178.55 131.544 178.55C128.882 178.55 126.72 178.057 126.72 177.452C126.72 177.406 126.732 177.356 126.761 177.309L126.77 177.3C127.091 176.766 129.107 176.358 131.544 176.358C134.207 176.358 136.366 176.847 136.366 177.452Z" stroke="white" stroke-width="0.5" stroke-miterlimit="10"/>
<path d="M165.647 179.982C165.672 180.044 165.685 180.113 165.685 180.178C165.685 181.182 162.962 181.993 159.602 181.993C156.242 181.993 153.522 181.182 153.522 180.178C153.522 180.113 153.535 180.044 153.56 179.982C153.535 179.919 153.522 179.851 153.522 179.785C153.522 179.464 153.804 179.162 154.295 178.903C153.985 178.884 153.677 178.868 153.367 178.85C153.297 178.75 153.122 178.463 153.129 178.067C153.132 177.967 153.145 177.877 153.167 177.792C153.141 177.696 153.126 177.587 153.129 177.465C153.138 177.016 153.373 176.71 153.449 176.623L155.903 176.66C156.796 176.242 158.261 175.971 159.916 175.971C162.645 175.971 164.858 176.71 164.858 177.621V178.513C164.858 178.619 164.826 178.725 164.766 178.828C165.349 179.105 165.685 179.436 165.685 179.785C165.685 179.851 165.672 179.919 165.647 179.982Z" stroke="white" stroke-width="0.5" stroke-miterlimit="10"/>
<path d="M213.872 209.207V211.892C213.942 213.342 212.74 214.599 211.19 214.599H71.5978C70.0477 214.599 68.8462 213.342 68.916 211.892V209.207C68.9065 209.014 68.916 208.817 68.9572 208.618L72.254 191.381C72.5139 190.018 73.747 189.026 75.183 189.026H207.605C209.041 189.026 210.271 190.018 210.534 191.381L213.831 208.618C213.869 208.817 213.881 209.014 213.872 209.207Z" stroke="white" stroke-width="0.5" stroke-miterlimit="10"/>
<path d="M223.385 223.815L211.643 181.139C210.724 177.802 207.9 175.388 204.533 174.926L207.741 182.826C207.77 182.895 207.782 182.963 207.786 183.029V185.361C207.786 185.686 207.519 185.979 207.161 185.979H179.744C179.443 185.979 179.183 185.764 179.129 185.471L177.519 176.557C177.516 176.532 177.512 176.504 177.512 176.479V174.845H55.6275V176.479C55.6275 176.504 55.6243 176.532 55.6211 176.557L54.0108 185.471C53.9569 185.764 53.697 185.979 53.3958 185.979H25.9788C25.6206 185.979 25.3543 185.686 25.3543 185.361V183.029C25.3575 182.96 25.3702 182.891 25.3987 182.826L28.6384 174.845H20.7199C16.8493 174.845 13.4575 177.421 12.4336 181.139L0.688881 223.815C0.416264 223.226 0.254596 222.583 0.219727 221.913V221.423C0.235576 221.03 0.298976 220.628 0.409924 220.228L12.4336 177.078C13.4575 173.404 16.8493 170.86 20.7199 170.86H203.357C207.228 170.86 210.62 173.404 211.643 177.078L223.664 220.228C224.016 221.485 223.879 222.739 223.385 223.815Z" stroke="white" stroke-width="0.5" stroke-miterlimit="10"/>
<path d="M55.6271 174.845V176.479C55.6271 176.504 55.624 176.532 55.6208 176.557L54.0104 185.471C53.9566 185.764 53.6966 185.979 53.3955 185.979H25.9785C25.6203 185.979 25.354 185.686 25.354 185.361V183.029C25.3572 182.96 25.3699 182.891 25.3984 182.826L28.6381 174.845" stroke="white" stroke-width="0.5" stroke-miterlimit="10"/>
<path d="M77.6267 177.452C77.6267 178.057 75.4679 178.55 72.8052 178.55C70.1424 178.55 67.9805 178.057 67.9805 177.452C67.9805 177.406 67.9932 177.356 68.0217 177.309L68.0312 177.3C68.3514 176.766 70.3674 176.358 72.8052 176.358C75.4679 176.358 77.6267 176.847 77.6267 177.452Z" stroke="white" stroke-width="0.5" stroke-miterlimit="10"/>
<path d="M41.5116 192.204C41.5116 192.513 40.4148 192.762 39.058 192.762C37.7013 192.762 36.6045 192.513 36.6045 192.204C36.6045 192.179 36.6108 192.154 36.6267 192.132L36.633 192.126C36.7947 191.855 37.8218 191.646 39.0612 191.646C40.4148 191.646 41.5148 191.895 41.5148 192.204H41.5116Z" stroke="white" stroke-width="0.5" stroke-miterlimit="10"/>
<path d="M35.5109 193.511L35.5045 193.52C35.4475 193.573 35.4189 193.632 35.4189 193.691C35.4189 194.134 37.0483 194.496 39.0612 194.496C41.0742 194.496 42.7035 194.137 42.7035 193.691C42.7035 193.632 42.675 193.573 42.6179 193.52" stroke="white" stroke-width="0.5" stroke-miterlimit="10"/>
<path d="M35.5044 193.52L35.5107 193.511L36.6266 192.129L36.6329 192.126" stroke="white" stroke-width="0.5" stroke-miterlimit="10"/>
<path d="M41.4639 192.092L42.6146 193.52" stroke="white" stroke-width="0.5" stroke-miterlimit="10"/>
<path d="M41.5116 192.204C41.5116 192.513 40.4148 192.762 39.058 192.762C37.7013 192.762 36.6045 192.513 36.6045 192.204C36.6045 192.179 36.6108 192.154 36.6267 192.132L36.633 192.126C36.7947 191.855 37.8218 191.646 39.0612 191.646C40.4148 191.646 41.5148 191.895 41.5148 192.204H41.5116Z" stroke="white" stroke-width="0.5" stroke-miterlimit="10"/>
<path d="M106.996 177.452C106.996 178.057 104.838 178.55 102.175 178.55C99.512 178.55 97.3501 178.057 97.3501 177.452C97.3501 177.406 97.3628 177.356 97.3913 177.309L97.4008 177.3C97.721 176.766 99.7371 176.358 102.175 176.358C104.838 176.358 106.996 176.847 106.996 177.452Z" stroke="white" stroke-width="0.5" stroke-miterlimit="10"/>
<path d="M136.366 177.452C136.366 178.057 134.207 178.55 131.544 178.55C128.882 178.55 126.72 178.057 126.72 177.452C126.72 177.406 126.732 177.356 126.761 177.309L126.77 177.3C127.091 176.766 129.107 176.358 131.544 176.358C134.207 176.358 136.366 176.847 136.366 177.452Z" stroke="white" stroke-width="0.5" stroke-miterlimit="10"/>
<path d="M165.647 179.982C165.672 180.044 165.685 180.113 165.685 180.178C165.685 181.182 162.962 181.993 159.602 181.993C156.242 181.993 153.522 181.182 153.522 180.178C153.522 180.113 153.535 180.044 153.56 179.982C153.535 179.919 153.522 179.851 153.522 179.785C153.522 179.464 153.804 179.162 154.295 178.903C153.985 178.884 153.677 178.868 153.367 178.85C153.297 178.75 153.122 178.463 153.129 178.067C153.132 177.967 153.145 177.877 153.167 177.792C153.141 177.696 153.126 177.587 153.129 177.465C153.138 177.016 153.373 176.71 153.449 176.623L155.903 176.66C156.796 176.242 158.261 175.971 159.916 175.971C162.645 175.971 164.858 176.71 164.858 177.621V178.513C164.858 178.619 164.826 178.725 164.766 178.828C165.349 179.105 165.685 179.436 165.685 179.785C165.685 179.851 165.672 179.919 165.647 179.982Z" stroke="white" stroke-width="0.5" stroke-miterlimit="10"/>
<path d="M204.533 174.926L207.741 182.826C207.769 182.895 207.782 182.963 207.785 183.029V185.361C207.785 185.686 207.519 185.979 207.161 185.979H179.744C179.443 185.979 179.183 185.764 179.129 185.471L177.519 176.557C177.519 176.532 177.512 176.504 177.512 176.479V174.845" stroke="white" stroke-width="0.5" stroke-miterlimit="10"/>
<path d="M213.872 209.207V211.892C213.942 213.342 212.74 214.599 211.19 214.599H71.5978C70.0477 214.599 68.8462 213.342 68.916 211.892V209.207C68.9065 209.014 68.916 208.817 68.9572 208.618L72.254 191.381C72.5139 190.018 73.747 189.026 75.183 189.026H207.605C209.041 189.026 210.271 190.018 210.534 191.381L213.831 208.618C213.869 208.817 213.881 209.014 213.872 209.207Z" stroke="white" stroke-width="0.5" stroke-miterlimit="10"/>
<path d="M77.6872 231.662H74.8501" stroke="white" stroke-width="0.5" stroke-miterlimit="10"/>
<path d="M142.712 231.662H81.3608" stroke="white" stroke-width="0.5" stroke-miterlimit="10"/>
<path d="M71.1317 231.662H5.64353C2.6606 231.662 0.362375 229.307 0.219727 226.534V226.029" stroke="white" stroke-width="0.5" stroke-miterlimit="10"/>
<path d="M0.688477 223.815C1.52218 225.649 3.38928 226.974 5.64312 226.974H169.571" stroke="white" stroke-width="0.5" stroke-miterlimit="10"/>
<path d="M152.942 231.662H218.433C221.461 231.662 223.787 229.235 223.857 226.403C223.86 226.301 223.86 226.198 223.857 226.092" stroke="white" stroke-width="0.5" stroke-miterlimit="10"/>
<path d="M218.401 226.974H218.433C220.687 226.974 222.551 225.646 223.385 223.815" stroke="white" stroke-width="0.5" stroke-miterlimit="10"/>
<path d="M149.224 231.662H146.39" stroke="white" stroke-width="0.5" stroke-miterlimit="10"/>
<path d="M0.219727 221.423V221.913V226.029V226.534" stroke="white" stroke-width="0.5" stroke-miterlimit="10"/>
<path d="M223.857 221.423V226.092V226.403" stroke="white" stroke-width="0.5" stroke-miterlimit="10"/>
<path d="M54.356 268.147H35.9702" stroke="white" stroke-width="0.5" stroke-miterlimit="10"/>
<path d="M188.103 268.147H169.721" stroke="white" stroke-width="0.5" stroke-miterlimit="10"/>
<path d="M191.003 268.147H203.575C210.248 268.147 215.783 263.076 216.259 256.527L218.059 231.662" stroke="white" stroke-width="0.5" stroke-miterlimit="10"/>
<path d="M166.82 268.147H57.2568" stroke="white" stroke-width="0.5" stroke-miterlimit="10"/>
<path d="M6.01416 231.662L7.81787 256.527C8.29019 263.076 13.8281 268.147 20.5009 268.147H33.0698" stroke="white" stroke-width="0.5" stroke-miterlimit="10"/>
<path d="M5.6748 226.974H51.6012H54.5017H71.8477H78.4032H145.673H152.225H169.571H172.472H190.858H193.758H218.401" stroke="white" stroke-width="0.5" stroke-miterlimit="10"/>
<path d="M33.5297 231.662L35.9705 268.147L36.0244 268.977C36.0783 269.8 35.419 270.496 34.5821 270.496C33.8181 270.496 33.1873 269.912 33.1366 269.164L33.07 268.147L30.6323 231.662" stroke="white" stroke-width="0.5" stroke-miterlimit="10"/>
<path d="M54.5021 226.974H51.6016" stroke="white" stroke-width="0.5" stroke-miterlimit="10"/>
<path d="M54.8156 231.662L57.2564 268.147L57.3103 268.977C57.3642 269.8 56.7017 270.496 55.8648 270.496C55.104 270.496 54.4732 269.912 54.4225 269.164L54.3559 268.147L51.915 231.662" stroke="white" stroke-width="0.5" stroke-miterlimit="10"/>
<path d="M190.544 231.662L188.103 268.147L188.049 268.977C187.995 269.8 188.658 270.496 189.494 270.496C190.255 270.496 190.889 269.912 190.937 269.164L191.003 268.147L193.444 231.662" stroke="white" stroke-width="0.5" stroke-miterlimit="10"/>
<path d="M193.758 226.974H190.858" stroke="white" stroke-width="0.5" stroke-miterlimit="10"/>
<path d="M172.158 231.662L169.721 268.147L169.654 269.164C169.603 269.912 168.972 270.496 168.208 270.496C167.372 270.496 166.709 269.8 166.766 268.977L166.82 268.147L169.258 231.662" stroke="white" stroke-width="0.5" stroke-miterlimit="10"/>
<path d="M172.472 226.974H169.571" stroke="white" stroke-width="0.5" stroke-miterlimit="10"/>
<path d="M78.416 226.896L77.4333 233.305C77.3572 233.807 77.7503 234.256 78.267 234.256H79.4335C79.8488 234.256 80.2038 233.957 80.2672 233.552L81.2848 226.996" stroke="white" stroke-width="0.5" stroke-miterlimit="10"/>
<path d="M77.4302 233.436L78.9835 249.279C79.0786 250.184 79.852 250.873 80.7777 250.873C81.307 250.873 81.7223 250.43 81.6779 249.909L81.6462 249.526L80.2958 233.343" stroke="white" stroke-width="0.5" stroke-miterlimit="10"/>
<path d="M81.2852 227.177L81.6819 250.18" stroke="white" stroke-width="0.5" stroke-miterlimit="10"/>
<path d="M71.8608 226.896L70.8781 233.305C70.802 233.807 71.1951 234.256 71.7118 234.256H72.8783C73.2936 234.256 73.6486 233.957 73.712 233.552L74.7296 226.996" stroke="white" stroke-width="0.5" stroke-miterlimit="10"/>
<path d="M70.8779 233.436L72.4312 249.279C72.5263 250.184 73.2998 250.873 74.2254 250.873H75.2081L73.7467 233.343" stroke="white" stroke-width="0.5" stroke-miterlimit="10"/>
<path d="M74.7739 227.177L75.1707 250.18" stroke="white" stroke-width="0.5" stroke-miterlimit="10"/>
<path d="M145.66 226.896L146.643 233.305C146.719 233.807 146.326 234.256 145.809 234.256H144.643C144.227 234.256 143.872 233.957 143.809 233.552L142.792 226.996" stroke="white" stroke-width="0.5" stroke-miterlimit="10"/>
<path d="M146.643 233.436L145.09 249.279C144.995 250.184 144.221 250.873 143.296 250.873C142.766 250.873 142.351 250.43 142.395 249.909L142.427 249.526L143.777 233.343" stroke="white" stroke-width="0.5" stroke-miterlimit="10"/>
<path d="M142.789 227.177L142.392 250.18" stroke="white" stroke-width="0.5" stroke-miterlimit="10"/>
<path d="M152.213 226.896L153.195 233.305C153.271 233.807 152.878 234.256 152.362 234.256H151.195C150.78 234.256 150.425 233.957 150.361 233.552L149.344 226.996" stroke="white" stroke-width="0.5" stroke-miterlimit="10"/>
<path d="M153.199 233.436L151.646 249.279C151.55 250.184 150.777 250.873 149.851 250.873H148.869L150.33 233.343" stroke="white" stroke-width="0.5" stroke-miterlimit="10"/>
<path d="M149.3 227.177L148.903 250.18" stroke="white" stroke-width="0.5" stroke-miterlimit="10"/>
<path d="M145.708 242.973V256.384C123.379 258.585 100.878 258.582 78.5459 256.38V244.816" stroke="white" stroke-width="0.5" stroke-miterlimit="10"/>
<path d="M146.199 237.961H148.992V265.528C148.723 265.559 148.453 265.587 148.184 265.612C124.216 268.079 100.051 268.076 76.083 265.612C75.8072 265.587 75.5346 265.559 75.2588 265.524V237.961H77.874" stroke="white" stroke-width="0.5" stroke-miterlimit="10"/>
<path d="M145.708 262.515V261.439C123.375 263.603 100.881 263.606 78.5459 261.439V262.518C100.875 264.682 123.372 264.679 145.708 262.518V262.515Z" stroke="white" stroke-width="0.5" stroke-miterlimit="10"/>
<path d="M213.872 209.207V209.223C213.853 209.591 213.751 209.94 213.587 210.255C213.149 211.094 212.252 211.683 211.19 211.683H71.5978C70.5358 211.683 69.6387 211.094 69.2013 210.255C69.0364 209.94 68.935 209.591 68.916 209.223V209.207C68.9065 209.014 68.916 208.817 68.9572 208.618L72.254 191.381C72.5139 190.018 73.747 189.026 75.183 189.026H207.605C209.041 189.026 210.271 190.018 210.534 191.381L213.831 208.618C213.869 208.817 213.881 209.014 213.872 209.207Z" stroke="white" stroke-width="0.5" stroke-miterlimit="10"/>
<path d="M69.2013 210.255L68.9572 211.537C68.935 211.655 68.9191 211.777 68.916 211.892C68.8462 213.342 70.0476 214.599 71.5978 214.599H211.19C212.74 214.599 213.942 213.342 213.872 211.892C213.869 211.777 213.853 211.655 213.831 211.537L213.587 210.255" stroke="white" stroke-width="0.5" stroke-miterlimit="10"/>
<path d="M68.9155 209.207V209.223V211.892V211.976" stroke="white" stroke-width="0.5" stroke-miterlimit="10"/>
<path d="M213.872 209.207V209.223V211.892V211.976" stroke="white" stroke-width="0.5" stroke-miterlimit="10"/>
<path d="M86.7625 190.426C87.1936 190.426 87.5264 190.545 87.5074 190.691L87.2221 192.781C87.2031 192.931 86.8322 193.052 86.3979 193.052H75.4204C74.9861 193.052 74.6532 192.931 74.6786 192.781L75.0305 190.691C75.0558 190.545 75.4267 190.426 75.8578 190.426H86.7625Z" stroke="white" stroke-width="0.5" stroke-miterlimit="10"/>
<path d="M95.9617 190.426C96.3865 190.426 96.7193 190.545 96.7035 190.688L96.4657 192.784C96.4499 192.931 96.0885 193.049 95.6605 193.049H89.2762C88.8483 193.049 88.5154 192.931 88.5345 192.784L88.8134 190.688C88.8324 190.542 89.1938 190.426 89.6186 190.426H95.9617Z" stroke="white" stroke-width="0.5" stroke-miterlimit="10"/>
<path d="M114.294 190.426C114.718 190.426 115.058 190.545 115.048 190.688L114.909 192.784C114.899 192.931 114.544 193.049 114.116 193.049H107.732C107.304 193.049 106.965 192.931 106.981 192.784L107.161 190.688C107.174 190.542 107.529 190.426 107.954 190.426H114.297H114.294Z" stroke="white" stroke-width="0.5" stroke-miterlimit="10"/>
<path d="M105.164 190.426C105.589 190.426 105.935 190.545 105.932 190.688L105.909 192.784C105.909 192.931 105.561 193.049 105.13 193.049H98.7452C98.3173 193.049 97.9718 192.931 97.9781 192.784L98.0415 190.688C98.0447 190.542 98.3934 190.426 98.8213 190.426H105.164Z" stroke="white" stroke-width="0.5" stroke-miterlimit="10"/>
<path d="M123.461 190.426C123.886 190.426 124.228 190.545 124.222 190.688L124.13 192.784C124.124 192.931 123.772 193.049 123.344 193.049H116.96C116.532 193.049 116.192 192.931 116.199 192.784L116.332 190.688C116.341 190.542 116.693 190.426 117.118 190.426H123.461Z" stroke="white" stroke-width="0.5" stroke-miterlimit="10"/>
<path d="M141.796 190.426C142.221 190.426 142.567 190.545 142.567 190.688L142.573 192.784C142.573 192.931 142.228 193.049 141.8 193.049H135.415C134.987 193.049 134.642 192.931 134.645 192.784L134.68 190.688C134.68 190.542 135.029 190.426 135.457 190.426H141.8H141.796Z" stroke="white" stroke-width="0.5" stroke-miterlimit="10"/>
<path d="M150.964 190.426C151.389 190.426 151.737 190.545 151.74 190.688L151.797 192.784C151.801 192.931 151.458 193.049 151.027 193.049H144.643C144.215 193.049 143.866 192.931 143.866 192.784L143.854 190.688C143.854 190.542 144.196 190.426 144.624 190.426H150.967H150.964Z" stroke="white" stroke-width="0.5" stroke-miterlimit="10"/>
<path d="M160.131 190.426C160.556 190.426 160.908 190.545 160.914 190.688L161.019 192.784C161.025 192.931 160.686 193.049 160.255 193.049H153.871C153.443 193.049 153.091 192.931 153.088 192.784L153.024 190.688C153.021 190.542 153.36 190.426 153.788 190.426H160.131Z" stroke="white" stroke-width="0.5" stroke-miterlimit="10"/>
<path d="M169.299 190.426C169.724 190.426 170.079 190.545 170.088 190.688L170.244 192.784C170.256 192.931 169.917 193.049 169.486 193.049H163.102C162.674 193.049 162.319 192.931 162.312 192.784L162.198 190.688C162.192 190.542 162.528 190.426 162.956 190.426H169.299Z" stroke="white" stroke-width="0.5" stroke-miterlimit="10"/>
<path d="M178.467 190.426C178.891 190.426 179.25 190.545 179.262 190.688L179.465 192.784C179.478 192.931 179.145 193.049 178.714 193.049H172.33C171.902 193.049 171.543 192.931 171.534 192.784L171.372 190.688C171.363 190.542 171.699 190.426 172.124 190.426H178.467Z" stroke="white" stroke-width="0.5" stroke-miterlimit="10"/>
<path d="M187.634 190.426C188.059 190.426 188.42 190.545 188.436 190.688L188.69 192.784C188.709 192.931 188.373 193.049 187.945 193.049H181.56C181.132 193.049 180.774 192.931 180.758 192.784L180.546 190.688C180.53 190.542 180.866 190.426 181.291 190.426H187.634Z" stroke="white" stroke-width="0.5" stroke-miterlimit="10"/>
<path d="M196.801 190.426C197.226 190.426 197.587 190.545 197.61 190.688L197.911 192.784C197.933 192.931 197.603 193.049 197.172 193.049H190.788C190.36 193.049 189.998 192.931 189.979 192.784L189.72 190.688C189.701 190.542 190.033 190.426 190.458 190.426H196.801Z" stroke="white" stroke-width="0.5" stroke-miterlimit="10"/>
<path d="M205.966 190.426C206.391 190.426 206.755 190.545 206.78 190.688L207.132 192.784C207.158 192.931 206.828 193.049 206.4 193.049H200.016C199.588 193.049 199.223 192.931 199.201 192.784L198.894 190.688C198.871 190.542 199.201 190.426 199.626 190.426H205.969H205.966Z" stroke="white" stroke-width="0.5" stroke-miterlimit="10"/>
<path d="M85.9448 196.692C86.376 196.692 86.7056 196.813 86.6866 196.96L86.3886 199.124C86.3665 199.274 86.0019 199.399 85.5676 199.399H74.3903C73.9592 199.399 73.6264 199.277 73.6517 199.124L74.0195 196.96C74.0448 196.81 74.4125 196.692 74.8437 196.692H85.9448Z" stroke="white" stroke-width="0.5" stroke-miterlimit="10"/>
<path d="M95.2709 196.692C95.702 196.692 96.038 196.813 96.0222 196.963L95.7781 199.124C95.7622 199.277 95.3945 199.399 94.9602 199.399H88.4776C88.0434 199.399 87.7073 199.274 87.7264 199.124L88.0148 196.963C88.0338 196.813 88.4016 196.692 88.8327 196.692H95.274H95.2709Z" stroke="white" stroke-width="0.5" stroke-miterlimit="10"/>
<path d="M104.578 196.692C105.009 196.692 105.348 196.813 105.335 196.963L105.139 199.124C105.126 199.277 104.761 199.399 104.327 199.399H97.8446C97.4103 199.399 97.0711 199.274 97.087 199.124L97.3247 196.963C97.3406 196.813 97.7051 196.692 98.1362 196.692H104.578Z" stroke="white" stroke-width="0.5" stroke-miterlimit="10"/>
<path d="M113.885 196.692C114.316 196.692 114.658 196.813 114.649 196.963L114.506 199.124C114.497 199.277 114.135 199.399 113.701 199.399H107.218C106.784 199.399 106.442 199.274 106.454 199.124L106.641 196.963C106.654 196.813 107.016 196.692 107.447 196.692H113.888H113.885Z" stroke="white" stroke-width="0.5" stroke-miterlimit="10"/>
<path d="M123.192 196.692C123.623 196.692 123.968 196.813 123.962 196.963L123.867 199.124C123.86 199.277 123.502 199.399 123.068 199.399H116.585C116.151 199.399 115.806 199.274 115.815 199.124L115.951 196.963C115.961 196.813 116.319 196.692 116.75 196.692H123.192Z" stroke="white" stroke-width="0.5" stroke-miterlimit="10"/>
<path d="M132.499 196.692C132.93 196.692 133.279 196.813 133.276 196.963L133.234 199.124C133.234 199.277 132.876 199.399 132.442 199.399H125.959C125.525 199.399 125.176 199.274 125.183 199.124L125.268 196.963C125.275 196.813 125.63 196.692 126.061 196.692H132.502H132.499Z" stroke="white" stroke-width="0.5" stroke-miterlimit="10"/>
<path d="M141.806 196.692C142.237 196.692 142.589 196.813 142.589 196.963L142.595 199.124C142.595 199.277 142.243 199.399 141.809 199.399H135.326C134.892 199.399 134.54 199.274 134.543 199.124L134.578 196.963C134.578 196.813 134.933 196.692 135.364 196.692H141.806Z" stroke="white" stroke-width="0.5" stroke-miterlimit="10"/>
<path d="M151.113 196.692C151.544 196.692 151.899 196.813 151.902 196.963L151.959 199.124C151.962 199.277 151.614 199.399 151.179 199.399H144.697C144.262 199.399 143.907 199.274 143.907 199.124L143.892 196.963C143.892 196.813 144.24 196.692 144.671 196.692H151.113Z" stroke="white" stroke-width="0.5" stroke-miterlimit="10"/>
<path d="M160.42 196.692C160.851 196.692 161.209 196.813 161.216 196.963L161.323 199.124C161.33 199.277 160.984 199.399 160.55 199.399H154.067C153.633 199.399 153.275 199.274 153.272 199.124L153.205 196.963C153.202 196.813 153.547 196.692 153.979 196.692H160.42Z" stroke="white" stroke-width="0.5" stroke-miterlimit="10"/>
<path d="M169.73 196.692C170.161 196.692 170.523 196.813 170.532 196.963L170.691 199.124C170.703 199.277 170.358 199.399 169.924 199.399H163.441C163.007 199.399 162.645 199.274 162.639 199.124L162.522 196.963C162.512 196.813 162.858 196.692 163.289 196.692H169.73Z" stroke="white" stroke-width="0.5" stroke-miterlimit="10"/>
<path d="M179.037 196.692C179.468 196.692 179.833 196.813 179.845 196.963L180.055 199.124C180.07 199.277 179.728 199.399 179.294 199.399H172.811C172.377 199.399 172.012 199.274 172.003 199.124L171.835 196.963C171.822 196.813 172.164 196.692 172.596 196.692H179.037Z" stroke="white" stroke-width="0.5" stroke-miterlimit="10"/>
<path d="M188.344 196.692C188.775 196.692 189.143 196.813 189.158 196.963L189.418 199.124C189.437 199.277 189.098 199.399 188.664 199.399H182.181C181.747 199.399 181.383 199.274 181.367 199.124L181.148 196.963C181.132 196.813 181.471 196.692 181.902 196.692H188.344Z" stroke="white" stroke-width="0.5" stroke-miterlimit="10"/>
<path d="M197.651 196.692C198.082 196.692 198.45 196.813 198.472 196.963L198.783 199.124C198.805 199.277 198.469 199.399 198.035 199.399H191.552C191.118 199.399 190.75 199.274 190.731 199.124L190.462 196.963C190.443 196.813 190.779 196.692 191.21 196.692H197.651Z" stroke="white" stroke-width="0.5" stroke-miterlimit="10"/>
<path d="M97.4043 199.879C97.8418 199.879 98.181 200.004 98.1651 200.153L97.9305 202.349C97.9147 202.502 97.5438 202.627 97.1064 202.627H90.5699C90.1324 202.627 89.7933 202.502 89.8123 202.349L90.0912 200.153C90.1103 200.001 90.4811 199.879 90.9154 199.879H97.4043Z" stroke="white" stroke-width="0.5" stroke-miterlimit="10"/>
<path d="M87.9292 199.879C88.4047 199.879 88.7693 200.013 88.7471 200.178L88.465 202.327C88.4428 202.496 88.037 202.63 87.5615 202.63H73.937C73.4584 202.63 73.097 202.492 73.1224 202.327L73.4837 200.178C73.5123 200.013 73.918 199.879 74.3935 199.879H87.9261H87.9292Z" stroke="white" stroke-width="0.5" stroke-miterlimit="10"/>
<path d="M106.784 199.879C107.218 199.879 107.564 200.004 107.551 200.153L107.367 202.349C107.355 202.502 106.987 202.627 106.549 202.627H100.013C99.5756 202.627 99.2332 202.502 99.2491 202.349L99.4773 200.153C99.4932 200.001 99.8577 199.879 100.295 199.879H106.787H106.784Z" stroke="white" stroke-width="0.5" stroke-miterlimit="10"/>
<path d="M116.164 199.879C116.598 199.879 116.944 200.004 116.937 200.153L116.804 202.349C116.795 202.502 116.433 202.627 115.993 202.627H109.456C109.019 202.627 108.673 202.502 108.686 202.349L108.863 200.153C108.876 200.001 109.237 199.879 109.675 199.879H116.167H116.164Z" stroke="white" stroke-width="0.5" stroke-miterlimit="10"/>
<path d="M125.544 199.879C125.978 199.879 126.327 200.004 126.324 200.153L126.241 202.349C126.235 202.502 125.877 202.627 125.436 202.627H118.9C118.462 202.627 118.113 202.502 118.12 202.349L118.247 200.153C118.256 200.001 118.614 199.879 119.052 199.879H125.544Z" stroke="white" stroke-width="0.5" stroke-miterlimit="10"/>
<path d="M134.924 199.879C135.358 199.879 135.71 200.004 135.71 200.153L135.682 202.349C135.682 202.502 135.323 202.627 134.883 202.627H128.346C127.909 202.627 127.557 202.502 127.56 202.349L127.633 200.153C127.639 200.001 127.994 199.879 128.432 199.879H134.924Z" stroke="white" stroke-width="0.5" stroke-miterlimit="10"/>
<path d="M144.304 199.879C144.741 199.879 145.093 200.004 145.096 200.153L145.119 202.349C145.119 202.502 144.767 202.627 144.326 202.627H137.79C137.352 202.627 136.997 202.502 136.997 202.349L137.019 200.153C137.019 200.001 137.374 199.879 137.812 199.879H144.301H144.304Z" stroke="white" stroke-width="0.5" stroke-miterlimit="10"/>
<path d="M153.687 199.879C154.121 199.879 154.479 200.004 154.486 200.153L154.559 202.349C154.565 202.502 154.213 202.627 153.773 202.627H147.236C146.799 202.627 146.44 202.502 146.437 202.349L146.409 200.153C146.409 200.001 146.757 199.879 147.195 199.879H153.687Z" stroke="white" stroke-width="0.5" stroke-miterlimit="10"/>
<path d="M163.067 199.879C163.501 199.879 163.862 200.004 163.872 200.153L163.995 202.349C164.005 202.502 163.656 202.627 163.219 202.627H156.682C156.245 202.627 155.884 202.502 155.877 202.349L155.798 200.153C155.792 200.001 156.14 199.879 156.578 199.879H163.07H163.067Z" stroke="white" stroke-width="0.5" stroke-miterlimit="10"/>
<path d="M172.447 199.879C172.881 199.879 173.245 200.004 173.258 200.153L173.436 202.349C173.448 202.502 173.103 202.627 172.665 202.627H166.129C165.691 202.627 165.327 202.502 165.317 202.349L165.184 200.153C165.175 200.001 165.52 199.879 165.958 199.879H172.45H172.447Z" stroke="white" stroke-width="0.5" stroke-miterlimit="10"/>
<path d="M181.827 199.879C182.261 199.879 182.629 200.004 182.645 200.153L182.873 202.349C182.889 202.502 182.546 202.627 182.109 202.627H175.572C175.135 202.627 174.767 202.502 174.755 202.349L174.571 200.153C174.558 200.001 174.9 199.879 175.338 199.879H181.83H181.827Z" stroke="white" stroke-width="0.5" stroke-miterlimit="10"/>
<path d="M191.206 199.879C191.644 199.879 192.011 200.004 192.03 200.153L192.309 202.349C192.328 202.502 191.989 202.627 191.552 202.627H185.015C184.578 202.627 184.207 202.502 184.191 202.349L183.957 200.153C183.941 200.001 184.28 199.879 184.717 199.879H191.206Z" stroke="white" stroke-width="0.5" stroke-miterlimit="10"/>
<path d="M206.945 196.717C207.38 196.717 207.751 196.838 207.776 196.988L208.068 198.719L208.14 199.149L208.679 202.352C208.705 202.505 208.369 202.633 207.931 202.633H203.978C203.538 202.633 203.164 202.508 203.138 202.352L202.729 199.698C202.707 199.545 202.333 199.424 201.896 199.424H200.919C200.482 199.424 200.111 199.299 200.089 199.149L199.769 196.988C199.746 196.838 200.079 196.717 200.514 196.717H206.949H206.945Z" stroke="white" stroke-width="0.5" stroke-miterlimit="10"/>
<path d="M200.586 199.879C201.021 199.879 201.395 200.004 201.417 200.153L201.747 202.349C201.769 202.502 201.433 202.627 200.995 202.627H194.459C194.021 202.627 193.647 202.502 193.628 202.349L193.343 200.153C193.324 200.001 193.66 199.879 194.094 199.879H200.586Z" stroke="white" stroke-width="0.5" stroke-miterlimit="10"/>
<path d="M206.448 193.536C206.882 193.536 207.256 193.657 207.278 193.807L207.633 195.931C207.659 196.084 207.326 196.205 206.888 196.205H195.828C195.391 196.205 195.02 196.084 194.998 195.931L194.709 193.807C194.69 193.657 195.026 193.536 195.461 193.536H206.448Z" stroke="white" stroke-width="0.5" stroke-miterlimit="10"/>
<path d="M192.582 193.536C193.01 193.536 193.375 193.654 193.394 193.804L193.676 195.934C193.695 196.084 193.362 196.205 192.931 196.205H186.496C186.065 196.205 185.7 196.084 185.685 195.934L185.447 193.804C185.431 193.657 185.764 193.536 186.192 193.536H192.582Z" stroke="white" stroke-width="0.5" stroke-miterlimit="10"/>
<path d="M183.348 193.536C183.776 193.536 184.137 193.654 184.153 193.804L184.385 195.934C184.4 196.084 184.064 196.205 183.633 196.205H177.198C176.767 196.205 176.406 196.084 176.393 195.934L176.203 193.804C176.19 193.657 176.526 193.536 176.954 193.536H183.345H183.348Z" stroke="white" stroke-width="0.5" stroke-miterlimit="10"/>
<path d="M174.111 193.536C174.539 193.536 174.897 193.654 174.91 193.804L175.094 195.934C175.106 196.084 174.767 196.205 174.336 196.205H167.901C167.47 196.205 167.112 196.084 167.102 195.934L166.963 193.804C166.953 193.657 167.292 193.536 167.723 193.536H174.114H174.111Z" stroke="white" stroke-width="0.5" stroke-miterlimit="10"/>
<path d="M164.873 193.536C165.301 193.536 165.656 193.654 165.666 193.804L165.799 195.934C165.809 196.084 165.466 196.205 165.035 196.205H158.6C158.169 196.205 157.814 196.084 157.808 195.934L157.719 193.804C157.712 193.657 158.055 193.536 158.483 193.536H164.873Z" stroke="white" stroke-width="0.5" stroke-miterlimit="10"/>
<path d="M155.636 193.536C156.064 193.536 156.416 193.654 156.422 193.804L156.505 195.934C156.511 196.084 156.166 196.205 155.735 196.205H149.3C148.868 196.205 148.517 196.084 148.513 195.934L148.472 193.804C148.472 193.657 148.815 193.536 149.242 193.536H155.633H155.636Z" stroke="white" stroke-width="0.5" stroke-miterlimit="10"/>
<path d="M146.399 193.536C146.827 193.536 147.179 193.654 147.179 193.804L147.211 195.934C147.211 196.084 146.865 196.205 146.434 196.205H139.999C139.568 196.205 139.216 196.084 139.219 195.934L139.229 193.804C139.229 193.657 139.577 193.536 140.005 193.536H146.396H146.399Z" stroke="white" stroke-width="0.5" stroke-miterlimit="10"/>
<path d="M137.162 193.536C137.59 193.536 137.938 193.654 137.935 193.804L137.919 195.934C137.919 196.084 137.567 196.205 137.136 196.205H130.701C130.27 196.205 129.925 196.084 129.928 195.934L129.988 193.804C129.991 193.657 130.343 193.536 130.771 193.536H137.162Z" stroke="white" stroke-width="0.5" stroke-miterlimit="10"/>
<path d="M127.928 193.536C128.356 193.536 128.701 193.654 128.695 193.804L128.628 195.934C128.622 196.084 128.27 196.205 127.839 196.205H121.404C120.973 196.205 120.627 196.084 120.637 195.934L120.748 193.804C120.754 193.657 121.109 193.536 121.537 193.536H127.928Z" stroke="white" stroke-width="0.5" stroke-miterlimit="10"/>
<path d="M118.691 193.536C119.119 193.536 119.461 193.654 119.451 193.804L119.334 195.934C119.325 196.084 118.97 196.205 118.538 196.205H112.103C111.672 196.205 111.33 196.084 111.343 195.934L111.504 193.804C111.517 193.657 111.872 193.536 112.3 193.536H118.691Z" stroke="white" stroke-width="0.5" stroke-miterlimit="10"/>
<path d="M109.453 193.536C109.881 193.536 110.221 193.654 110.208 193.804L110.04 195.934C110.027 196.084 109.669 196.205 109.238 196.205H102.803C102.372 196.205 102.033 196.084 102.048 195.934L102.258 193.804C102.27 193.657 102.632 193.536 103.06 193.536H109.45H109.453Z" stroke="white" stroke-width="0.5" stroke-miterlimit="10"/>
<path d="M100.216 193.536C100.644 193.536 100.98 193.654 100.964 193.804L100.749 195.934C100.733 196.084 100.371 196.205 99.9402 196.205H93.5052C93.0741 196.205 92.7381 196.084 92.7571 195.934L93.017 193.804C93.0361 193.657 93.3974 193.536 93.8254 193.536H100.216Z" stroke="white" stroke-width="0.5" stroke-miterlimit="10"/>
<path d="M90.9784 193.536C91.4064 193.536 91.7392 193.654 91.7202 193.804L91.4539 195.934C91.4349 196.084 91.0704 196.205 90.6393 196.205H84.2042C83.7731 196.205 83.4403 196.084 83.4625 195.934L83.7731 193.804C83.7953 193.657 84.1599 193.536 84.5878 193.536H90.9784Z" stroke="white" stroke-width="0.5" stroke-miterlimit="10"/>
<path d="M81.7443 193.536C82.1723 193.536 82.502 193.654 82.4798 193.804L82.1628 195.934C82.1406 196.084 81.7729 196.205 81.3417 196.205H74.9067C74.4756 196.205 74.1459 196.084 74.1713 195.934L74.5295 193.804C74.5549 193.657 74.9226 193.536 75.3505 193.536H81.7412H81.7443Z" stroke="white" stroke-width="0.5" stroke-miterlimit="10"/>
<path d="M208.498 206.463C208.942 206.463 209.323 206.59 209.351 206.746L209.732 209.011C209.757 209.17 209.418 209.301 208.971 209.301H202.339C201.892 209.301 201.512 209.173 201.486 209.011L201.15 206.746C201.128 206.587 201.467 206.463 201.911 206.463H208.498Z" stroke="white" stroke-width="0.5" stroke-miterlimit="10"/>
<path d="M199.151 206.463C199.594 206.463 199.972 206.59 199.997 206.746L200.327 209.011C200.349 209.17 200.006 209.301 199.56 209.301H192.811C192.364 209.301 191.986 209.173 191.967 209.011L191.685 206.746C191.666 206.587 192.009 206.463 192.452 206.463H199.154H199.151Z" stroke="white" stroke-width="0.5" stroke-miterlimit="10"/>
<path d="M189.501 206.463C189.945 206.463 190.319 206.59 190.338 206.746L190.614 209.011C190.633 209.17 190.287 209.301 189.84 209.301H183.209C182.762 209.301 182.388 209.173 182.372 209.011L182.144 206.746C182.128 206.587 182.473 206.463 182.917 206.463H189.504H189.501Z" stroke="white" stroke-width="0.5" stroke-miterlimit="10"/>
<path d="M179.921 206.463C180.365 206.463 180.736 206.59 180.752 206.746L180.974 209.011C180.99 209.17 180.641 209.301 180.194 209.301H173.562C173.115 209.301 172.745 209.173 172.732 209.011L172.557 206.746C172.545 206.587 172.893 206.463 173.337 206.463H179.924H179.921Z" stroke="white" stroke-width="0.5" stroke-miterlimit="10"/>
<path d="M170.37 206.463C170.814 206.463 171.182 206.59 171.195 206.746L171.363 209.011C171.375 209.17 171.02 209.301 170.577 209.301H162.129C161.682 209.301 161.314 209.173 161.304 209.011L161.193 206.746C161.187 206.587 161.539 206.463 161.983 206.463H170.374H170.37Z" stroke="white" stroke-width="0.5" stroke-miterlimit="10"/>
<path d="M158.445 206.463C158.889 206.463 159.253 206.59 159.26 206.746L159.361 209.011C159.367 209.17 159.012 209.301 158.565 209.301H113.561C113.115 209.301 112.763 209.173 112.772 209.011L112.931 206.746C112.94 206.587 113.311 206.463 113.755 206.463H158.445Z" stroke="white" stroke-width="0.5" stroke-miterlimit="10"/>
<path d="M110.823 206.463C111.263 206.463 111.609 206.59 111.599 206.743L111.434 209.011C111.422 209.17 111.054 209.297 110.61 209.297H101.588C101.145 209.297 100.799 209.17 100.815 209.011L101.04 206.743C101.056 206.587 101.424 206.463 101.864 206.463H110.823Z" stroke="white" stroke-width="0.5" stroke-miterlimit="10"/>
<path d="M98.9354 206.463C99.3761 206.463 99.7216 206.59 99.7057 206.746L99.4743 209.011C99.4585 209.17 99.0844 209.297 98.6375 209.297H91.9996C91.5526 209.297 91.2103 209.17 91.2293 209.011L91.5051 206.746C91.5241 206.59 91.8981 206.463 92.3419 206.463H98.9323H98.9354Z" stroke="white" stroke-width="0.5" stroke-miterlimit="10"/>
<path d="M89.4093 206.463C89.8531 206.463 90.1955 206.59 90.1733 206.746L89.888 209.011C89.869 209.17 89.4917 209.297 89.0448 209.297H82.4069C81.9599 209.297 81.6176 209.17 81.6429 209.011L81.9726 206.746C81.9948 206.59 82.372 206.463 82.8158 206.463H89.4062H89.4093Z" stroke="white" stroke-width="0.5" stroke-miterlimit="10"/>
<path d="M79.884 206.463C80.3246 206.463 80.667 206.59 80.6416 206.746L80.3024 209.011C80.2802 209.17 79.8998 209.297 79.4529 209.297H72.815C72.368 209.297 72.0288 209.17 72.0573 209.011L72.4409 206.746C72.4663 206.59 72.8467 206.463 73.2905 206.463H79.8808H79.884Z" stroke="white" stroke-width="0.5" stroke-miterlimit="10"/>
<path d="M207.982 203.157C208.42 203.157 208.797 203.281 208.822 203.434L209.196 205.667C209.222 205.823 208.886 205.951 208.445 205.951H189.958C189.517 205.951 189.146 205.823 189.127 205.667L188.864 203.434C188.845 203.281 189.184 203.157 189.625 203.157H207.982Z" stroke="white" stroke-width="0.5" stroke-miterlimit="10"/>
<path d="M186.67 203.157C187.108 203.157 187.478 203.281 187.497 203.437L187.754 205.667C187.773 205.823 187.428 205.951 186.987 205.951H180.403C179.962 205.951 179.592 205.823 179.576 205.667L179.363 203.437C179.347 203.281 179.693 203.157 180.13 203.157H186.67Z" stroke="white" stroke-width="0.5" stroke-miterlimit="10"/>
<path d="M177.217 203.157C177.658 203.157 178.022 203.281 178.038 203.437L178.241 205.667C178.257 205.823 177.908 205.951 177.468 205.951H170.884C170.443 205.951 170.075 205.823 170.063 205.667L169.904 203.437C169.891 203.281 170.24 203.157 170.678 203.157H177.217Z" stroke="white" stroke-width="0.5" stroke-miterlimit="10"/>
<path d="M167.765 203.157C168.205 203.157 168.567 203.281 168.58 203.437L168.732 205.667C168.741 205.823 168.392 205.951 167.952 205.951H161.368C160.927 205.951 160.563 205.823 160.553 205.667L160.445 203.437C160.439 203.281 160.788 203.157 161.228 203.157H167.768H167.765Z" stroke="white" stroke-width="0.5" stroke-miterlimit="10"/>
<path d="M158.315 203.157C158.753 203.157 159.114 203.281 159.123 203.437L159.222 205.667C159.228 205.823 158.876 205.951 158.436 205.951H151.852C151.411 205.951 151.05 205.823 151.043 205.667L150.989 203.437C150.986 203.281 151.338 203.157 151.779 203.157H158.318H158.315Z" stroke="white" stroke-width="0.5" stroke-miterlimit="10"/>
<path d="M148.862 203.157C149.3 203.157 149.658 203.281 149.661 203.437L149.709 205.667C149.712 205.823 149.357 205.951 148.913 205.951H142.329C141.888 205.951 141.527 205.823 141.527 205.667V203.437C141.527 203.281 141.882 203.157 142.319 203.157H148.859H148.862Z" stroke="white" stroke-width="0.5" stroke-miterlimit="10"/>
<path d="M139.409 203.157C139.85 203.157 140.205 203.281 140.205 203.437L140.199 205.667C140.199 205.823 139.84 205.951 139.397 205.951H132.813C132.372 205.951 132.014 205.823 132.02 205.667L132.071 203.437C132.074 203.281 132.432 203.157 132.873 203.157H139.412H139.409Z" stroke="white" stroke-width="0.5" stroke-miterlimit="10"/>
<path d="M129.96 203.157C130.397 203.157 130.752 203.281 130.746 203.437L130.689 205.667C130.686 205.823 130.324 205.951 129.881 205.951H123.297C122.856 205.951 122.501 205.823 122.51 205.667L122.612 203.437C122.618 203.281 122.98 203.157 123.42 203.157H129.96Z" stroke="white" stroke-width="0.5" stroke-miterlimit="10"/>
<path d="M120.507 203.157C120.944 203.157 121.296 203.281 121.287 203.437L121.176 205.667C121.17 205.823 120.805 205.951 120.361 205.951H113.777C113.337 205.951 112.985 205.823 112.997 205.667L113.153 203.437C113.162 203.281 113.527 203.157 113.967 203.157H120.507Z" stroke="white" stroke-width="0.5" stroke-miterlimit="10"/>
<path d="M111.054 203.157C111.495 203.157 111.84 203.281 111.828 203.437L111.666 205.667C111.653 205.823 111.285 205.951 110.845 205.951H104.261C103.82 205.951 103.471 205.823 103.487 205.667L103.693 203.437C103.709 203.281 104.074 203.157 104.514 203.157H111.054Z" stroke="white" stroke-width="0.5" stroke-miterlimit="10"/>
<path d="M101.779 203.157C102.219 203.157 102.562 203.281 102.546 203.437L102.33 205.667C102.314 205.823 101.943 205.951 101.503 205.951H94.9188C94.4781 205.951 94.1326 205.823 94.1516 205.667L94.4116 203.437C94.4306 203.281 94.7983 203.157 95.2389 203.157H101.779Z" stroke="white" stroke-width="0.5" stroke-miterlimit="10"/>
<path d="M92.5036 203.157C92.9411 203.157 93.2834 203.281 93.2644 203.437L92.9981 205.667C92.9791 205.823 92.605 205.951 92.1644 205.951H85.5772C85.1366 205.951 84.7943 205.823 84.8165 205.667L85.1271 203.437C85.1493 203.281 85.5234 203.157 85.9608 203.157H92.5004H92.5036Z" stroke="white" stroke-width="0.5" stroke-miterlimit="10"/>
<path d="M82.5972 203.157C83.0917 203.157 83.4721 203.297 83.4467 203.472L83.1361 205.63C83.1107 205.805 82.6859 205.948 82.1882 205.948H73.5976C73.1 205.948 72.7196 205.805 72.7481 205.63L73.1126 203.472C73.1412 203.297 73.5659 203.157 74.0605 203.157H82.5908H82.5972Z" stroke="white" stroke-width="0.5" stroke-miterlimit="10"/>
<path d="M132.759 190.429C133.184 190.429 133.526 190.548 133.526 190.691L133.482 192.787C133.478 192.934 133.13 193.052 132.699 193.052H126.314C125.886 193.052 125.544 192.934 125.55 192.787L125.636 190.691C125.642 190.545 125.991 190.429 126.416 190.429H132.759Z" stroke="white" stroke-width="0.5" stroke-miterlimit="10"/>
<path d="M55.6271 174.078V174.178C55.6271 174.203 55.624 174.228 55.6208 174.253L55.513 174.845L54.0104 183.163C53.9566 183.459 53.6966 183.671 53.3955 183.671H25.9785C25.6203 183.671 25.354 183.381 25.354 183.057V183.029C25.3572 182.96 25.3699 182.891 25.3984 182.826L28.6381 174.845L29.0153 173.916C29.1104 173.682 29.3418 173.529 29.5986 173.529H55.0058C55.3355 173.529 55.5954 173.775 55.6271 174.078Z" stroke="white" stroke-width="0.5" stroke-miterlimit="10"/>
<path d="M55.6271 176.383C55.6303 176.417 55.6335 176.448 55.6271 176.479C55.6271 176.504 55.624 176.532 55.6208 176.557L54.0104 185.471C53.9566 185.764 53.6966 185.979 53.3955 185.979H25.9785C25.6203 185.979 25.354 185.686 25.354 185.361" stroke="white" stroke-width="0.5" stroke-miterlimit="10"/>
<path d="M25.354 183.029V183.057V185.361" stroke="white" stroke-width="0.5" stroke-miterlimit="10"/>
<path d="M55.6274 176.479V176.383V174.845V174.178V174.078V174.059" stroke="white" stroke-width="0.5" stroke-miterlimit="10"/>
<path d="M41.2988 182.773C47.3756 182.773 52.3018 180.828 52.3018 178.429C52.3018 176.029 47.3756 174.084 41.2988 174.084C35.2221 174.084 30.2959 176.029 30.2959 178.429C30.2959 180.828 35.2221 182.773 41.2988 182.773Z" stroke="white" stroke-width="0.5" stroke-miterlimit="10"/>
<path d="M41.2989 181.494C46.2167 181.494 50.2034 180.122 50.2034 178.429C50.2034 176.735 46.2167 175.363 41.2989 175.363C36.3812 175.363 32.3945 176.735 32.3945 178.429C32.3945 180.122 36.3812 181.494 41.2989 181.494Z" stroke="white" stroke-width="0.5" stroke-miterlimit="10"/>
<path d="M41.2992 180.216C44.468 180.216 47.0368 179.416 47.0368 178.429C47.0368 177.442 44.468 176.642 41.2992 176.642C38.1303 176.642 35.5615 177.442 35.5615 178.429C35.5615 179.416 38.1303 180.216 41.2992 180.216Z" stroke="white" stroke-width="0.5" stroke-miterlimit="10"/>
<path d="M34.6646 174.964L36.408 175.868L38.3797 176.891L41.1947 178.351L44.2917 179.957L46.2603 180.977L47.9942 181.878" stroke="white" stroke-width="0.5" stroke-miterlimit="10"/>
<path d="M47.8009 174.926L46.0479 175.834L44.0635 176.863L41.1947 178.351L38.1579 179.926L36.1956 180.942L34.4712 181.837" stroke="white" stroke-width="0.5" stroke-miterlimit="10"/>
<path d="M207.785 183.029V183.057C207.785 183.381 207.519 183.671 207.161 183.671H179.744C179.443 183.671 179.183 183.459 179.129 183.163L177.626 174.845L177.519 174.253C177.515 174.228 177.512 174.203 177.512 174.178V174.078C177.544 173.775 177.804 173.529 178.134 173.529H203.541C203.798 173.529 204.029 173.682 204.124 173.916L204.533 174.926L207.741 182.826C207.769 182.895 207.782 182.963 207.785 183.029Z" stroke="white" stroke-width="0.5" stroke-miterlimit="10"/>
<path d="M207.786 185.361C207.786 185.686 207.519 185.979 207.161 185.979H179.744C179.443 185.979 179.183 185.764 179.129 185.471L177.519 176.557C177.519 176.532 177.512 176.504 177.512 176.479C177.506 176.448 177.509 176.417 177.512 176.383" stroke="white" stroke-width="0.5" stroke-miterlimit="10"/>
<path d="M207.785 185.361V183.057V183.029" stroke="white" stroke-width="0.5" stroke-miterlimit="10"/>
<path d="M177.512 176.479V176.383V174.845V174.178V174.078V174.059" stroke="white" stroke-width="0.5" stroke-miterlimit="10"/>
<path d="M191.84 182.773C197.917 182.773 202.843 180.828 202.843 178.429C202.843 176.029 197.917 174.084 191.84 174.084C185.764 174.084 180.837 176.029 180.837 178.429C180.837 180.828 185.764 182.773 191.84 182.773Z" stroke="white" stroke-width="0.5" stroke-miterlimit="10"/>
<path d="M191.84 181.494C196.758 181.494 200.745 180.122 200.745 178.429C200.745 176.735 196.758 175.363 191.84 175.363C186.923 175.363 182.936 176.735 182.936 178.429C182.936 180.122 186.923 181.494 191.84 181.494Z" stroke="white" stroke-width="0.5" stroke-miterlimit="10"/>
<path d="M191.841 180.216C195.009 180.216 197.578 179.416 197.578 178.429C197.578 177.442 195.009 176.642 191.841 176.642C188.672 176.642 186.103 177.442 186.103 178.429C186.103 179.416 188.672 180.216 191.841 180.216Z" stroke="white" stroke-width="0.5" stroke-miterlimit="10"/>
<path d="M185.146 181.878L186.879 180.977L188.848 179.957L191.945 178.351L194.76 176.891L196.732 175.868L198.475 174.964" stroke="white" stroke-width="0.5" stroke-miterlimit="10"/>
<path d="M198.669 181.837L196.944 180.942L194.982 179.926L191.945 178.351L189.076 176.863L187.092 175.834L185.339 174.926" stroke="white" stroke-width="0.5" stroke-miterlimit="10"/>
<path d="M164.858 177.621C164.858 177.777 164.794 177.927 164.674 178.067C164.531 178.235 164.309 178.394 164.021 178.541H164.018C163.13 178.978 161.624 179.268 159.916 179.268C158.004 179.268 156.343 178.903 155.525 178.369H155.519C155.332 178.36 154.226 178.301 153.367 178.251C153.316 178.179 153.218 178.02 153.167 177.792C153.141 177.696 153.126 177.587 153.129 177.465C153.138 177.016 153.373 176.71 153.449 176.623L155.903 176.66C156.796 176.242 158.261 175.971 159.916 175.971C162.645 175.971 164.858 176.71 164.858 177.621Z" stroke="white" stroke-width="0.5" stroke-miterlimit="10"/>
<path d="M164.858 178.513C164.858 178.619 164.826 178.725 164.766 178.828C164.329 179.589 162.325 180.163 159.916 180.163C157.643 180.163 155.728 179.648 155.155 178.949C154.866 178.934 154.581 178.918 154.296 178.903C153.985 178.884 153.677 178.868 153.367 178.85C153.297 178.75 153.123 178.463 153.129 178.067C153.132 177.967 153.145 177.877 153.167 177.792" stroke="white" stroke-width="0.5" stroke-miterlimit="10"/>
<path d="M164.858 178.513V177.621" stroke="white" stroke-width="0.5" stroke-miterlimit="10"/>
<path d="M154.295 178.903C153.804 179.161 153.522 179.464 153.522 179.785C153.522 179.851 153.535 179.919 153.56 179.982C153.89 180.892 156.47 181.597 159.602 181.597C162.734 181.597 165.317 180.892 165.647 179.982C165.672 179.919 165.685 179.851 165.685 179.785C165.685 179.436 165.349 179.105 164.766 178.828" stroke="white" stroke-width="0.5" stroke-miterlimit="10"/>
<path d="M164.022 178.541H164.018" stroke="white" stroke-width="0.5" stroke-miterlimit="10"/>
<path d="M153.56 179.982C153.535 180.044 153.522 180.113 153.522 180.178C153.522 181.182 156.245 181.993 159.602 181.993C162.959 181.993 165.685 181.182 165.685 180.178C165.685 180.113 165.672 180.044 165.647 179.982" stroke="white" stroke-width="0.5" stroke-miterlimit="10"/>
<path d="M46.2948 170.881C46.2503 170.423 46.2281 169.918 46.2345 169.381C46.2408 168.963 46.263 168.567 46.2979 168.199" stroke="white" stroke-width="0.5" stroke-miterlimit="10"/>
<path d="M52.0482 170.881C52.026 170.401 52.0165 169.899 52.0196 169.381C52.0228 168.976 52.0323 168.58 52.0482 168.199" stroke="white" stroke-width="0.5" stroke-miterlimit="10"/>
<path d="M61.5709 170.881C61.5296 170.451 61.5074 169.986 61.5106 169.487C61.5137 169.029 61.5359 168.598 61.574 168.199" stroke="white" stroke-width="0.5" stroke-miterlimit="10"/>
<path d="M71.3343 170.881C71.2962 170.451 71.274 169.986 71.2772 169.487C71.2803 169.029 71.3025 168.598 71.3406 168.199" stroke="white" stroke-width="0.5" stroke-miterlimit="10"/>
<path d="M80.8538 170.881C80.8347 170.467 80.8252 170.039 80.8252 169.593C80.8252 169.11 80.8347 168.645 80.8569 168.199" stroke="white" stroke-width="0.5" stroke-miterlimit="10"/>
<path d="M80.1408 168.199V167.251H75.9437V168.199H70.5643V167.251H66.3673V168.199H60.9181V167.251H56.7211V168.199H51.2054V167.251H47.0083V168.199H40.6399C40.5543 168.486 40.4751 168.848 40.4497 169.272C40.4117 169.949 40.5289 170.507 40.6399 170.881H86.0052V168.196H80.1376L80.1408 168.199Z" stroke="white" stroke-width="0.5" stroke-miterlimit="10"/>
<path d="M188.249 168.199C188.284 168.567 188.306 168.963 188.313 169.381C188.319 169.918 188.297 170.423 188.252 170.881" stroke="white" stroke-width="0.5" stroke-miterlimit="10"/>
<path d="M182.499 168.199C182.514 168.58 182.524 168.976 182.527 169.381C182.527 169.899 182.521 170.401 182.499 170.881" stroke="white" stroke-width="0.5" stroke-miterlimit="10"/>
<path d="M172.973 168.199C173.011 168.598 173.033 169.029 173.036 169.487C173.036 169.986 173.017 170.451 172.976 170.881" stroke="white" stroke-width="0.5" stroke-miterlimit="10"/>
<path d="M163.206 168.199C163.244 168.598 163.266 169.029 163.27 169.487C163.27 169.986 163.251 170.451 163.212 170.881" stroke="white" stroke-width="0.5" stroke-miterlimit="10"/>
<path d="M153.69 168.199C153.712 168.645 153.722 169.11 153.722 169.593C153.722 170.039 153.712 170.467 153.693 170.881" stroke="white" stroke-width="0.5" stroke-miterlimit="10"/>
<path d="M154.406 168.199V167.251H158.603V168.199C160.398 168.199 162.189 168.199 163.983 168.199V167.251H168.18V168.199C169.996 168.199 171.813 168.199 173.629 168.199V167.251H177.826V168.199H183.342V167.251H187.539V168.199C189.663 168.199 191.783 168.199 193.907 168.199C193.993 168.486 194.072 168.848 194.097 169.272C194.136 169.949 194.018 170.507 193.907 170.881H148.542V169.54C148.542 169.094 148.542 168.645 148.542 168.199C150.498 168.199 152.454 168.199 154.41 168.199H154.406Z" stroke="white" stroke-width="0.5" stroke-miterlimit="10"/>
<path d="M200.33 28.8279H23.7469C17.362 28.8279 12.186 33.9201 12.186 40.2017V155.874C12.186 162.156 17.362 167.248 23.7469 167.248H200.33C206.714 167.248 211.89 162.156 211.89 155.874V40.2017C211.89 33.9201 206.714 28.8279 200.33 28.8279Z" stroke="white" stroke-width="0.5" stroke-miterlimit="10"/>
<path d="M200.247 33.1847H23.8263C19.8014 33.1847 16.5386 36.3947 16.5386 40.3546V155.721C16.5386 159.681 19.8014 162.891 23.8263 162.891H200.247C204.272 162.891 207.535 159.681 207.535 155.721V40.3546C207.535 36.3947 204.272 33.1847 200.247 33.1847Z" stroke="white" stroke-width="0.5" stroke-miterlimit="10"/>
<path d="M191.032 48.5973H33.0445C30.6285 48.5973 28.6699 50.5242 28.6699 52.9011V143.658C28.6699 146.035 30.6285 147.962 33.0445 147.962H191.032C193.448 147.962 195.407 146.035 195.407 143.658V52.9011C195.407 50.5242 193.448 48.5973 191.032 48.5973Z" stroke="white" stroke-width="0.5" stroke-miterlimit="10"/>
<path d="M44.0493 7.44923V16.35H60.0449V0.34172H44.0493V4.56755" stroke="white" stroke-width="0.5" stroke-miterlimit="10"/>
<path d="M59.9622 4.56751H43.9698L43.4721 5.59668C43.3485 5.85553 43.3485 6.15805 43.4721 6.4169L43.9698 7.44607H59.9622L59.4646 6.4169C59.3409 6.15805 59.3409 5.85553 59.4646 5.59668L59.9622 4.56751Z" stroke="white" stroke-width="0.5" stroke-miterlimit="10"/>
<path d="M60.0445 19.7555H44.0457C43.8904 19.4686 43.5988 18.8324 43.6241 17.9841C43.6463 17.2606 43.8936 16.7179 44.0457 16.4372H60.0445C59.9367 16.852 59.8385 17.4072 59.8353 18.059C59.8321 18.7451 59.9336 19.322 60.0445 19.7524V19.7555Z" stroke="white" stroke-width="0.5" stroke-miterlimit="10"/>
<path d="M61.6079 19.7494H44.1636V28.7468H61.6079V19.7494Z" stroke="white" stroke-width="0.5" stroke-miterlimit="10"/>
<path d="M179.463 4.56755V0.34172H163.468V16.35H179.463V7.44923" stroke="white" stroke-width="0.5" stroke-miterlimit="10"/>
<path d="M163.55 4.56751H179.543L180.04 5.59668C180.164 5.85553 180.164 6.15805 180.04 6.4169L179.543 7.44607H163.55L164.048 6.4169C164.172 6.15805 164.172 5.85553 164.048 5.59668L163.55 4.56751Z" stroke="white" stroke-width="0.5" stroke-miterlimit="10"/>
<path d="M163.468 19.7555H179.467C179.622 19.4686 179.914 18.8324 179.888 17.9841C179.866 17.2606 179.619 16.7179 179.467 16.4372C174.135 16.4372 168.8 16.4372 163.468 16.4372C163.576 16.852 163.674 17.4072 163.677 18.059C163.68 18.7451 163.579 19.322 163.468 19.7524V19.7555Z" stroke="white" stroke-width="0.5" stroke-miterlimit="10"/>
<path d="M161.905 28.7499L179.35 28.7499V19.7525H161.905V28.7499Z" stroke="white" stroke-width="0.5" stroke-miterlimit="10"/>
</g>
<defs>
<clipPath id="clip0_3470_317">
<rect width="223.958" height="270.466" fill="white" transform="translate(0.0610352 0.185753)"/>
</clipPath>
</defs>
</svg>
