<svg width="312" height="299" viewBox="0 0 312 299" fill="none" xmlns="http://www.w3.org/2000/svg">
<path d="M37.1616 229.477V206.076" stroke="white" stroke-width="0.5" stroke-miterlimit="10"/>
<path d="M135.545 294.806H96.5815" stroke="white" stroke-width="0.5" stroke-miterlimit="10"/>
<path d="M213.473 294.806H174.509" stroke="white" stroke-width="0.5" stroke-miterlimit="10"/>
<path d="M274.841 268.48V279.617C274.841 288.006 267.966 294.806 259.486 294.806H252.437" stroke="white" stroke-width="0.5" stroke-miterlimit="10"/>
<path d="M274.841 167.073V143.672" stroke="white" stroke-width="0.5" stroke-miterlimit="10"/>
<path d="M239.773 75.4172H259.53C267.986 75.4172 274.841 82.5255 274.841 91.2897V104.669" stroke="white" stroke-width="0.5" stroke-miterlimit="10"/>
<path d="M37.1616 104.669V91.2897C37.1616 82.5255 44.0584 75.4172 52.5664 75.4172H71.2549" stroke="white" stroke-width="0.5" stroke-miterlimit="10"/>
<path d="M274.841 229.477V206.076" stroke="white" stroke-width="0.5" stroke-miterlimit="10"/>
<path d="M244.644 294.806H222.24" stroke="white" stroke-width="0.5" stroke-miterlimit="10"/>
<path d="M166.716 294.806H144.312" stroke="white" stroke-width="0.5" stroke-miterlimit="10"/>
<path d="M37.1616 268.48V279.617C37.1616 288.006 43.9962 294.806 52.4275 294.806H57.6176" stroke="white" stroke-width="0.5" stroke-miterlimit="10"/>
<path d="M88.7887 294.806H66.3845" stroke="white" stroke-width="0.5" stroke-miterlimit="10"/>
<path d="M37.1616 167.073V143.672" stroke="white" stroke-width="0.5" stroke-miterlimit="10"/>
<path d="M234.903 86.1428V124.17H76.1255V86.1428" stroke="white" stroke-width="0.5" stroke-miterlimit="10"/>
<path d="M240.087 86.1428H257.649C261.228 86.1428 264.126 89.0413 264.126 92.6215V271.752C264.126 275.332 261.228 278.23 257.649 278.23H55.3275C51.7484 278.23 48.8508 275.332 48.8508 271.752V92.6215C48.8508 89.0413 51.7484 86.1428 55.3275 86.1428H71.6974" stroke="white" stroke-width="0.5" stroke-miterlimit="10"/>
<path d="M33.2338 104.669H41.0581V143.672H33.2338C32.7152 143.672 31.1278 138.469 36.0929 134.853V113.823C36.0929 113.823 32.2913 112.106 32.2913 105.557C32.2913 105.058 32.7242 104.669 33.2338 104.669Z" stroke="white" stroke-width="0.5" stroke-miterlimit="10"/>
<path d="M33.2338 167.073H41.0581V206.076H33.2338C32.7152 206.076 31.1278 200.874 36.0929 197.257V176.228C36.0929 176.228 32.2913 174.51 32.2913 167.961C32.2913 167.462 32.7242 167.073 33.2338 167.073Z" stroke="white" stroke-width="0.5" stroke-miterlimit="10"/>
<path d="M33.2338 229.477H41.0581V268.48H33.2338C32.7152 268.48 31.1278 263.278 36.0929 259.661V238.632C36.0929 238.632 32.2913 236.914 32.2913 230.365C32.2913 229.866 32.7242 229.477 33.2338 229.477Z" stroke="white" stroke-width="0.5" stroke-miterlimit="10"/>
<path d="M278.769 268.48H270.944V229.477H278.769C279.287 229.477 280.875 234.679 275.91 238.296V259.325C275.91 259.325 279.711 261.043 279.711 267.592C279.711 268.091 279.278 268.48 278.769 268.48Z" stroke="white" stroke-width="0.5" stroke-miterlimit="10"/>
<path d="M278.769 206.076H270.944V167.073H278.769C279.287 167.073 280.875 172.275 275.91 175.892V196.921C275.91 196.921 279.711 198.639 279.711 205.188C279.711 205.687 279.278 206.076 278.769 206.076Z" stroke="white" stroke-width="0.5" stroke-miterlimit="10"/>
<path d="M278.769 143.672H270.944V104.669H278.769C279.287 104.669 280.875 109.871 275.91 113.488V134.517C275.91 134.517 279.711 136.235 279.711 142.784C279.711 143.283 279.278 143.672 278.769 143.672Z" stroke="white" stroke-width="0.5" stroke-miterlimit="10"/>
<path d="M88.1826 295.432C91.7645 299.759 96.5815 298.269 96.5815 297.763V289.931H57.6177V297.763C57.6177 298.273 58.0103 298.707 58.5043 298.707C63.5198 298.707 65.6989 296.476 66.4444 295.432" stroke="white" stroke-width="0.5" stroke-miterlimit="10"/>
<path d="M166.109 295.432C169.696 299.759 174.509 298.269 174.509 297.763V289.931H135.545V297.763C135.545 298.273 135.938 298.707 136.432 298.707C141.448 298.707 143.627 296.476 144.373 295.432" stroke="white" stroke-width="0.5" stroke-miterlimit="10"/>
<path d="M244.038 295.432C247.619 299.759 252.436 298.269 252.436 297.763V289.931H213.473V297.763C213.473 298.273 213.865 298.707 214.364 298.707C219.375 298.707 221.554 296.476 222.299 295.432" stroke="white" stroke-width="0.5" stroke-miterlimit="10"/>
<path d="M239.53 96.8687H245.777L255.359 106.487V257.164L244.209 269.455H65.9878L56.6436 258.619V104.476L64.8543 96.8687H71.2859" stroke="white" stroke-width="0.5" stroke-miterlimit="10"/>
<path d="M236.138 228.502H72.9419C72.0102 228.502 71.2549 229.259 71.2549 230.192V259.965C71.2549 260.898 72.0102 261.654 72.9419 261.654H236.138C237.07 261.654 237.825 260.898 237.825 259.965V230.192C237.825 229.259 237.07 228.502 236.138 228.502Z" stroke="white" stroke-width="0.5" stroke-miterlimit="10"/>
<path d="M226.78 238.039H188.218L183.2 233.377H126.065L121.047 238.039H82.2999C81.0421 238.039 80.0217 239.048 80.0217 240.288V249.864C80.0217 251.108 81.0421 252.117 82.2999 252.117H121.047L126.065 256.779H183.2L188.218 252.117H226.78C228.038 252.117 229.058 251.108 229.058 249.864V240.288C229.058 239.044 228.038 238.039 226.78 238.039Z" stroke="white" stroke-width="0.5" stroke-miterlimit="10"/>
<path d="M111.193 254.829H105.348V256.779H111.193V254.829Z" stroke="white" stroke-width="0.5" stroke-miterlimit="10"/>
<path d="M106.322 255.804H110.219" stroke="white" stroke-width="0.5" stroke-miterlimit="10"/>
<path d="M118.986 254.829H114.115V256.779H118.986V254.829Z" stroke="white" stroke-width="0.5" stroke-miterlimit="10"/>
<path d="M114.115 255.804H118.012" stroke="white" stroke-width="0.5" stroke-miterlimit="10"/>
<path d="M88.7885 256.779C89.3265 256.779 89.7626 256.561 89.7626 256.291C89.7626 256.022 89.3265 255.804 88.7885 255.804C88.2506 255.804 87.8145 256.022 87.8145 256.291C87.8145 256.561 88.2506 256.779 88.7885 256.779Z" stroke="white" stroke-width="0.5" stroke-miterlimit="10"/>
<path d="M91.7109 256.779C92.2489 256.779 92.685 256.561 92.685 256.291C92.685 256.022 92.2489 255.804 91.7109 255.804C91.1729 255.804 90.7368 256.022 90.7368 256.291C90.7368 256.561 91.1729 256.779 91.7109 256.779Z" stroke="white" stroke-width="0.5" stroke-miterlimit="10"/>
<path d="M236.138 193.4H72.9419C72.0102 193.4 71.2549 194.156 71.2549 195.09V224.862C71.2549 225.796 72.0102 226.552 72.9419 226.552H236.138C237.07 226.552 237.825 225.796 237.825 224.862V195.09C237.825 194.156 237.07 193.4 236.138 193.4Z" stroke="white" stroke-width="0.5" stroke-miterlimit="10"/>
<path d="M226.78 202.937H188.218L183.2 198.275H126.065L121.047 202.937H82.2999C81.0421 202.937 80.0217 203.946 80.0217 205.186V214.762C80.0217 216.006 81.0421 217.015 82.2999 217.015H121.047L126.065 221.677H183.2L188.218 217.015H226.78C228.038 217.015 229.058 216.006 229.058 214.762V205.186C229.058 203.942 228.038 202.937 226.78 202.937Z" stroke="white" stroke-width="0.5" stroke-miterlimit="10"/>
<path d="M111.193 220.702H105.348V222.652H111.193V220.702Z" stroke="white" stroke-width="0.5" stroke-miterlimit="10"/>
<path d="M106.322 220.702H110.219" stroke="white" stroke-width="0.5" stroke-miterlimit="10"/>
<path d="M118.986 220.702H114.115V222.652H118.986V220.702Z" stroke="white" stroke-width="0.5" stroke-miterlimit="10"/>
<path d="M114.115 220.702H118.012" stroke="white" stroke-width="0.5" stroke-miterlimit="10"/>
<path d="M88.7885 221.677C89.3265 221.677 89.7626 221.458 89.7626 221.189C89.7626 220.92 89.3265 220.702 88.7885 220.702C88.2506 220.702 87.8145 220.92 87.8145 221.189C87.8145 221.458 88.2506 221.677 88.7885 221.677Z" stroke="white" stroke-width="0.5" stroke-miterlimit="10"/>
<path d="M91.7109 221.677C92.2489 221.677 92.685 221.458 92.685 221.189C92.685 220.92 92.2489 220.702 91.7109 220.702C91.1729 220.702 90.7368 220.92 90.7368 221.189C90.7368 221.458 91.1729 221.677 91.7109 221.677Z" stroke="white" stroke-width="0.5" stroke-miterlimit="10"/>
<path d="M237.825 176.824V190.702C237.825 191.651 237.067 192.425 236.138 192.425H72.9419C72.0081 192.425 71.2549 191.651 71.2549 190.702V176.824H237.825Z" stroke="white" stroke-width="0.5" stroke-miterlimit="10"/>
<path d="M229.058 176.824V180.451C229.058 181.729 228.038 182.761 226.78 182.761H188.221L183.203 187.549H126.066L121.043 182.761H82.3C81.0421 182.761 80.0217 181.729 80.0217 180.451V176.824H229.058Z" stroke="white" stroke-width="0.5" stroke-miterlimit="10"/>
<path d="M111.193 185.599H105.348V187.549H111.193V185.599Z" stroke="white" stroke-width="0.5" stroke-miterlimit="10"/>
<path d="M106.322 186.574H110.219" stroke="white" stroke-width="0.5" stroke-miterlimit="10"/>
<path d="M118.986 185.599H114.115V187.549H118.986V185.599Z" stroke="white" stroke-width="0.5" stroke-miterlimit="10"/>
<path d="M114.115 186.574H118.012" stroke="white" stroke-width="0.5" stroke-miterlimit="10"/>
<path d="M88.7885 187.549C89.3265 187.549 89.7626 187.113 89.7626 186.574C89.7626 186.036 89.3265 185.599 88.7885 185.599C88.2506 185.599 87.8145 186.036 87.8145 186.574C87.8145 187.113 88.2506 187.549 88.7885 187.549Z" stroke="white" stroke-width="0.5" stroke-miterlimit="10"/>
<path d="M91.7109 187.549C92.2489 187.549 92.685 187.113 92.685 186.574C92.685 186.036 92.2489 185.599 91.7109 185.599C91.1729 185.599 90.7368 186.036 90.7368 186.574C90.7368 187.113 91.1729 187.549 91.7109 187.549Z" stroke="white" stroke-width="0.5" stroke-miterlimit="10"/>
<path d="M71.2549 21.7886V142.696H239.773V21.7886H71.2549ZM234.634 124.062H76.3988V32.0935H234.634V124.062Z" stroke="white" stroke-width="0.5" stroke-miterlimit="10"/>
<path d="M202.758 137.821C203.296 137.821 203.732 137.385 203.732 136.846C203.732 136.308 203.296 135.871 202.758 135.871C202.22 135.871 201.784 136.308 201.784 136.846C201.784 137.385 202.22 137.821 202.758 137.821Z" stroke="white" stroke-width="0.5" stroke-miterlimit="10"/>
<path d="M206.654 137.821C207.192 137.821 207.628 137.385 207.628 136.846C207.628 136.308 207.192 135.871 206.654 135.871C206.116 135.871 205.68 136.308 205.68 136.846C205.68 137.385 206.116 137.821 206.654 137.821Z" stroke="white" stroke-width="0.5" stroke-miterlimit="10"/>
<path d="M209.576 137.821C210.114 137.821 210.551 137.385 210.551 136.846C210.551 136.308 210.114 135.871 209.576 135.871C209.038 135.871 208.602 136.308 208.602 136.846C208.602 137.385 209.038 137.821 209.576 137.821Z" stroke="white" stroke-width="0.5" stroke-miterlimit="10"/>
<path d="M213.473 137.821C214.011 137.821 214.447 137.385 214.447 136.846C214.447 136.308 214.011 135.871 213.473 135.871C212.935 135.871 212.499 136.308 212.499 136.846C212.499 137.385 212.935 137.821 213.473 137.821Z" stroke="white" stroke-width="0.5" stroke-miterlimit="10"/>
<path d="M216.395 137.821C216.933 137.821 217.369 137.385 217.369 136.846C217.369 136.308 216.933 135.871 216.395 135.871C215.857 135.871 215.421 136.308 215.421 136.846C215.421 137.385 215.857 137.821 216.395 137.821Z" stroke="white" stroke-width="0.5" stroke-miterlimit="10"/>
<path d="M219.804 137.821C220.073 137.821 220.291 137.385 220.291 136.846C220.291 136.308 220.073 135.871 219.804 135.871C219.535 135.871 219.317 136.308 219.317 136.846C219.317 137.385 219.535 137.821 219.804 137.821Z" stroke="white" stroke-width="0.5" stroke-miterlimit="10"/>
<path d="M223.214 137.821C223.752 137.821 224.188 137.385 224.188 136.846C224.188 136.308 223.752 135.871 223.214 135.871C222.676 135.871 222.24 136.308 222.24 136.846C222.24 137.385 222.676 137.821 223.214 137.821Z" stroke="white" stroke-width="0.5" stroke-miterlimit="10"/>
<path d="M134.571 21.7886V14.2695C134.571 11.4234 136.941 9.11279 139.865 9.11279H172.137C175.062 9.11279 177.431 11.4234 177.431 14.2695V21.7886" stroke="white" stroke-width="0.5" stroke-miterlimit="10"/>
<path d="M137.493 21.7887V15.0034C137.493 13.3675 138.868 12.0381 140.57 12.0381H171.432C173.13 12.0381 174.509 13.3675 174.509 15.0034V21.7887" stroke="white" stroke-width="0.5" stroke-miterlimit="10"/>
<path d="M239.389 138.796H247.555C248.636 138.796 249.514 139.683 249.514 140.784V174.831C249.514 175.932 248.636 176.824 247.555 176.824H63.473C62.3924 176.824 61.5139 175.932 61.5139 174.831V140.784C61.5139 139.683 62.3924 138.796 63.473 138.796H71.1645" stroke="white" stroke-width="0.5" stroke-miterlimit="10"/>
</svg>
