<svg width="295" height="57" viewBox="0 0 295 57" fill="none" xmlns="http://www.w3.org/2000/svg">
<path d="M174.279 42.3526V43.637H175.424V44.9859H176.528V48.194H169.307V44.9859H170.41V43.637H171.555V42.3526H174.285M203.322 42.3526V43.637H204.467V44.9859H205.565V48.194H198.344V44.9859H199.442V43.637H200.586V42.3526H203.316M217.659 42.3526V43.637H218.804V44.9859H219.907V48.194H212.686V44.9859H213.79V43.637H214.935V42.3526H217.665M231.99 42.3526V43.637H233.134V44.9859H234.238V48.194H227.017V44.9859H228.121V43.637H229.266V42.3526H231.996M246.326 42.3526V43.637H247.471V44.9859H248.569V48.194H241.348V44.9859H242.446V43.637H243.59V42.3526H246.32M260.657 42.3526V43.637H261.802V44.9859H262.906V48.194H255.684V44.9859H256.788V43.637H257.933V42.3526H260.663M186.931 41.731H181.9M186.931 46.9682H181.9M0.666748 37.2033H294.667M0.666748 34.224H294.667M1.78221 27.5323L43.3713 1H252.209L293.798 27.5323M2.26362 27.5323H293.07C293.952 27.5323 294.667 28.2465 294.667 29.1275V54.4048C294.667 55.2858 293.952 56 293.07 56H2.26362C1.38169 56 0.666748 55.2858 0.666748 54.4048V29.1275C0.666748 28.2465 1.38169 27.5323 2.26362 27.5323ZM174.866 41.7662H170.962V43.0505H169.817V44.3995H168.714V48.7804H177.109V44.3995H176.005V43.0505H174.86V41.7662H174.866ZM200.005 41.7662V43.0505H198.86V44.3995H197.763V48.7804H206.158V44.3995H205.06V43.0505H203.915V41.7662H200.005ZM218.246 41.7662H214.342V43.0505H213.197V44.3995H212.093V48.7804H220.489V44.3995H219.385V43.0505H218.24V41.7662H218.246ZM232.577 41.7662H228.673V43.0505H227.528V44.3995H226.424V48.7804H234.819V44.3995H233.716V43.0505H232.571V41.7662H232.577ZM243.009 41.7662V43.0505H241.864V44.3995H240.767V48.7804H249.162V44.3995H248.064V43.0505H246.919V41.7662H243.009ZM261.244 41.7662H257.34V43.0505H256.195V44.3995H255.091V48.7804H263.487V44.3995H262.383V43.0505H261.238V41.7662H261.244ZM274.994 42.3526V43.637H276.138V44.9859H277.242V48.194H270.021V44.9859H271.119V43.637H272.264V42.3526H274.994ZM275.581 41.7662H271.677V43.0505H270.532V44.3995H269.434V48.7804H277.829V44.3995H276.725V43.0505H275.581V41.7662ZM180.455 43.1444H188.475V40.3176H180.455V43.1444ZM180.455 48.3875H188.475V45.5607H180.455V48.3875ZM165.555 46.6339C165.555 47.3886 164.943 48.0004 164.187 48.0004C163.432 48.0004 162.819 47.3886 162.819 46.6339C162.819 45.8792 163.432 45.2674 164.187 45.2674C164.943 45.2674 165.555 45.8792 165.555 46.6339ZM159.291 46.6339C159.291 47.3886 158.679 48.0004 157.923 48.0004C157.168 48.0004 156.555 47.3886 156.555 46.6339C156.555 45.8792 157.168 45.2674 157.923 45.2674C158.679 45.2674 159.291 45.8792 159.291 46.6339ZM115.729 42.2236H124.641V48.3171H115.729V42.2236ZM131.275 42.2236H140.187V48.3171H131.275V42.2236ZM105.356 37.2033H150.561V52.0999H105.356V37.2033Z" stroke="white" stroke-width="0.5" stroke-miterlimit="10"/>
</svg>
