<svg width="525" height="643" viewBox="0 0 525 643" fill="none" xmlns="http://www.w3.org/2000/svg">
<path d="M155.495 386.477V363.076" stroke="white" stroke-width="0.5" stroke-miterlimit="10"/>
<path d="M253.878 451.806H214.915" stroke="white" stroke-width="0.5" stroke-miterlimit="10"/>
<path d="M331.806 451.806H292.842" stroke="white" stroke-width="0.5" stroke-miterlimit="10"/>
<path d="M393.174 425.48V436.617C393.174 445.006 386.299 451.806 377.819 451.806H370.77" stroke="white" stroke-width="0.5" stroke-miterlimit="10"/>
<path d="M393.174 324.073V300.672" stroke="white" stroke-width="0.5" stroke-miterlimit="10"/>
<path d="M358.106 232.417H377.863C386.319 232.417 393.174 239.525 393.174 248.29V261.669" stroke="white" stroke-width="0.5" stroke-miterlimit="10"/>
<path d="M155.495 261.669V248.29C155.495 239.525 162.391 232.417 170.899 232.417H189.588" stroke="white" stroke-width="0.5" stroke-miterlimit="10"/>
<path d="M393.174 386.477V363.076" stroke="white" stroke-width="0.5" stroke-miterlimit="10"/>
<path d="M362.977 451.806H340.573" stroke="white" stroke-width="0.5" stroke-miterlimit="10"/>
<path d="M285.049 451.806H262.645" stroke="white" stroke-width="0.5" stroke-miterlimit="10"/>
<path d="M155.495 425.48V436.617C155.495 445.006 162.329 451.806 170.76 451.806H175.951" stroke="white" stroke-width="0.5" stroke-miterlimit="10"/>
<path d="M207.121 451.806H184.717" stroke="white" stroke-width="0.5" stroke-miterlimit="10"/>
<path d="M155.495 324.073V300.672" stroke="white" stroke-width="0.5" stroke-miterlimit="10"/>
<path d="M353.236 243.143V281.17H194.458V243.143" stroke="white" stroke-width="0.5" stroke-miterlimit="10"/>
<path d="M358.42 243.143H375.982C379.561 243.143 382.458 246.041 382.458 249.622V428.752C382.458 432.332 379.561 435.23 375.982 435.23H173.66C170.081 435.23 167.184 432.332 167.184 428.752V249.622C167.184 246.041 170.081 243.143 173.66 243.143H190.03" stroke="white" stroke-width="0.5" stroke-miterlimit="10"/>
<path d="M151.567 261.669H159.391V300.672H151.567C151.048 300.672 149.461 295.469 154.426 291.853V270.823C154.426 270.823 150.624 269.106 150.624 262.557C150.624 262.058 151.057 261.669 151.567 261.669Z" stroke="white" stroke-width="0.5" stroke-miterlimit="10"/>
<path d="M151.567 324.073H159.391V363.076H151.567C151.048 363.076 149.461 357.874 154.426 354.257V333.228C154.426 333.228 150.624 331.51 150.624 324.961C150.624 324.462 151.057 324.073 151.567 324.073Z" stroke="white" stroke-width="0.5" stroke-miterlimit="10"/>
<path d="M151.567 386.477H159.391V425.48H151.567C151.048 425.48 149.461 420.278 154.426 416.661V395.632C154.426 395.632 150.624 393.914 150.624 387.365C150.624 386.866 151.057 386.477 151.567 386.477Z" stroke="white" stroke-width="0.5" stroke-miterlimit="10"/>
<path d="M397.102 425.48H389.277V386.477H397.102C397.62 386.477 399.208 391.679 394.243 395.296V416.325C394.243 416.325 398.044 418.043 398.044 424.592C398.044 425.091 397.611 425.48 397.102 425.48Z" stroke="white" stroke-width="0.5" stroke-miterlimit="10"/>
<path d="M397.102 363.076H389.277V324.073H397.102C397.62 324.073 399.208 329.275 394.243 332.892V353.921C394.243 353.921 398.044 355.639 398.044 362.188C398.044 362.687 397.611 363.076 397.102 363.076Z" stroke="white" stroke-width="0.5" stroke-miterlimit="10"/>
<path d="M397.102 300.672H389.277V261.669H397.102C397.62 261.669 399.208 266.871 394.243 270.488V291.517C394.243 291.517 398.044 293.235 398.044 299.784C398.044 300.283 397.611 300.672 397.102 300.672Z" stroke="white" stroke-width="0.5" stroke-miterlimit="10"/>
<path d="M206.516 452.432C210.097 456.759 214.914 455.269 214.914 454.763V446.931H175.951V454.763C175.951 455.273 176.343 455.707 176.837 455.707C181.853 455.707 184.032 453.476 184.777 452.432" stroke="white" stroke-width="0.5" stroke-miterlimit="10"/>
<path d="M284.442 452.432C288.029 456.759 292.842 455.269 292.842 454.763V446.931H253.878V454.763C253.878 455.273 254.271 455.707 254.765 455.707C259.781 455.707 261.961 453.476 262.706 452.432" stroke="white" stroke-width="0.5" stroke-miterlimit="10"/>
<path d="M362.371 452.432C365.952 456.759 370.769 455.269 370.769 454.763V446.931H331.806V454.763C331.806 455.273 332.198 455.707 332.697 455.707C337.708 455.707 339.887 453.476 340.632 452.432" stroke="white" stroke-width="0.5" stroke-miterlimit="10"/>
<path d="M357.863 253.869H364.11L373.692 263.487V414.164L362.542 426.455H184.321L174.977 415.619V261.476L183.187 253.869H189.619" stroke="white" stroke-width="0.5" stroke-miterlimit="10"/>
<path d="M354.471 385.502H191.275C190.343 385.502 189.588 386.259 189.588 387.192V416.965C189.588 417.898 190.343 418.654 191.275 418.654H354.471C355.403 418.654 356.158 417.898 356.158 416.965V387.192C356.158 386.259 355.403 385.502 354.471 385.502Z" stroke="white" stroke-width="0.5" stroke-miterlimit="10"/>
<path d="M345.113 395.039H306.551L301.533 390.377H244.398L239.38 395.039H200.633C199.375 395.039 198.355 396.048 198.355 397.288V406.864C198.355 408.108 199.375 409.117 200.633 409.117H239.38L244.398 413.779H301.533L306.551 409.117H345.113C346.371 409.117 347.391 408.108 347.391 406.864V397.288C347.391 396.044 346.371 395.039 345.113 395.039Z" stroke="white" stroke-width="0.5" stroke-miterlimit="10"/>
<path d="M229.526 411.829H223.681V413.779H229.526V411.829Z" stroke="white" stroke-width="0.5" stroke-miterlimit="10"/>
<path d="M224.655 412.804H228.552" stroke="white" stroke-width="0.5" stroke-miterlimit="10"/>
<path d="M237.319 411.829H232.448V413.779H237.319V411.829Z" stroke="white" stroke-width="0.5" stroke-miterlimit="10"/>
<path d="M232.448 412.804H236.345" stroke="white" stroke-width="0.5" stroke-miterlimit="10"/>
<path d="M207.122 413.779C207.66 413.779 208.096 413.561 208.096 413.291C208.096 413.022 207.66 412.804 207.122 412.804C206.584 412.804 206.147 413.022 206.147 413.291C206.147 413.561 206.584 413.779 207.122 413.779Z" stroke="white" stroke-width="0.5" stroke-miterlimit="10"/>
<path d="M210.044 413.779C210.582 413.779 211.018 413.561 211.018 413.291C211.018 413.022 210.582 412.804 210.044 412.804C209.506 412.804 209.07 413.022 209.07 413.291C209.07 413.561 209.506 413.779 210.044 413.779Z" stroke="white" stroke-width="0.5" stroke-miterlimit="10"/>
<path d="M354.471 350.4H191.275C190.343 350.4 189.588 351.156 189.588 352.09V381.862C189.588 382.796 190.343 383.552 191.275 383.552H354.471C355.403 383.552 356.158 382.796 356.158 381.862V352.09C356.158 351.156 355.403 350.4 354.471 350.4Z" stroke="white" stroke-width="0.5" stroke-miterlimit="10"/>
<path d="M345.113 359.937H306.551L301.533 355.275H244.398L239.38 359.937H200.633C199.375 359.937 198.355 360.946 198.355 362.186V371.762C198.355 373.006 199.375 374.015 200.633 374.015H239.38L244.398 378.677H301.533L306.551 374.015H345.113C346.371 374.015 347.391 373.006 347.391 371.762V362.186C347.391 360.942 346.371 359.937 345.113 359.937Z" stroke="white" stroke-width="0.5" stroke-miterlimit="10"/>
<path d="M229.526 377.702H223.681V379.652H229.526V377.702Z" stroke="white" stroke-width="0.5" stroke-miterlimit="10"/>
<path d="M224.655 377.702H228.552" stroke="white" stroke-width="0.5" stroke-miterlimit="10"/>
<path d="M237.319 377.702H232.448V379.652H237.319V377.702Z" stroke="white" stroke-width="0.5" stroke-miterlimit="10"/>
<path d="M232.448 377.702H236.345" stroke="white" stroke-width="0.5" stroke-miterlimit="10"/>
<path d="M207.122 378.677C207.66 378.677 208.096 378.458 208.096 378.189C208.096 377.92 207.66 377.702 207.122 377.702C206.584 377.702 206.147 377.92 206.147 378.189C206.147 378.458 206.584 378.677 207.122 378.677Z" stroke="white" stroke-width="0.5" stroke-miterlimit="10"/>
<path d="M210.044 378.677C210.582 378.677 211.018 378.458 211.018 378.189C211.018 377.92 210.582 377.702 210.044 377.702C209.506 377.702 209.07 377.92 209.07 378.189C209.07 378.458 209.506 378.677 210.044 378.677Z" stroke="white" stroke-width="0.5" stroke-miterlimit="10"/>
<path d="M356.158 333.824V347.702C356.158 348.651 355.4 349.425 354.471 349.425H191.275C190.341 349.425 189.588 348.651 189.588 347.702V333.824H356.158Z" stroke="white" stroke-width="0.5" stroke-miterlimit="10"/>
<path d="M347.391 333.824V337.451C347.391 338.729 346.371 339.761 345.113 339.761H306.554L301.536 344.549H244.399L239.377 339.761H200.633C199.375 339.761 198.355 338.729 198.355 337.451V333.824H347.391Z" stroke="white" stroke-width="0.5" stroke-miterlimit="10"/>
<path d="M229.526 342.599H223.681V344.549H229.526V342.599Z" stroke="white" stroke-width="0.5" stroke-miterlimit="10"/>
<path d="M224.655 343.574H228.552" stroke="white" stroke-width="0.5" stroke-miterlimit="10"/>
<path d="M237.319 342.599H232.448V344.549H237.319V342.599Z" stroke="white" stroke-width="0.5" stroke-miterlimit="10"/>
<path d="M232.448 343.574H236.345" stroke="white" stroke-width="0.5" stroke-miterlimit="10"/>
<path d="M207.122 344.549C207.66 344.549 208.096 344.113 208.096 343.574C208.096 343.036 207.66 342.599 207.122 342.599C206.584 342.599 206.147 343.036 206.147 343.574C206.147 344.113 206.584 344.549 207.122 344.549Z" stroke="white" stroke-width="0.5" stroke-miterlimit="10"/>
<path d="M210.044 344.549C210.582 344.549 211.018 344.113 211.018 343.574C211.018 343.036 210.582 342.599 210.044 342.599C209.506 342.599 209.07 343.036 209.07 343.574C209.07 344.113 209.506 344.549 210.044 344.549Z" stroke="white" stroke-width="0.5" stroke-miterlimit="10"/>
<path d="M189.588 178.789V299.696H358.106V178.789H189.588ZM352.967 281.062H194.732V189.094H352.967V281.062Z" stroke="white" stroke-width="0.5" stroke-miterlimit="10"/>
<path d="M321.091 294.821C321.629 294.821 322.065 294.385 322.065 293.846C322.065 293.308 321.629 292.871 321.091 292.871C320.553 292.871 320.117 293.308 320.117 293.846C320.117 294.385 320.553 294.821 321.091 294.821Z" stroke="white" stroke-width="0.5" stroke-miterlimit="10"/>
<path d="M324.987 294.821C325.525 294.821 325.961 294.385 325.961 293.846C325.961 293.308 325.525 292.871 324.987 292.871C324.449 292.871 324.013 293.308 324.013 293.846C324.013 294.385 324.449 294.821 324.987 294.821Z" stroke="white" stroke-width="0.5" stroke-miterlimit="10"/>
<path d="M327.909 294.821C328.447 294.821 328.883 294.385 328.883 293.846C328.883 293.308 328.447 292.871 327.909 292.871C327.371 292.871 326.935 293.308 326.935 293.846C326.935 294.385 327.371 294.821 327.909 294.821Z" stroke="white" stroke-width="0.5" stroke-miterlimit="10"/>
<path d="M331.806 294.821C332.344 294.821 332.78 294.385 332.78 293.846C332.78 293.308 332.344 292.871 331.806 292.871C331.268 292.871 330.832 293.308 330.832 293.846C330.832 294.385 331.268 294.821 331.806 294.821Z" stroke="white" stroke-width="0.5" stroke-miterlimit="10"/>
<path d="M334.728 294.821C335.266 294.821 335.702 294.385 335.702 293.846C335.702 293.308 335.266 292.871 334.728 292.871C334.19 292.871 333.754 293.308 333.754 293.846C333.754 294.385 334.19 294.821 334.728 294.821Z" stroke="white" stroke-width="0.5" stroke-miterlimit="10"/>
<path d="M338.137 294.821C338.406 294.821 338.624 294.385 338.624 293.846C338.624 293.308 338.406 292.871 338.137 292.871C337.868 292.871 337.65 293.308 337.65 293.846C337.65 294.385 337.868 294.821 338.137 294.821Z" stroke="white" stroke-width="0.5" stroke-miterlimit="10"/>
<path d="M341.547 294.821C342.085 294.821 342.521 294.385 342.521 293.846C342.521 293.308 342.085 292.871 341.547 292.871C341.009 292.871 340.573 293.308 340.573 293.846C340.573 294.385 341.009 294.821 341.547 294.821Z" stroke="white" stroke-width="0.5" stroke-miterlimit="10"/>
<path d="M252.904 178.789V171.27C252.904 168.423 255.274 166.113 258.198 166.113H290.471C293.395 166.113 295.764 168.423 295.764 171.27V178.789" stroke="white" stroke-width="0.5" stroke-miterlimit="10"/>
<path d="M255.826 178.789V172.003C255.826 170.368 257.201 169.038 258.903 169.038H289.765C291.462 169.038 292.842 170.368 292.842 172.003V178.789" stroke="white" stroke-width="0.5" stroke-miterlimit="10"/>
<path d="M357.722 295.796H365.888C366.969 295.796 367.847 296.683 367.847 297.784V331.831C367.847 332.932 366.969 333.824 365.888 333.824H181.806C180.726 333.824 179.847 332.932 179.847 331.831V297.784C179.847 296.683 180.726 295.796 181.806 295.796H189.498" stroke="white" stroke-width="0.5" stroke-miterlimit="10"/>
</svg>
