<svg width="83" height="84" viewBox="0 0 83 84" fill="none" xmlns="http://www.w3.org/2000/svg">
<g clip-path="url(#clip0_743_8661)">
<path d="M0.0151367 0.296387H83.0002V83.2815H0.0151367C0.0151367 55.6198 0.0151367 27.9581 0.0151367 0.296387ZM58.3822 65.9881C58.0994 65.4863 57.7162 65.1505 57.2381 64.937C56.1542 64.4498 55.0247 64.3458 53.8842 64.6706C52.5065 65.063 51.585 66.01 51.0229 67.2892C50.2 69.1596 50.1562 71.0938 50.7273 73.039C51.0704 74.2069 51.7492 75.1448 52.8276 75.7561C53.6506 76.2214 54.5448 76.3711 55.479 76.3273C56.5739 76.2762 57.4589 75.851 58.0538 74.8985C58.0866 74.8456 58.1249 74.7981 58.1833 74.7123C58.1833 75.2525 58.1906 75.7452 58.1797 76.2379C58.1742 76.4514 58.1377 76.6667 58.103 76.8783C57.968 77.7433 57.4498 78.3126 56.6049 78.4714C55.99 78.5882 55.3695 78.5736 54.7582 78.4221C54.2637 78.2998 53.8824 78.0462 53.74 77.5188C53.7291 77.475 53.6178 77.4258 53.5612 77.4349C52.8021 77.5444 52.0448 77.6648 51.2857 77.7834C51.0886 77.8145 50.8934 77.8491 50.6452 77.8893C50.7857 78.2141 50.8806 78.5097 51.0321 78.7761C51.512 79.6173 52.2711 80.1155 53.1652 80.4166C54.7144 80.9385 56.2838 80.8764 57.8512 80.5133C58.7417 80.3071 59.5428 79.9202 60.165 79.225C60.8876 78.4166 61.1541 77.4276 61.1614 76.3857C61.1851 72.5628 61.1741 68.7417 61.1778 64.9188C61.1778 64.7838 61.1431 64.7217 60.9971 64.7217C60.2618 64.7254 59.5245 64.7254 58.7892 64.7217C58.6669 64.7217 58.6085 64.7673 58.5884 64.8933C58.5282 65.2454 58.4571 65.594 58.3804 65.9881H58.3822ZM15.9563 70.4898C15.9764 70.4862 15.9965 70.4844 16.0147 70.4807C15.9271 69.8493 15.8852 69.207 15.741 68.5884C15.3122 66.7673 14.2538 65.4516 12.4838 64.7728C11.3214 64.3276 10.1171 64.2582 8.90542 64.5119C7.10984 64.886 5.77046 65.8786 5.05698 67.5884C4.28875 69.4315 4.2924 71.3237 4.96939 73.1923C5.47485 74.5883 6.44745 75.5828 7.82515 76.1411C9.2503 76.7196 10.7138 76.7616 12.1791 76.309C13.6553 75.8528 14.7301 74.9094 15.3724 73.4989C15.8067 72.5445 15.9709 71.5336 15.9582 70.4898H15.9563ZM25.894 66.6852C25.9816 66.7399 26.0418 66.7801 26.1057 66.8166C26.6203 67.1122 27.1367 67.4041 27.6531 67.6998C27.9615 67.8768 27.9597 67.8749 28.2042 67.6249C29.0856 66.7253 30.1695 66.4297 31.3866 66.6158C32.1256 66.7271 32.4778 67.0921 32.5672 67.7472C32.5873 67.9005 32.5599 68.0592 32.5818 68.2125C32.6147 68.4406 32.5015 68.4899 32.3063 68.5209C31.5034 68.6486 30.695 68.7618 29.8994 68.9333C28.8538 69.1577 27.852 69.5081 26.9414 70.0902C25.1824 71.2124 24.9616 73.1996 25.6988 74.6904C26.2973 75.8966 27.3739 76.3656 28.6549 76.3984C29.9359 76.4313 31.1348 76.101 32.2461 75.4569C32.3428 75.4003 32.4395 75.3455 32.5526 75.2798C32.6347 75.5572 32.715 75.8054 32.7807 76.059C32.8172 76.1977 32.8774 76.2543 33.0289 76.2524C33.8117 76.2433 34.5964 76.2488 35.3792 76.2488C35.4376 76.2488 35.4941 76.2397 35.5562 76.2342C35.5598 76.163 35.5653 76.1101 35.5653 76.0572C35.5653 73.2617 35.5653 70.4661 35.5653 67.6706C35.5653 67.2618 35.465 66.8695 35.2916 66.499C34.8719 65.5921 34.1237 65.0648 33.2077 64.7637C31.8902 64.3312 30.5454 64.3093 29.195 64.5812C27.9998 64.8203 26.9871 65.3896 26.1878 66.3184C26.0875 66.4334 25.9999 66.5593 25.8959 66.6925L25.894 66.6852ZM73.5625 73.9204C73.4621 73.8602 73.4019 73.8219 73.3381 73.7872C72.7176 73.4441 72.0954 73.1065 71.4804 72.7562C71.3326 72.6722 71.2578 72.6832 71.1556 72.8255C70.7414 73.404 70.2305 73.862 69.5206 74.0481C69.0444 74.174 68.559 74.185 68.0772 74.1029C67.3181 73.9751 66.7415 73.5865 66.3912 72.8857C66.1266 72.3566 66.039 71.7854 66.0006 71.2051C65.9824 70.9278 65.9934 70.9278 66.2671 70.9278C68.6228 70.9278 70.9805 70.9278 73.3362 70.9278C73.4037 70.9278 73.4713 70.9259 73.5388 70.9278C73.6501 70.9314 73.6884 70.8767 73.6957 70.7672C73.7596 69.769 73.6702 68.7855 73.3636 67.833C72.8673 66.2892 71.8892 65.198 70.3235 64.6925C69.3108 64.3659 68.2725 64.3239 67.2269 64.5028C65.4861 64.8002 64.2434 65.7472 63.5299 67.3713C63.227 68.0611 63.0664 68.7891 63.0044 69.5391C62.9131 70.6431 62.9496 71.7361 63.269 72.8036C63.7598 74.4478 64.7616 75.6302 66.4203 76.1776C67.6557 76.5864 68.913 76.5663 70.1721 76.2962C71.2834 76.0572 72.2505 75.5499 72.9986 74.6777C73.1994 74.4459 73.3672 74.185 73.5625 73.9204ZM40.4557 64.6396C39.6364 64.7527 38.8499 64.8622 38.0634 64.9662C37.8955 64.9881 37.8901 65.0922 37.8901 65.2235C37.8919 68.8293 37.8937 72.435 37.8882 76.0408C37.8882 76.2433 37.9612 76.2871 38.1474 76.2853C38.9904 76.278 39.8353 76.2816 40.6801 76.2816C40.8651 76.2816 40.9575 76.191 40.9575 76.0098C40.9575 73.5664 40.9575 71.1212 40.9575 68.6778C40.9575 68.1851 41.1619 67.7959 41.5706 67.51C42.2713 67.0246 43.0177 66.6797 43.899 66.7162C44.5322 66.7417 44.9483 67.041 45.0943 67.6596C45.1709 67.9844 45.2147 68.3257 45.2165 68.6596C45.2275 71.0975 45.222 73.5354 45.222 75.9714C45.222 76.1782 45.329 76.2816 45.5432 76.2816C46.3661 76.2816 47.1909 76.2816 48.0139 76.2816C48.3168 76.2816 48.3168 76.2816 48.3168 75.9842C48.3168 73.4314 48.3223 70.8803 48.3113 68.3275C48.3113 67.9041 48.2767 67.4771 48.2 67.0611C47.9573 65.7527 47.2165 64.8823 45.8953 64.5648C45.1034 64.375 44.306 64.3805 43.5122 64.5684C42.6235 64.7801 41.8498 65.2254 41.1035 65.7308C40.9831 65.8129 40.8626 65.8951 40.7239 65.9899C40.6327 65.5265 40.5469 65.094 40.4557 64.636V64.6396ZM20.938 65.8768C20.938 65.5757 20.9288 65.2345 20.9416 64.8951C20.9489 64.7163 20.8923 64.6633 20.7135 64.667C19.8905 64.6761 19.0657 64.6779 18.2428 64.667C18.0293 64.6633 17.9873 64.7345 17.9873 64.9316C17.9928 68.6103 17.9909 72.2909 17.9909 75.9696C17.9909 76.2306 17.9909 76.2324 18.2647 76.2324C19.1296 76.2324 19.9927 76.2324 20.8577 76.2324C21.1387 76.2324 21.1405 76.2324 21.1405 75.9386C21.1405 73.5755 21.146 71.2124 21.1332 68.8494C21.1314 68.5026 21.2536 68.2381 21.5073 68.0428C21.7299 67.8731 21.9781 67.7216 22.2372 67.6213C22.8211 67.3932 23.4397 67.3384 24.062 67.333C24.5036 67.3293 24.5036 67.3311 24.5036 66.8987C24.5036 66.1907 24.5036 65.4808 24.5036 64.7728C24.5036 64.406 24.4908 64.3933 24.1185 64.406C24.1112 64.406 24.1058 64.406 24.0985 64.406C23.3959 64.4279 22.739 64.6232 22.1478 64.9954C21.7244 65.2637 21.3358 65.5848 20.9361 65.8786L20.938 65.8768ZM76.2413 61.1178C76.2504 61.116 76.2613 61.1142 76.2705 61.1123C76.2851 61.147 76.3015 61.1798 76.3143 61.2145C76.6737 62.1233 77.035 63.0302 77.3872 63.9407C77.4493 64.0995 77.5204 64.1743 77.7047 64.1743C77.8836 64.1743 77.9511 64.0995 78.0076 63.9498C78.1828 63.4827 78.3708 63.021 78.5532 62.5576C78.7522 62.0539 78.951 61.5503 79.1499 61.0466C79.1719 61.959 79.1682 62.8641 79.1737 63.7692C79.1755 64.2071 79.0788 64.1615 79.5897 64.1688C79.7138 64.1688 79.7722 64.1341 79.7722 63.9973C79.7685 62.8221 79.7685 61.647 79.7722 60.4737C79.7722 60.335 79.7102 60.3003 79.5879 60.3021C79.3726 60.3058 79.1554 60.3076 78.9401 60.3021C78.8124 60.2985 78.7449 60.3496 78.7011 60.47C78.5934 60.7675 78.4784 61.0631 78.3635 61.3587C78.1372 61.9481 77.9091 62.5375 77.6719 63.1542C77.6409 63.0849 77.6208 63.0429 77.6044 63.001C77.2741 62.167 76.942 61.335 76.6208 60.4992C76.5661 60.3587 76.4949 60.293 76.3416 60.3021C76.1665 60.3131 75.9913 60.304 75.8161 60.304C75.5333 60.304 75.5314 60.304 75.5314 60.5813C75.5314 61.6214 75.5278 62.6616 75.5314 63.6999C75.5333 64.2418 75.4511 64.1542 76.0022 64.1743C76.1975 64.1816 76.2431 64.105 76.2394 63.9261C76.2321 63.3732 76.2358 62.8185 76.2358 62.2656C76.2358 61.8842 76.2358 61.5028 76.2358 61.1215L76.2413 61.1178ZM71.8436 60.8477C72.1191 60.8477 72.4019 60.8477 72.6848 60.8477C72.8843 60.8477 72.9841 60.9445 72.9841 61.1379C72.9841 62.001 72.9841 62.8659 72.9841 63.729C72.9841 64.2363 72.933 64.1506 73.4311 64.1706C73.6355 64.1779 73.6975 64.1159 73.6957 63.9097C73.6848 62.959 73.6957 62.0065 73.6884 61.0539C73.6884 60.9007 73.7231 60.835 73.891 60.8441C74.1537 60.8587 74.4165 60.8496 74.6811 60.8459C74.7322 60.8459 74.8252 60.8313 74.8271 60.8149C74.8453 60.6707 74.8636 60.5211 74.8435 60.3788C74.838 60.3423 74.7012 60.3021 74.6245 60.3021C73.8344 60.2967 73.0443 60.2985 72.256 60.2985C71.919 60.2985 71.7712 60.4664 71.8125 60.8021C71.8125 60.8021 71.8198 60.8131 71.8454 60.8459L71.8436 60.8477Z" fill="#FEFEFE"/>
<path d="M58.1946 69.9335C58.1562 70.7748 58.1161 71.5503 57.8387 72.2984C57.2913 73.7656 55.7512 73.9882 54.753 73.5466C54.2184 73.3094 53.8863 72.8714 53.7257 72.3331C53.3242 70.9901 53.2549 69.6288 53.6472 68.273C53.8443 67.5942 54.2385 67.0431 54.9264 66.7694C55.8753 66.3935 56.9464 66.7274 57.5449 67.5741C57.9172 68.0996 58.0887 68.6963 58.1508 69.3295C58.1727 69.5503 58.1854 69.773 58.1982 69.9354L58.1946 69.9335Z" fill="#FEFEFE"/>
<path d="M12.9289 70.4698C12.8997 71.1541 12.8176 71.8201 12.5548 72.4533C12.0439 73.685 11.0038 74.039 9.88882 73.9314C8.50564 73.7963 7.92536 72.8493 7.70822 71.8493C7.48377 70.811 7.48742 69.7745 7.80675 68.7563C8.10237 67.8147 8.70272 67.1724 9.70999 67.0155C11.3103 66.7655 12.4216 67.5483 12.7574 69.1541C12.8468 69.5866 12.8723 70.0318 12.9289 70.4716V70.4698Z" fill="#FEFEFE"/>
<path d="M32.4561 70.375C32.4561 70.6086 32.4561 70.8166 32.4561 71.0246C32.4561 71.645 32.4598 72.2673 32.4525 72.8877C32.4525 72.9716 32.416 73.0811 32.3558 73.1322C31.7481 73.6505 31.0821 74.0702 30.2792 74.207C30.0164 74.2526 29.7372 74.2873 29.4763 74.2526C28.5201 74.1231 28.2409 73.1851 28.3267 72.5757C28.438 71.7837 28.9781 71.3622 29.6441 71.0648C30.5255 70.6706 31.4671 70.5119 32.4543 70.375H32.4561Z" fill="#FEFEFE"/>
<path d="M66.1014 68.9022C66.1306 67.7508 66.7821 66.5574 68.2255 66.5191C68.4992 66.5118 68.782 66.5227 69.0484 66.5811C69.9225 66.7782 70.4937 67.4223 70.6269 68.3201C70.6488 68.4661 70.6561 68.6139 70.6707 68.7617C70.6816 68.8676 70.6488 68.9223 70.5265 68.9223C69.0758 68.9187 67.6251 68.9205 66.1744 68.9187C66.1489 68.9187 66.1233 68.9077 66.0996 68.9022H66.1014Z" fill="#FEFEFE"/>
</g>
<defs>
<clipPath id="clip0_743_8661">
<rect width="82.9851" height="82.9851" fill="white" transform="translate(0.0146484 0.296387)"/>
</clipPath>
</defs>
</svg>
