<svg width="141" height="66" viewBox="0 0 141 66" fill="none" xmlns="http://www.w3.org/2000/svg">
<g clip-path="url(#clip0_743_8526)">
<path d="M94.626 28.5367C94.4316 28.8777 94.5053 29.1405 94.5037 29.3892C94.4974 32.596 94.4865 35.8013 94.5115 39.0081C94.5162 39.5603 94.4269 39.7871 93.7999 39.7668C92.5035 39.7261 92.502 39.7652 92.502 38.4465C92.502 33.5769 92.502 28.7056 92.502 23.6045C96.3926 27.667 100.153 31.5933 103.931 35.5385C104.16 35.2569 104.07 35.016 104.07 34.797C104.078 31.5902 104.094 28.385 104.059 25.1782C104.053 24.5384 104.197 24.2537 104.864 24.3694C105.016 24.396 105.18 24.3945 105.332 24.3694C105.887 24.2803 106.024 24.5071 106.02 25.0515C105.995 28.4663 106.008 31.8812 106.008 35.296C106.008 36.9354 106.008 38.5732 106.008 40.4128C102.15 36.3879 98.4131 32.4897 94.6244 28.5367H94.626Z" fill="#FEFEFE"/>
<path d="M105.128 11.3841C105.307 11.0838 105.231 10.8225 105.233 10.5754C105.239 7.65796 105.253 4.74055 105.224 1.82315C105.217 1.24123 105.366 1.05195 105.962 1.08167C107.241 1.14581 107.056 0.923678 107.058 2.14226C107.065 6.44094 107.061 10.738 107.061 15.0367C107.061 15.262 107.061 15.4857 107.061 15.9018C103.487 12.1741 100.038 8.57619 96.5942 4.98302C96.309 5.15822 96.4359 5.38973 96.4344 5.57275C96.425 8.56837 96.3889 11.564 96.4516 14.5596C96.4704 15.4591 95.9578 15.2573 95.4656 15.2808C94.9436 15.3058 94.5533 15.348 94.5612 14.5565C94.605 10.0513 94.5815 5.5446 94.5815 1.03787C94.5815 0.890828 94.5815 0.743784 94.5815 0.373047C98.1869 4.13673 101.646 7.74868 105.128 11.3841Z" fill="#FEFEFE"/>
<path d="M109.373 0.407715C112.948 4.14481 116.398 7.74894 119.949 11.4594C119.969 11.0887 119.993 10.8462 119.993 10.6038C119.996 7.63318 120.013 4.66103 119.98 1.69043C119.972 1.01779 120.344 1.03187 120.766 1.10539C121.159 1.17265 121.816 0.739345 121.811 1.66697C121.792 6.32856 121.802 10.9917 121.802 15.8864C118.22 12.154 114.765 8.55455 111.168 4.80494C111.168 6.54756 111.168 8.07431 111.168 9.59949C111.168 11.2936 111.15 12.9878 111.179 14.6819C111.186 15.1731 111.031 15.2935 110.556 15.2888C109.371 15.2779 109.37 15.3029 109.37 14.1578C109.37 12.9596 109.37 11.7598 109.37 10.5615C109.37 7.48614 109.37 4.41074 109.37 1.33534V0.407715H109.373Z" fill="#FEFEFE"/>
<path d="M5.63255 33.1118C7.24241 35.3269 8.80211 37.4746 10.4559 39.7491C9.65955 39.7491 8.97453 39.7491 8.28952 39.7491C7.92429 39.7491 7.83807 39.43 7.68132 39.2079C6.44924 37.4606 5.22813 35.7054 4.00388 33.9534C3.91453 33.8251 3.81734 33.7 3.74053 33.5655C3.56184 33.2573 3.27341 33.2479 2.98968 33.3152C2.6558 33.395 2.78434 33.6953 2.78277 33.9049C2.77337 35.6257 2.75612 37.3464 2.79061 39.0671C2.80158 39.6068 2.66521 39.7788 2.10716 39.7663C0.820216 39.7382 0.820216 39.7695 0.820216 38.5165C0.820216 34.0582 0.831189 29.6 0.807676 25.1433C0.804541 24.5505 0.925241 24.3236 1.5695 24.3596C3.05082 24.441 4.54782 24.2486 6.01346 24.6209C8.03715 25.1355 9.25512 26.681 9.26453 28.7522C9.2755 30.8624 8.05126 32.4783 6.04324 33.007C5.94449 33.0336 5.84573 33.0571 5.63568 33.1118H5.63255ZM2.77493 28.8882C2.77493 29.6422 2.78904 30.3947 2.76866 31.1471C2.75926 31.51 2.87996 31.6617 3.25617 31.6477C4.14026 31.6148 5.02278 31.5976 5.86141 31.2581C6.89128 30.8405 7.4023 30.0677 7.41013 28.8882C7.41797 27.7228 6.90696 26.9407 5.85671 26.5262C5.04472 26.2055 4.19042 26.1554 3.32984 26.1148C2.86428 26.0929 2.75142 26.2806 2.76709 26.7061C2.79374 27.4319 2.77493 28.1608 2.77493 28.8882Z" fill="#FEFEFE"/>
<path d="M85.6139 15.5843C81.4161 15.5702 78.2293 12.3353 78.2403 8.09759C78.2497 4.1149 81.67 0.762627 85.697 0.78922C89.804 0.817377 93.1318 4.18373 93.1209 8.29939C93.1083 12.3963 89.8087 15.5984 85.6139 15.5843ZM91.2978 8.18832C91.2869 4.96901 88.854 2.51463 85.6688 2.51151C82.4961 2.50994 80.0445 4.98778 80.0461 8.19301C80.0492 11.3967 82.5682 13.9152 85.7503 13.8933C88.8211 13.8714 91.3088 11.3153 91.2978 8.18676V8.18832Z" fill="#FEFEFE"/>
<path d="M34.3289 8.21468C34.3289 12.3522 31.0794 15.5778 26.9035 15.5841C22.6869 15.5903 19.4044 12.3413 19.4264 8.1834C19.4483 4.12875 22.8311 0.779604 26.8973 0.790554C30.9713 0.801504 34.3289 4.15535 34.3289 8.21468ZM32.5059 8.15681C32.4886 4.94218 30.0449 2.50345 26.8487 2.51128C23.6446 2.5191 21.2353 5.01414 21.2588 8.30072C21.2808 11.4058 23.8029 13.8993 26.9129 13.8915C30.0308 13.8837 32.5231 11.3276 32.5059 8.15524V8.15681Z" fill="#FEFEFE"/>
<path d="M71.1776 39.685C71.049 39.7194 71.0239 39.7303 70.9989 39.7319C69.5954 39.8049 68.4903 39.2616 67.6835 38.1019C66.6693 36.6487 65.6395 35.208 64.6425 33.7438C64.4074 33.3996 64.1503 33.19 63.7474 33.3136C63.3524 33.4356 63.5421 33.8032 63.539 34.0551C63.5217 35.7226 63.5092 37.3901 63.5421 39.0561C63.5531 39.5817 63.4418 39.7773 62.8681 39.7632C61.5952 39.7319 61.5952 39.7663 61.5952 38.4977C61.5952 34.0441 61.6062 29.589 61.5811 25.1355C61.578 24.5317 61.7191 24.3252 62.3492 24.3596C63.7271 24.4331 65.1159 24.2798 66.4859 24.5442C68.6287 24.9587 69.9941 26.5386 70.0489 28.6723C70.1022 30.7935 68.8043 32.4986 66.7414 33.0195C66.6678 33.0383 66.5972 33.0649 66.4201 33.1212C68.0064 35.3081 69.5661 37.4621 71.1776 39.6834V39.685ZM63.5311 28.8444C63.5311 29.6266 63.5437 30.4087 63.5249 31.1893C63.517 31.5225 63.6299 31.6664 63.97 31.6539C64.829 31.621 65.6896 31.6085 66.5141 31.305C67.6224 30.8968 68.2071 30.0552 68.2039 28.8522C68.2024 27.6947 67.624 26.8797 66.5204 26.4823C65.6975 26.1867 64.8416 26.1288 63.9763 26.1194C63.6408 26.1163 63.5154 26.2367 63.5233 26.5778C63.5421 27.3333 63.5296 28.0889 63.5296 28.8444H63.5311Z" fill="#FEFEFE"/>
<path d="M131.56 32.0468C131.56 29.7269 131.582 27.4055 131.545 25.0857C131.535 24.485 131.714 24.3504 132.291 24.3598C134.589 24.3942 136.889 24.3911 139.188 24.3598C139.732 24.352 139.906 24.4881 139.881 25.045C139.821 26.3918 140.03 26.1588 138.77 26.1697C137.229 26.1838 135.686 26.1869 134.145 26.165C133.688 26.1588 133.495 26.262 133.515 26.7657C133.554 27.7809 133.557 28.7993 133.515 29.8145C133.492 30.3683 133.727 30.4512 134.203 30.4434C135.796 30.4199 137.39 30.4543 138.984 30.423C139.514 30.4121 139.718 30.5341 139.691 31.1035C139.632 32.4191 139.84 32.2016 138.56 32.2126C137.097 32.2251 135.633 32.2282 134.17 32.2079C133.735 32.2016 133.504 32.2595 133.515 32.7882C133.55 34.3259 133.543 35.8652 133.518 37.4029C133.51 37.8581 133.669 37.977 134.105 37.9707C135.802 37.9488 137.503 38.0098 139.197 37.941C139.98 37.9097 139.895 38.3352 139.867 38.8076C139.84 39.2441 140.099 39.79 139.221 39.7681C136.898 39.7118 134.572 39.7337 132.247 39.7618C131.716 39.7681 131.539 39.6492 131.546 39.0829C131.581 36.7365 131.56 34.3901 131.56 32.0436V32.0468Z" fill="#FEFEFE"/>
<path d="M46.2608 32.0641C46.2608 29.7192 46.2733 27.3743 46.2513 25.0294C46.2466 24.543 46.347 24.3552 46.8862 24.3615C49.2359 24.3912 51.5857 24.3897 53.9354 24.3615C54.4621 24.3552 54.5891 24.5226 54.5797 25.0216C54.5609 26.1729 54.5859 26.1745 53.4134 26.1745C51.8992 26.1745 50.3849 26.1948 48.8707 26.1636C48.3456 26.1526 48.2061 26.3294 48.2233 26.8299C48.2578 27.8452 48.2515 28.862 48.2264 29.8788C48.2155 30.3199 48.3612 30.4544 48.8064 30.4482C50.4508 30.4231 52.0983 30.4794 53.741 30.4216C54.5483 30.3918 54.3806 30.883 54.3743 31.321C54.3665 31.7481 54.5765 32.2659 53.752 32.2377C52.1359 32.1814 50.515 32.2377 48.8958 32.2111C48.4036 32.2033 48.2076 32.3081 48.2217 32.8509C48.2594 34.3354 48.2641 35.8215 48.2217 37.306C48.2045 37.8926 48.4318 37.9865 48.9459 37.9787C50.5903 37.9505 52.2362 37.9896 53.8805 37.9568C54.4198 37.9458 54.6016 38.085 54.5844 38.645C54.5514 39.7526 54.5844 39.7526 53.4667 39.7526C51.2988 39.7526 49.1325 39.7275 46.9661 39.7682C46.3564 39.7792 46.2435 39.5883 46.2513 39.0236C46.2843 36.7053 46.2655 34.3855 46.2655 32.0672L46.2608 32.0641Z" fill="#FEFEFE"/>
<path d="M77.3647 32.0811C77.3647 29.7612 77.3898 27.4398 77.3491 25.1215C77.3381 24.4849 77.5419 24.3519 78.1375 24.3613C80.4105 24.3941 82.6834 24.391 84.9548 24.3613C85.4846 24.355 85.7432 24.4661 85.6507 25.0355C85.6225 25.2138 85.6241 25.4031 85.6507 25.5814C85.7228 26.0789 85.505 26.1915 85.0331 26.1837C83.3621 26.1555 81.6896 26.1946 80.0186 26.1587C79.4825 26.1477 79.2834 26.2697 79.3116 26.8391C79.3602 27.8012 79.3649 28.7695 79.3116 29.7315C79.2771 30.3494 79.5091 30.4652 80.0719 30.4511C81.6378 30.4151 83.2069 30.4589 84.7729 30.4276C85.2918 30.4167 85.5144 30.5152 85.4861 31.0971C85.4234 32.4362 85.6335 32.2 84.3654 32.2125C82.9028 32.2266 81.4388 32.2344 79.9763 32.2047C79.4699 32.1937 79.2991 32.3282 79.3116 32.857C79.3477 34.3415 79.3492 35.8291 79.3116 37.3136C79.2991 37.8361 79.4543 37.9816 79.9669 37.9722C81.6128 37.944 83.2587 37.9816 84.903 37.9503C85.4454 37.9393 85.6931 38.0191 85.6633 38.6527C85.6116 39.7445 85.657 39.7461 84.5237 39.7461C82.3809 39.7461 80.2396 39.7273 78.0984 39.7586C77.5325 39.7664 77.3381 39.6491 77.3491 39.0375C77.3898 36.7176 77.3647 34.3978 77.3647 32.0779V32.0811Z" fill="#FEFEFE"/>
<path d="M14.6808 9.19413C16.1527 11.2199 17.5823 13.1862 19.1028 15.2777C18.3865 15.2777 17.8237 15.2542 17.2641 15.2855C16.8691 15.3074 16.7186 15.0477 16.5415 14.7927C15.38 13.1268 14.2153 11.4639 13.0616 9.79169C12.8594 9.49916 12.6697 9.20038 12.2637 9.32866C11.8671 9.4538 12.063 9.81828 12.0599 10.067C12.0395 11.5765 12.0254 13.0876 12.063 14.5972C12.0772 15.1541 11.9063 15.3606 11.3624 15.2824C11.2087 15.2605 11.0457 15.2573 10.8937 15.2824C10.262 15.3919 10.182 15.0743 10.1867 14.5284C10.2134 11.8472 10.1993 9.1644 10.1993 6.48321C10.1993 4.92048 10.2181 3.35775 10.1883 1.79659C10.1789 1.27411 10.2917 1.05981 10.8686 1.08327C12.1947 1.13802 13.5318 1.01288 14.8439 1.30071C16.7672 1.72463 17.9523 3.13406 18.0071 5.03467C18.0651 7.02602 16.9397 8.53712 15.0053 9.06742C14.9316 9.08776 14.8627 9.12217 14.6808 9.19413ZM12.9597 2.77114C12.7293 2.96824 12.0505 2.35035 12.0505 3.21071C12.0505 4.58729 12.0568 5.96386 12.0458 7.34044C12.0442 7.65799 12.1273 7.80816 12.4816 7.80503C13.2387 7.79721 13.988 7.77531 14.7122 7.51095C15.7875 7.11675 16.3299 6.34086 16.3111 5.1958C16.2923 4.12113 15.7185 3.36714 14.6401 3.01517C14.1181 2.84623 13.5851 2.73673 12.9597 2.76958V2.77114Z" fill="#FEFEFE"/>
<path d="M16.6012 31.9933C16.6012 29.7001 16.6168 27.4052 16.5902 25.112C16.5839 24.5708 16.6592 24.3439 17.2924 24.3564C19.5904 24.4018 21.89 24.3893 24.188 24.3627C24.7116 24.3564 24.9232 24.4644 24.8997 25.0385C24.8433 26.4229 25.0204 26.1585 23.7946 26.171C22.2803 26.1851 20.7645 26.1929 19.2503 26.1648C18.7283 26.1554 18.5026 26.268 18.5324 26.8468C18.581 27.8088 18.5857 28.7771 18.5324 29.7392C18.4963 30.3618 18.7361 30.4681 19.2957 30.4556C20.8617 30.4196 22.4308 30.4666 23.9968 30.4306C24.536 30.4181 24.7241 30.551 24.6975 31.1142C24.6363 32.4626 24.8323 32.2014 23.5657 32.2154C22.1299 32.2311 20.6924 32.2389 19.2566 32.2092C18.7424 32.1982 18.5167 32.2984 18.5339 32.8818C18.5762 34.3664 18.5731 35.854 18.5339 37.3385C18.5198 37.886 18.7236 37.983 19.2127 37.9752C20.8837 37.9486 22.5578 38.0096 24.2272 37.947C25.0972 37.9142 24.8636 38.457 24.8903 38.9075C24.9185 39.3909 24.9796 39.7898 24.2131 39.771C21.89 39.7147 19.5638 39.735 17.2391 39.7616C16.725 39.7679 16.5855 39.6192 16.5917 39.1108C16.6184 36.7394 16.6027 34.3664 16.6027 31.9949L16.6012 31.9933Z" fill="#FEFEFE"/>
<path d="M124.626 27.3163C122.845 26.0023 120.989 25.5268 118.945 26.0711C117.557 26.4419 116.459 27.2553 115.641 28.4285C113.862 30.9783 114.196 34.4292 116.379 36.5879C118.306 38.4932 121.678 39.1048 124.556 36.7646C124.703 37.4827 124.617 38.1694 124.614 38.8452C124.614 39.1658 124.264 39.2034 124.041 39.3035C118.238 41.9221 112.519 37.5718 112.526 32.2047C112.534 26.5858 117.967 22.7611 123.273 24.449C124.637 24.8823 124.626 24.9136 124.626 26.3496V27.3148V27.3163Z" fill="#FEFEFE"/>
<path d="M44.8834 8.12753C44.8834 6.0173 44.8991 3.90707 44.8724 1.79684C44.8662 1.27124 44.9822 1.07257 45.5559 1.08196C47.6705 1.11637 49.7851 1.13045 51.8981 1.07726C52.7132 1.05693 52.5063 1.55437 52.533 1.98612C52.5612 2.45384 52.591 2.82614 51.884 2.79955C50.3463 2.74323 48.8038 2.79798 47.2645 2.77139C46.8193 2.76357 46.6829 2.8981 46.6986 3.33923C46.73 4.22462 46.7394 5.11157 46.6955 5.9954C46.6688 6.52569 46.7989 6.70715 47.3679 6.68994C48.8289 6.64458 50.293 6.71967 51.7523 6.65709C52.5737 6.62268 52.3543 7.1342 52.3793 7.56125C52.4076 8.02898 52.4358 8.40441 51.7273 8.37625C50.2679 8.31681 48.8038 8.38094 47.3429 8.34653C46.8193 8.33401 46.6845 8.50296 46.697 9.0051C46.7284 10.3598 46.7253 11.7145 46.6986 13.0691C46.6908 13.5165 46.8397 13.6385 47.2755 13.6323C48.8148 13.6088 50.3572 13.6636 51.895 13.6057C52.6239 13.5791 52.5439 13.9889 52.5314 14.4363C52.5204 14.8524 52.6929 15.3123 51.931 15.2951C49.7914 15.2498 47.6501 15.2623 45.5088 15.2904C44.9727 15.2982 44.8646 15.1121 44.8709 14.6146C44.8975 12.4528 44.8818 10.2909 44.8818 8.12753H44.8834Z" fill="#FEFEFE"/>
<path d="M124.282 8.2412C124.282 6.07779 124.294 3.91437 124.272 1.74939C124.267 1.26759 124.361 1.07205 124.909 1.08144C127.05 1.11585 129.193 1.12367 131.334 1.08144C132.187 1.06423 131.879 1.6305 131.926 2.03096C131.978 2.47835 131.967 2.81937 131.312 2.79903C129.773 2.75054 128.23 2.79903 126.689 2.774C126.225 2.76618 126.037 2.88037 126.058 3.37782C126.094 4.28824 126.087 5.20335 126.061 6.11377C126.048 6.55959 126.202 6.69568 126.645 6.68786C128.081 6.66283 129.52 6.7254 130.955 6.6597C131.685 6.62685 131.809 6.88183 131.804 7.53884C131.799 8.16612 131.665 8.40232 130.986 8.3773C129.552 8.32255 128.113 8.3773 126.677 8.3507C126.199 8.34132 126.047 8.4868 126.059 8.97016C126.09 10.2982 126.098 11.6295 126.056 12.9575C126.037 13.5395 126.271 13.6427 126.785 13.6333C128.299 13.6052 129.817 13.6568 131.329 13.6083C132.008 13.5864 131.966 13.9696 131.928 14.3967C131.895 14.7784 132.166 15.3055 131.367 15.2915C129.199 15.2524 127.031 15.2602 124.863 15.2915C124.341 15.2993 124.272 15.0991 124.275 14.6548C124.294 12.518 124.283 10.3796 124.283 8.2412H124.282Z" fill="#FEFEFE"/>
<path d="M68.4364 15.5858C66.3704 15.5811 64.6273 14.2249 64.1319 12.2586C64.0191 11.808 64.0441 11.5046 64.6006 11.4639C64.8075 11.4498 65.0207 11.4154 65.2119 11.3403C65.6916 11.1526 65.817 11.3466 65.9189 11.808C66.2261 13.1956 67.4817 14.0419 68.8941 13.8807C70.1152 13.7415 71.1216 12.5855 71.1623 11.2746C71.1874 10.4925 70.8896 9.8605 70.2814 9.36462C69.6637 8.86092 68.916 8.61063 68.2091 8.28057C67.6197 8.00525 67.0146 7.75653 66.455 7.43115C65.2323 6.72097 64.5348 5.68228 64.6664 4.2181C64.8122 2.61001 65.7433 1.6026 67.2231 1.08326C69.1449 0.409048 71.1325 0.9894 72.2157 2.46922C72.4916 2.84465 72.512 3.02767 72.0636 3.29517C71.4664 3.65183 71.0839 3.85675 70.4851 3.16377C69.5979 2.13603 67.72 2.33782 66.8626 3.39841C66.2794 4.12111 66.3594 5.06438 67.071 5.71043C67.5429 6.13905 68.1276 6.36587 68.7107 6.59895C69.3393 6.8508 69.9788 7.08701 70.5729 7.40613C72.6138 8.5027 73.3804 10.2281 72.8223 12.3649C72.316 14.3 70.5604 15.5889 68.4348 15.5842L68.4364 15.5858Z" fill="#FEFEFE"/>
<path d="M58.357 15.584C56.3255 15.5872 54.62 14.2732 54.0651 12.3381C53.9083 11.7938 53.9742 11.4981 54.5824 11.4418C54.7893 11.423 54.9993 11.387 55.1953 11.3213C55.5887 11.1884 55.733 11.3088 55.8223 11.7234C56.1327 13.161 57.2926 14.0041 58.7191 13.8883C59.9684 13.7867 60.9607 12.7151 61.0563 11.3589C61.1127 10.547 60.8259 9.88533 60.1926 9.36754C59.6581 8.93111 59.0279 8.67769 58.404 8.41333C57.708 8.11768 57.0074 7.83454 56.3615 7.43564C55.0981 6.65819 54.3943 5.58509 54.5949 4.05364C54.7971 2.51751 55.7314 1.5805 57.1422 1.07992C59.0655 0.396328 61.1315 1.01579 62.1818 2.53628C62.4107 2.86791 62.4106 3.01965 62.0423 3.2496C61.4482 3.62033 61.0453 3.92224 60.3995 3.16513C59.5138 2.12644 57.6469 2.33292 56.7801 3.3982C56.2361 4.06459 56.2722 4.97658 56.8741 5.59916C57.3209 6.06063 57.8914 6.31561 58.4777 6.54713C59.2035 6.83496 59.9433 7.08837 60.6268 7.47788C62.5219 8.55568 63.2524 10.1982 62.7477 12.2818C62.2915 14.1652 60.6629 15.4839 58.6705 15.5825C58.5671 15.5872 58.462 15.5825 58.357 15.5825V15.584Z" fill="#FEFEFE"/>
<path d="M31.8585 32.0079C31.8585 29.6897 31.8758 27.3714 31.846 25.0547C31.8382 24.5072 31.9886 24.3539 32.5388 24.3617C34.6001 24.3945 36.663 24.3961 38.7243 24.3617C39.2886 24.3523 39.425 24.5259 39.4015 25.0609C39.3419 26.3671 39.5802 26.1591 38.2807 26.1731C37.0283 26.1856 35.7742 26.195 34.5233 26.1653C34.0343 26.1544 33.8321 26.2607 33.8556 26.8004C33.8995 27.8141 33.8948 28.8324 33.8571 29.8461C33.8399 30.3388 34.0045 30.4609 34.4794 30.4515C35.8354 30.4218 37.1944 30.4577 38.5503 30.4311C39.0206 30.4218 39.2432 30.4921 39.2275 31.0506C39.1962 32.2144 39.2338 32.216 38.0801 32.216C36.906 32.216 35.7303 32.2442 34.5578 32.2035C34.0155 32.1847 33.8462 32.3302 33.8556 32.8886C33.8885 34.9457 33.8509 37.0043 33.8822 39.0613C33.8901 39.5885 33.7819 39.7762 33.2113 39.7637C31.8632 39.7324 31.8632 39.7637 31.8632 38.4137C31.8632 36.2785 31.8632 34.1416 31.8632 32.0064L31.8585 32.0079Z" fill="#FEFEFE"/>
<path d="M0.935792 8.13988C0.935792 6.00462 0.953035 3.86936 0.923252 1.73566C0.916981 1.21163 1.08471 1.07553 1.58945 1.08492C3.12721 1.11308 4.66653 1.06615 6.16352 1.51979C7.56803 1.94684 8.45682 2.84318 8.63866 4.31831C8.85028 6.0359 8.60417 7.60645 6.94886 8.60134C5.85785 9.25678 4.64615 9.41321 3.40623 9.36472C2.86386 9.34282 2.6883 9.50237 2.7024 10.0593C2.74002 11.5688 2.693 13.0799 2.72748 14.5895C2.74002 15.126 2.59738 15.3122 2.03777 15.2918C0.689689 15.2418 0.945197 15.3857 0.937359 14.2328C0.924819 12.2023 0.934224 10.1719 0.934224 8.13988H0.935792ZM2.71651 5.2913C2.71651 5.42114 2.68986 5.55879 2.72121 5.68081C2.89208 6.35815 2.26976 7.31706 3.07234 7.6878C3.70876 7.98188 4.5568 7.7269 5.28884 7.49382C6.45665 7.12309 7.00372 6.391 7.00215 5.18649C7.00215 4.04143 6.44881 3.32655 5.27943 2.97302C4.8029 2.8291 4.31383 2.7634 3.81222 2.76184C2.71651 2.75558 2.71651 2.74933 2.71651 3.80679C2.71651 4.3011 2.71651 4.79698 2.71651 5.2913Z" fill="#FEFEFE"/>
<path d="M35.9537 8.19139C35.9537 6.05456 35.971 3.91618 35.9412 1.77935C35.9334 1.23342 36.0854 1.07229 36.6403 1.08168C38.5198 1.11609 40.4024 1.13174 42.2819 1.07699C43.0688 1.05352 42.8619 1.54158 42.8666 1.93735C42.8728 2.3425 43.0531 2.83369 42.2772 2.79771C40.9996 2.73827 39.7174 2.80866 38.4383 2.76955C37.9053 2.75391 37.7721 2.9338 37.794 3.43438C37.8317 4.29317 37.8364 5.15666 37.794 6.01389C37.7674 6.55045 37.9069 6.73816 38.4759 6.71782C39.7017 6.67402 40.9322 6.73972 42.158 6.68967C42.8289 6.66151 42.7255 7.07918 42.68 7.43896C42.6361 7.79562 42.9982 8.38692 42.169 8.36659C40.9166 8.3353 39.661 8.37754 38.4085 8.34782C37.9273 8.33687 37.7878 8.48078 37.7956 8.96415C37.8238 10.8413 37.7862 12.7185 37.8207 14.594C37.8301 15.1447 37.6718 15.3027 37.1231 15.2901C35.9584 15.262 35.9569 15.2933 35.9569 14.1341C35.9569 12.1537 35.9569 10.1718 35.9569 8.19139H35.9537Z" fill="#FEFEFE"/>
<path d="M139.841 46.3944H0.131348C0.131348 46.3412 0.131348 46.288 0.131348 46.2349H139.835C139.836 46.288 139.839 46.3412 139.841 46.3944Z" fill="#FEFEFE"/>
<path d="M6.12509 58.1893C5.46046 58.6711 4.70021 58.352 3.99011 58.4098C2.92576 58.4974 1.85043 58.413 0.779799 58.438C0.342457 58.4489 0.187271 58.3207 0.193541 57.8686C0.217054 56.2276 0.207649 54.5851 0.199811 52.9426C0.198244 52.6126 0.240567 52.4139 0.660667 52.417C3.15618 52.4342 5.65327 52.4248 8.29456 52.4248C7.06718 53.5011 6.55773 54.6336 7.57506 55.9852C7.02329 56.6078 6.38374 55.7756 5.79121 56.1948C6.30536 56.4904 6.74897 56.8987 7.37599 56.4717C7.52334 56.9097 7.19102 57.1318 7.12048 57.307C6.92611 58.0266 7.79609 56.9269 7.53744 57.7012C7.12675 58.0375 6.57811 57.9734 6.12509 58.1861V58.1893ZM4.6281 55.8538C4.26913 56.1588 3.86001 56.42 3.49947 57.0333C4.11395 56.7079 4.5701 56.5436 4.76761 56.0384C4.91339 55.957 5.18457 55.835 5.10463 55.7239C4.94631 55.5049 4.77074 55.7239 4.6281 55.8538ZM4.28794 57.6777C4.93534 57.2632 5.76299 57.6042 6.40098 57.1209C6.02477 56.7266 5.4777 56.7673 5.07014 56.5358C4.7488 56.3528 4.63907 56.5061 4.6955 56.7141C4.81934 57.1787 4.39297 57.3258 4.28794 57.6777ZM7.01389 57.5682C6.7333 57.4321 6.59692 57.587 6.44174 57.8029C6.73173 57.8999 6.92767 57.8842 7.01389 57.5682Z" fill="#FEFEFE"/>
<path d="M14.164 58.4288C13.1216 58.4288 12.0792 58.4382 11.0352 58.421C10.8362 58.4178 10.496 58.5727 10.4631 58.2426C10.4364 57.9798 10.7343 57.6623 10.949 57.728C12.3238 58.1503 12.3473 57.1429 12.5448 56.2998C12.5558 56.2544 12.642 56.1965 12.6326 56.1778C12.1357 55.3127 12.4664 54.1598 11.772 53.4168C11.3989 53.0163 12.0244 52.8443 11.7814 52.5189C11.703 52.4141 12.0683 52.4344 12.2203 52.4329C13.9415 52.4219 15.661 52.4485 17.3822 52.4125C17.9308 52.4016 18.0265 52.6081 18.0186 53.093C17.9935 54.6541 17.9888 56.2153 18.0202 57.7749C18.0296 58.2817 17.8979 58.4585 17.3697 58.4397C16.3022 58.4006 15.2331 58.4272 14.164 58.4272V58.4288Z" fill="#4C4C4C"/>
<path d="M134.057 8.19295C134.057 6.05613 134.093 3.91931 134.037 1.78405C134.017 1.03944 134.394 1.05196 134.893 1.09889C135.346 1.14112 135.934 0.83765 135.923 1.77153C135.877 5.47108 135.92 9.17064 135.888 12.8718C135.882 13.5053 136.07 13.668 136.674 13.6367C137.638 13.5882 138.605 13.6414 139.57 13.6148C139.987 13.6038 140.164 13.6867 140.166 14.1607C140.169 15.2792 140.197 15.2792 139.055 15.2792C137.619 15.2792 136.181 15.2557 134.747 15.2917C134.208 15.3042 134.032 15.1666 134.042 14.6034C134.076 12.4666 134.056 10.3298 134.056 8.19452L134.057 8.19295Z" fill="#FEFEFE"/>
<path d="M74.7993 8.18664C74.7993 6.05295 74.8165 3.91925 74.7867 1.78556C74.7789 1.25057 74.9075 1.05816 75.4733 1.08319C76.8355 1.14264 76.6145 0.923634 76.6176 2.25798C76.6286 6.34391 76.5957 10.4298 76.6443 14.5142C76.6537 15.3308 76.2602 15.287 75.7053 15.2885C75.1473 15.2885 74.7476 15.3292 74.7742 14.5111C74.8447 12.4055 74.7977 10.2953 74.7977 8.18821L74.7993 8.18664Z" fill="#FEFEFE"/>
<path d="M79.3136 55.1751C79.3136 54.4461 79.3371 53.7156 79.3042 52.9882C79.2854 52.5627 79.4453 52.4688 79.8434 52.4626C80.2463 52.4563 80.3152 52.6143 80.3105 52.9663C80.2933 54.1113 80.3325 55.258 80.2917 56.4015C80.2729 56.9302 80.403 57.0882 80.9611 57.1085C81.6743 57.1351 82.4142 56.8536 83.1227 57.2853C83.3343 57.4136 83.4158 57.0162 83.4879 56.8317C83.9848 55.574 84.4755 54.3131 84.9426 53.0429C85.0821 52.6612 85.2373 52.4579 85.706 52.4532C86.1857 52.4485 86.3252 52.68 86.4631 53.0476C87.0024 54.4805 87.5682 55.9025 88.0996 57.3385C88.1686 57.5231 88.5291 57.8453 88.0745 57.9486C87.7799 58.0143 87.319 58.1879 87.1607 57.6545C87.1528 57.6294 87.1356 57.6075 87.1325 57.5825C87.0008 56.5798 86.3675 56.4312 85.4771 56.4891C84.8877 56.5266 84.499 56.5939 84.3532 57.2431C84.2325 57.7827 83.8955 58.0408 83.2622 57.9986C82.2229 57.9298 81.1727 57.9235 80.135 57.9986C79.3982 58.0518 79.2478 57.7812 79.3042 57.1257C79.359 56.4797 79.3167 55.8258 79.3167 55.1751H79.3136ZM85.695 53.4559C85.4176 54.2287 85.2154 54.8122 84.9975 55.3894C84.8972 55.6537 84.9583 55.7804 85.2514 55.7758C85.5101 55.7711 85.7687 55.7679 86.0273 55.7758C86.3753 55.7883 86.5007 55.6819 86.3581 55.3205C86.1418 54.773 85.9615 54.2115 85.6935 53.4543L85.695 53.4559Z" fill="#FEFEFE"/>
<path d="M50.5978 56.6251C51.0555 55.3252 51.5195 54.1989 51.8377 53.0319C52.0556 52.231 52.612 52.5016 53.0729 52.486C53.6733 52.4672 53.4193 52.9646 53.424 53.2368C53.4491 54.6165 53.424 55.9978 53.4428 57.3791C53.4475 57.7748 53.4052 58.0001 52.9083 57.9954C52.3926 57.9907 52.4663 57.6857 52.4663 57.3775C52.4663 56.392 52.4663 55.4065 52.4663 54.4194C52.4067 54.4054 52.3456 54.3913 52.286 54.3772C51.9302 55.358 51.5822 56.342 51.2122 57.3196C51.1025 57.6106 51.1072 57.9798 50.604 57.9954C50.0726 58.0126 50.0287 57.6466 49.908 57.3181C49.5632 56.3826 49.2309 55.444 48.8938 54.5055C48.8123 54.5133 48.7308 54.5227 48.6509 54.5305C48.6509 55.4925 48.6415 56.4546 48.6556 57.4151C48.6619 57.7717 48.6352 58.0142 48.1681 57.9892C47.8311 57.9719 47.7104 57.8718 47.7119 57.5339C47.7229 55.9962 47.7182 54.4601 47.7151 52.9224C47.7151 52.6643 47.7417 52.4203 48.0819 52.4782C48.4941 52.5485 49.0443 52.2013 49.2638 52.8911C49.5569 53.8062 49.8908 54.7104 50.2106 55.6161C50.3109 55.9008 50.4269 56.1793 50.5978 56.6204V56.6251Z" fill="#FEFEFE"/>
<path d="M89.7064 54.3711C89.7064 55.3706 89.7064 56.3687 89.7064 57.3683C89.7064 57.6749 89.7864 57.9861 89.2706 57.9955C88.7377 58.0049 88.7643 57.7077 88.7659 57.3479C88.7737 55.9416 88.7628 54.5369 88.7753 53.1306C88.7769 52.9022 88.6185 52.533 89.012 52.497C89.3694 52.4642 89.7691 52.3422 90.0434 52.8068C90.7128 53.9409 91.4323 55.0453 92.3023 56.1356C92.3023 55.147 92.3023 54.1583 92.3023 53.1697C92.3023 52.8146 92.2004 52.4454 92.8117 52.4595C93.3791 52.4736 93.2726 52.8162 93.2726 53.1384C93.2741 54.5181 93.2835 55.8978 93.2647 57.2775C93.2616 57.5184 93.4622 57.9204 93.0045 57.9627C92.6408 57.9971 92.2427 58.1019 91.9746 57.642C91.3743 56.608 90.7253 55.6006 90.0936 54.5838C90.0419 54.5009 89.9745 54.4258 89.9149 54.3476C89.8444 54.3554 89.7754 54.3632 89.7048 54.3711H89.7064Z" fill="#FEFEFE"/>
<path d="M35.8311 54.9857C36.6478 55.4159 36.8359 56.0916 36.6447 56.8628C36.4518 57.6403 35.8013 57.8875 35.0912 57.9328C34.2604 57.9844 33.4265 57.9578 32.5941 57.986C32.2587 57.997 32.1349 57.8812 32.138 57.5402C32.1505 56.0056 32.1552 54.4726 32.1349 52.938C32.1302 52.5344 32.301 52.4641 32.649 52.4734C33.3513 52.4922 34.0551 52.4734 34.7589 52.4797C35.4047 52.486 36.0459 52.5689 36.339 53.2478C36.6258 53.9126 36.4691 54.5164 35.8327 54.9873L35.8311 54.9857ZM34.1209 55.4925C33.878 55.6536 33.345 55.2282 33.1694 55.6834C33.0221 56.0666 33.0362 56.586 33.1726 56.9786C33.2964 57.3353 33.7682 57.0928 34.0802 57.1507C34.1303 57.1601 34.1836 57.1522 34.2354 57.1507C35.306 57.1444 35.7041 56.9145 35.701 56.3044C35.6979 55.6943 35.3295 55.4925 34.1209 55.4925ZM34.0049 54.7323C34.2902 54.7323 34.5254 54.7526 34.7573 54.7276C35.2151 54.6775 35.4612 54.4132 35.4392 53.9454C35.4188 53.4949 35.1383 53.3119 34.715 53.3041C34.4031 53.2978 34.088 53.3244 33.7792 53.29C33.2807 53.2321 33.1459 53.4011 33.1036 53.9204C33.0393 54.7291 33.3889 54.8731 34.0049 54.7307V54.7323Z" fill="#FEFEFE"/>
<path d="M46.0514 55.3346C47.1471 55.9478 46.4307 57.0976 46.9715 57.8828C45.8523 58.0784 45.8225 58.0534 45.7755 56.9787C45.7285 55.9259 44.4086 55.2235 43.4791 55.7523C43.3051 55.8508 43.3286 56.0057 43.3286 56.1574C43.3255 56.5735 43.3223 56.9896 43.3286 57.4073C43.3349 57.7311 43.3725 58.0049 42.8693 58.0002C42.3865 57.9955 42.3191 57.8015 42.3238 57.3917C42.3426 55.9603 42.3473 54.529 42.3222 53.0977C42.3144 52.6393 42.4053 52.4344 42.9179 52.4673C43.6186 52.5126 44.3255 52.4735 45.0294 52.4798C45.7442 52.486 46.4166 52.6315 46.6925 53.3855C46.9684 54.1395 46.7913 54.8121 46.0514 55.3346ZM44.2801 53.3057C44.0277 53.4324 43.5245 53.0242 43.3427 53.5466C43.0119 54.4962 43.3662 54.9482 44.3694 54.9467C44.5262 54.9467 44.6814 54.9482 44.8381 54.9467C45.4103 54.9342 45.8022 54.7167 45.7833 54.0754C45.7645 53.4559 45.3413 53.3182 44.824 53.3073C44.6688 53.3042 44.5121 53.3073 44.2801 53.3073V53.3057Z" fill="#FEFEFE"/>
<path d="M67.9566 55.2596C67.9566 54.5307 67.9738 53.8001 67.9503 53.0712C67.9362 52.6645 68.0067 52.4486 68.4958 52.4658C69.4865 52.5018 70.4803 52.4924 71.4726 52.4689C71.8613 52.4595 71.9569 52.6019 71.9601 52.9648C71.9648 53.37 71.7312 53.3543 71.4553 53.3512C70.8032 53.3465 70.1464 53.3887 69.4975 53.3371C68.8877 53.2886 68.9817 53.6719 68.9833 54.0254C68.9864 54.3711 68.8673 54.7716 69.4865 54.7215C70.0837 54.673 70.6872 54.7215 71.2876 54.7074C71.5839 54.6996 71.7845 54.7184 71.7829 55.1063C71.7829 55.4677 71.6309 55.5443 71.308 55.5334C70.6825 55.5146 70.0539 55.5412 69.4285 55.524C68.7059 55.5052 69.0194 56.0418 68.9974 56.3531C68.9755 56.6597 68.7858 57.1258 69.4426 57.093C70.1464 57.0586 70.8534 57.0945 71.5572 57.0805C71.866 57.0742 72.04 57.129 72.04 57.4997C72.04 57.8736 71.9146 57.9956 71.5384 57.9877C70.5211 57.9658 69.5006 57.9643 68.4833 57.9877C68.0694 57.9971 67.9346 57.8579 67.9487 57.4481C67.9754 56.7191 67.9566 55.9886 67.9566 55.2596Z" fill="#FEFEFE"/>
<path d="M37.5068 55.1997C37.5068 54.4707 37.5241 53.7418 37.5006 53.0144C37.488 52.6248 37.5836 52.4559 38.0163 52.4684C39.032 52.4981 40.0509 52.4888 41.0667 52.4715C41.4069 52.4653 41.5229 52.5779 41.5276 52.9174C41.5307 53.2631 41.4069 53.3695 41.0698 53.3585C40.4193 53.3366 39.7625 53.396 39.1151 53.3397C38.4928 53.2865 38.5336 53.6463 38.532 54.0562C38.5304 54.4457 38.5038 54.7773 39.0791 54.7257C39.6481 54.6756 40.2265 54.7257 40.7987 54.71C41.1012 54.7022 41.2846 54.7398 41.283 55.1183C41.2815 55.4906 41.109 55.5438 40.8018 55.536C40.203 55.5204 39.6011 55.5485 39.0023 55.5266C38.2875 55.5 38.5649 56.0287 38.5524 56.3479C38.5398 56.6529 38.3314 57.1253 38.9929 57.094C39.6951 57.0612 40.4005 57.0987 41.1043 57.0815C41.446 57.0737 41.5526 57.202 41.5511 57.5367C41.5495 57.8777 41.4288 57.9904 41.0934 57.9857C40.0509 57.9716 39.007 57.9653 37.9646 57.9888C37.5507 57.9982 37.4974 57.8027 37.5037 57.4648C37.5194 56.7108 37.5084 55.9552 37.5084 55.2012L37.5068 55.1997Z" fill="#FEFEFE"/>
<path d="M99.8622 55.2251C99.8622 54.4695 99.8795 53.7124 99.8544 52.9584C99.8418 52.5814 99.9657 52.4625 100.342 52.4703C101.359 52.4922 102.38 52.4954 103.397 52.4688C103.753 52.4594 103.841 52.5783 103.842 52.9083C103.844 53.2337 103.765 53.3745 103.405 53.3589C102.779 53.3307 102.149 53.3901 101.525 53.3401C100.939 53.2932 100.843 53.545 100.84 54.0597C100.837 54.5602 100.949 54.7698 101.488 54.726C102.058 54.6791 102.637 54.726 103.21 54.712C103.504 54.7057 103.632 54.798 103.631 55.1109C103.629 55.405 103.541 55.541 103.231 55.5348C102.604 55.5223 101.977 55.5489 101.351 55.527C100.582 55.4988 100.909 56.0651 100.87 56.4061C100.829 56.7518 100.751 57.1476 101.37 57.1006C102.046 57.049 102.728 57.096 103.406 57.085C103.707 57.0803 103.897 57.1225 103.897 57.5011C103.897 57.8765 103.77 57.9985 103.395 57.9907C102.378 57.9688 101.358 57.9688 100.34 57.9907C99.9594 57.9985 99.8434 57.8687 99.8544 57.4948C99.8795 56.7393 99.8622 55.9837 99.8622 55.2282V55.2251Z" fill="#FEFEFE"/>
<path d="M110.944 57.4338C109.431 58.4162 108.191 58.3567 107.23 57.2617C106.442 56.3622 106.341 54.64 107.012 53.5168C107.613 52.5125 108.671 52.0964 109.915 52.3921C110.583 52.5501 111.097 52.9239 111.392 53.5559C111.475 53.7327 111.643 53.9845 111.411 54.1065C111.202 54.2176 110.926 54.2254 110.716 53.9658C109.962 53.0319 109.428 52.8207 108.636 53.1007C107.841 53.3823 107.385 54.1644 107.388 55.2391C107.393 56.7643 108.16 57.5542 109.487 57.4072C109.923 57.3587 110.285 57.1679 110.555 56.8253C110.785 56.5296 110.98 56.162 110.826 55.8179C110.691 55.5191 110.309 55.7287 110.041 55.6896C109.862 55.663 109.675 55.6786 109.494 55.688C109.254 55.7005 109.174 55.577 109.168 55.358C109.161 55.1515 109.199 54.9997 109.454 55.0013C110.08 55.0044 110.707 55.0091 111.332 54.9997C111.651 54.9951 111.636 55.1968 111.636 55.4127C111.633 56.0635 111.649 56.7142 111.627 57.365C111.621 57.5699 111.781 57.8812 111.458 57.9641C111.042 58.072 111.071 57.659 110.944 57.4369V57.4338Z" fill="#FEFEFE"/>
<path d="M139.841 57.8857C138.857 58.0578 138.838 58.0374 138.782 57.1035C138.753 56.628 138.935 56.0336 138.384 55.7692C137.703 55.4454 136.946 55.63 136.223 55.6441C135.97 55.6488 136.07 55.9288 136.065 56.0914C136.053 56.5592 136.051 57.0285 136.065 57.4962C136.075 57.7981 136.026 57.9936 135.65 57.9858C135.311 57.9795 135.278 57.7997 135.28 57.5353C135.286 55.9741 135.286 54.413 135.28 52.8518C135.28 52.5749 135.339 52.4013 135.667 52.4185C136.601 52.4685 137.545 52.3152 138.473 52.5217C139.594 52.772 140.056 53.975 139.333 54.8729C139.081 55.1857 139.067 55.3077 139.348 55.5862C139.617 55.8552 139.547 56.2729 139.561 56.6327C139.576 57.066 139.548 57.504 139.84 57.8873L139.841 57.8857ZM137.213 53.1443C136.438 53.1443 136.055 53.5218 136.062 54.2769C136.062 54.3817 136.068 54.4865 136.059 54.5897C136.037 54.8619 136.167 54.9589 136.427 54.948C136.974 54.9245 137.521 54.9292 138.067 54.8885C138.611 54.8478 138.835 54.4849 138.824 53.9797C138.813 53.4572 138.537 53.16 137.995 53.1475C137.735 53.1412 137.473 53.1475 137.213 53.1443Z" fill="#FEFEFE"/>
<path d="M117.879 55.1983C117.89 56.9003 116.799 58.1001 115.214 58.1329C113.598 58.1658 112.463 56.9628 112.458 55.2124C112.453 53.4885 113.515 52.3169 115.118 52.2778C116.723 52.2387 117.866 53.4479 117.879 55.1983ZM113.294 55.2202C113.303 56.5546 114.055 57.4134 115.201 57.393C116.319 57.3727 117.09 56.4435 117.06 55.1498C117.031 53.8734 116.275 53.0193 115.173 53.0177C114.03 53.0177 113.286 53.889 113.295 55.2202H113.294Z" fill="#FEFEFE"/>
<path d="M96.5394 52.3623C97.6539 52.3592 98.4141 52.6674 98.8374 53.5496C98.9377 53.7592 99.1775 54.0877 98.8374 54.2051C98.5787 54.2942 98.1524 54.4319 97.9439 54.008C97.7495 53.6122 97.4548 53.3259 97.0347 53.2008C96.392 53.0099 95.6459 53.3525 95.3292 53.997C94.9405 54.7917 94.9405 55.6098 95.3167 56.4092C95.6004 57.0161 96.102 57.2898 96.7729 57.2523C97.4078 57.2163 97.8341 56.8425 97.9439 56.2762C98.0646 55.6489 98.4894 55.7662 98.8186 55.8476C99.2653 55.9586 98.9643 56.3481 98.9001 56.5484C98.6446 57.3462 98.0928 57.8858 97.2432 58.0298C96.2619 58.1956 95.3684 58.0204 94.6959 57.2069C93.5438 55.8116 93.9341 53.4495 95.4405 52.6298C95.8465 52.4093 96.2713 52.342 96.5394 52.3623Z" fill="#FEFEFE"/>
<path d="M23.9315 52.3654C24.9723 52.3529 25.7326 52.6736 26.1558 53.5449C26.2467 53.7326 26.5508 54.0611 26.1981 54.2003C25.9379 54.3036 25.488 54.4381 25.2889 54.0439C24.9143 53.2977 24.3406 53.0271 23.5537 53.2367C22.8608 53.4213 22.4595 54.0673 22.3937 55.0075C22.3592 55.5096 22.4157 55.9992 22.6555 56.4466C22.9533 57.0004 23.4189 57.2851 24.06 57.2569C24.6854 57.2288 25.0679 56.8878 25.2686 56.3168C25.3344 56.1291 25.3062 55.86 25.5805 55.8366C25.8078 55.8178 26.079 55.7975 26.2592 55.9023C26.4803 56.0305 26.3016 56.2746 26.2451 56.4654C25.8125 57.9468 24.0804 58.585 22.6837 57.7653C21.7024 57.1897 21.3482 56.2511 21.3591 55.1827C21.3701 54.1127 21.7636 53.1992 22.7527 52.6391C23.1508 52.4139 23.5819 52.3372 23.9283 52.367L23.9315 52.3654Z" fill="#FEFEFE"/>
<path d="M56.575 52.4906C56.9951 52.3843 57.1221 52.6408 57.2428 52.9615C57.8024 54.4382 58.3839 55.9071 58.9357 57.3869C58.9984 57.5574 59.3166 57.8515 58.9263 57.9485C58.6426 58.0189 58.246 58.1471 58.0109 57.7686C57.9576 57.6825 57.909 57.5793 57.898 57.4807C57.8102 56.6016 57.2679 56.5031 56.4935 56.4827C55.6815 56.4624 55.2097 56.6704 55.089 57.4917C54.9981 58.1096 54.4933 58.0814 54.1359 57.9516C53.6406 57.7717 54.0999 57.4197 54.1767 57.2023C54.6751 55.8101 55.2426 54.4429 55.7473 53.0522C55.9041 52.6205 56.0985 52.3686 56.5734 52.4891L56.575 52.4906ZM56.5405 53.5747C56.1643 54.202 56.0483 54.8402 55.8069 55.4284C55.7113 55.6615 55.7897 55.7725 56.0279 55.7694C56.4135 55.7647 56.9167 55.8899 57.1519 55.6943C57.4152 55.4769 57.0406 55.0545 56.9465 54.7213C56.8431 54.3568 56.6957 54.0049 56.5405 53.5747Z" fill="#FEFEFE"/>
<path d="M123.086 54.5508C123.086 55.0967 123.109 55.6442 123.081 56.1902C123.018 57.379 122.161 58.1236 120.88 58.1362C119.603 58.1487 118.758 57.3962 118.728 56.173C118.701 55.0811 118.728 53.9877 118.72 52.8942C118.717 52.586 118.781 52.403 119.148 52.4124C119.499 52.4202 119.505 52.6267 119.504 52.8786C119.501 53.8672 119.484 54.8558 119.507 55.8445C119.532 56.9113 120.013 57.4103 120.938 57.3931C121.836 57.3759 122.288 56.8394 122.293 55.7725C122.296 54.8355 122.296 53.8985 122.293 52.963C122.293 52.6674 122.26 52.4062 122.716 52.4077C123.211 52.4109 123.086 52.7315 123.09 52.9896C123.101 53.5105 123.094 54.0299 123.094 54.5508H123.089H123.086Z" fill="#FEFEFE"/>
<path d="M65.106 56.6673C65.5418 55.333 65.9165 54.1754 66.3021 53.0209C66.3789 52.7925 66.3726 52.4875 66.7488 52.4734C67.2034 52.4562 67.578 52.3921 67.3116 53.0976C66.7676 54.5336 66.288 55.9962 65.8161 57.4588C65.6766 57.8921 65.4399 57.986 65.0167 57.9969C64.5731 58.0079 64.4367 57.792 64.3223 57.4416C63.8552 56.0087 63.3598 54.5837 62.9115 53.1461C62.8535 52.9599 62.4898 52.6252 62.9131 52.5125C63.2658 52.4187 63.7266 52.3092 63.8943 52.9349C64.1906 54.0362 64.5668 55.1171 64.9117 56.2058C64.9415 56.2981 64.9869 56.3857 65.1076 56.6689L65.106 56.6673Z" fill="#FEFEFE"/>
<path d="M29.1294 54.8494C29.4899 54.2394 29.8332 53.7482 30.0808 53.2147C30.3787 52.5718 30.805 52.3075 31.5684 52.5405C31.2988 53.2351 30.8678 53.842 30.4492 54.4349C29.8269 55.3172 29.4664 56.237 29.6184 57.3304C29.6639 57.6558 29.7093 57.9952 29.1497 57.9968C28.6466 57.9984 28.5697 57.7668 28.6293 57.382C28.8064 56.2526 28.3942 55.3156 27.7484 54.4239C27.3298 53.8436 26.985 53.2116 26.5884 52.5718C27.3518 52.3341 27.8314 52.492 28.1481 53.1928C28.3926 53.731 28.75 54.219 29.1309 54.851L29.1294 54.8494Z" fill="#FEFEFE"/>
<path d="M126.313 56.7439C126.723 55.5174 127.132 54.291 127.544 53.0662C127.602 52.8941 127.641 52.7033 127.743 52.5594C127.928 52.2981 128.259 52.3654 128.463 52.4436C128.731 52.5469 128.516 52.7971 128.45 52.977C127.908 54.4709 127.356 55.9617 126.821 57.4572C126.709 57.7747 126.6 57.9984 126.183 57.9937C125.788 57.9906 125.71 57.7513 125.611 57.4791C125.07 55.9899 124.523 54.5007 123.994 53.0083C123.931 52.83 123.633 52.5578 124.025 52.4421C124.312 52.3576 124.644 52.3419 124.78 52.769C125.08 53.7107 125.407 54.643 125.724 55.5785C125.854 55.9648 125.989 56.3497 126.122 56.7345C126.185 56.7376 126.249 56.7407 126.312 56.7423L126.313 56.7439Z" fill="#FEFEFE"/>
<path d="M130.578 55.1606C130.578 54.4301 130.592 53.7011 130.572 52.9706C130.563 52.603 130.613 52.3934 131.069 52.409C132.035 52.4419 133.002 52.4294 133.967 52.4122C134.254 52.4075 134.398 52.456 134.4 52.7813C134.402 53.1114 134.246 53.1568 133.966 53.1489C133.287 53.1317 132.607 53.1661 131.93 53.1349C131.506 53.1145 131.345 53.2146 131.346 53.6792C131.351 54.7946 131.323 54.7961 132.437 54.7961C132.856 54.7961 133.273 54.8055 133.691 54.7914C133.948 54.7836 134.075 54.8603 134.074 55.1418C134.074 55.4156 133.961 55.5016 133.698 55.4954C133.149 55.4813 132.594 55.5407 132.053 55.4782C131.428 55.4046 131.285 55.6596 131.353 56.2134C131.393 56.5481 131.392 56.8938 131.35 57.2286C131.315 57.5055 131.594 57.967 130.986 57.9795C130.31 57.9935 130.608 57.4805 130.591 57.1926C130.55 56.5169 130.578 55.8379 130.578 55.1606Z" fill="#FEFEFE"/>
<path d="M59.624 55.175C59.624 54.4226 59.6412 53.6686 59.6177 52.9161C59.6052 52.5063 59.809 52.4609 60.146 52.4562C60.4987 52.4515 60.6664 52.5329 60.6601 52.9287C60.6413 54.1222 60.6696 55.3173 60.6445 56.5125C60.6351 56.9379 60.737 57.1194 61.1994 57.0881C61.7684 57.049 62.3452 57.1006 62.9158 57.0709C63.3014 57.0506 63.408 57.196 63.4018 57.5621C63.3955 57.9062 63.2654 58.0032 62.9362 57.997C62.0004 57.9798 61.0614 57.9704 60.1272 58.0001C59.6773 58.0142 59.613 57.8046 59.6209 57.4354C59.6381 56.683 59.6256 55.929 59.6256 55.1765L59.624 55.175Z" fill="#FEFEFE"/>
<path d="M74.9284 55.1702C74.9284 54.4428 74.9519 53.7139 74.919 52.988C74.9001 52.5641 75.06 52.4656 75.4582 52.4624C75.8642 52.4593 75.9222 52.6361 75.9175 52.9787C75.9018 54.1738 75.9269 55.3689 75.9018 56.564C75.894 56.9676 76.0053 57.1146 76.4222 57.0927C77.0461 57.0599 77.6715 57.0912 78.297 57.0818C78.5807 57.0771 78.7328 57.1569 78.7187 57.4791C78.7061 57.7607 78.7093 57.9907 78.3189 57.9844C77.3298 57.9688 76.3407 57.9688 75.35 57.9844C74.9911 57.9907 74.9174 57.8233 74.9221 57.5089C74.9362 56.7298 74.9268 55.9492 74.9268 55.1702H74.9284Z" fill="#FEFEFE"/>
<path d="M53.1049 20.3928C52.0311 21.3814 51.0075 22.3278 49.9777 23.2664C49.5607 23.6465 49.3318 23.1584 49.0481 23.0192C48.6735 22.8362 48.9901 22.6344 49.1077 22.4733C49.7237 21.6395 50.3774 20.8323 50.9621 19.9767C51.2583 19.5449 51.517 19.4511 51.9543 19.7498C52.2929 19.9813 52.6707 20.1534 53.1033 20.3912L53.1049 20.3928Z" fill="#FEFEFE"/>
<path d="M23.433 20.3885C22.3593 21.3725 21.3294 22.3142 20.3027 23.2575C19.8747 23.6501 19.6537 23.1667 19.3778 23.0212C18.9389 22.7882 19.3653 22.5832 19.4781 22.4253C20.066 21.6024 20.7102 20.8172 21.2777 19.9818C21.5739 19.5454 21.8326 19.4578 22.2715 19.7566C22.6101 19.9881 22.9941 20.1539 23.4315 20.3901L23.433 20.3885Z" fill="#FEFEFE"/>
<path d="M138.35 20.4367C137.327 21.38 136.31 22.3092 135.302 23.2493C134.873 23.6514 134.647 23.1758 134.368 23.0335C133.945 22.816 134.319 22.6001 134.446 22.4265C135.045 21.6053 135.688 20.8153 136.263 19.9784C136.561 19.5451 136.831 19.445 137.26 19.761C137.591 20.0034 138.022 20.0863 138.35 20.4367Z" fill="#FEFEFE"/>
<path d="M119.286 62.4615C119.286 62.4349 119.286 62.4099 119.286 62.3833C119.286 60.9786 119.283 61.038 119.742 61.0599C120.319 61.0865 120.935 60.6547 121.458 61.2022C121.676 61.4306 121.75 61.2085 121.892 61.1303C122.904 60.5765 123.662 61.0005 123.69 62.1377C123.705 62.6836 123.694 63.2296 123.69 63.7755C123.69 63.9507 123.62 64.0821 123.416 64.0618C123.245 64.0446 123.23 63.9053 123.228 63.7739C123.225 63.228 123.22 62.6821 123.228 62.1361C123.233 61.7028 123.129 61.3399 122.626 61.2945C122.128 61.2507 121.816 61.537 121.756 62C121.689 62.5131 121.72 63.0372 121.697 63.5549C121.687 63.7442 121.789 64.0493 121.494 64.0586C121.135 64.0696 121.247 63.7348 121.24 63.5268C121.226 63.0591 121.229 62.5898 121.239 62.122C121.248 61.684 121.138 61.3196 120.631 61.2977C120.132 61.2758 119.844 61.6074 119.789 62.0548C119.726 62.5679 119.772 63.0935 119.759 63.6128C119.754 63.8037 119.828 64.0821 119.496 64.0586C119.234 64.0399 119.293 63.8021 119.29 63.63C119.284 63.2405 119.289 62.8494 119.289 62.4599L119.286 62.4615Z" fill="#FEFEFE"/>
<path d="M73.8421 55.2029C73.8421 55.9334 73.8248 56.6624 73.8483 57.3913C73.8624 57.8012 73.7841 58.0077 73.3013 58.0045C72.8529 58.0014 72.7887 57.8106 72.7918 57.4367C72.8059 55.9506 72.809 54.4646 72.7902 52.98C72.784 52.5639 72.9282 52.4529 73.3342 52.4497C73.7731 52.4466 73.8593 52.6296 73.8483 53.0129C73.8264 53.7419 73.8421 54.4724 73.8421 55.2029Z" fill="#FEFEFE"/>
<path d="M103.508 63.7376C102.885 64.1334 102.239 64.2726 101.62 63.7971C101.084 63.3857 101.032 62.7787 101.104 62.1655C101.198 61.3693 101.722 60.9892 102.532 60.9078C102.971 60.864 103.35 61.3114 103.825 60.961C103.99 60.839 104.052 61.1425 104.052 61.3286C104.049 62.4987 104.052 63.6688 104.049 64.8389C104.049 65.0204 104.068 65.2315 103.783 65.2018C103.552 65.1768 103.614 64.9859 103.599 64.842C103.565 64.4854 103.676 64.1178 103.508 63.7361V63.7376ZM103.571 62.4862C103.566 61.8026 103.085 61.2629 102.504 61.2864C101.957 61.3083 101.555 61.8261 101.558 62.5065C101.562 63.2152 101.939 63.6766 102.523 63.6876C103.132 63.6985 103.576 63.1901 103.571 62.4862Z" fill="#FEFEFE"/>
<path d="M132.871 63.6643C132.189 64.107 131.598 64.2384 131.005 63.8536C130.43 63.4781 130.352 62.8853 130.4 62.2642C130.469 61.3726 130.977 60.9706 131.891 60.9189C132.297 60.8955 132.659 61.3084 133.1 60.969C133.241 60.8595 133.3 61.127 133.3 61.2819C133.3 62.4785 133.3 63.6737 133.3 64.8703C133.3 65.019 133.328 65.202 133.093 65.2035C132.866 65.2035 132.872 65.033 132.872 64.8782C132.871 64.5168 132.872 64.1555 132.872 63.6658L132.871 63.6643ZM132.872 62.4864C132.868 61.8059 132.397 61.2693 131.816 61.2787C131.242 61.2881 130.802 61.8481 130.823 62.538C130.845 63.2216 131.256 63.694 131.827 63.6909C132.441 63.6877 132.877 63.1856 132.872 62.4864Z" fill="#FEFEFE"/>
<path d="M17.7735 60.9158H0.20459C0.431882 60.5952 0.684256 60.6906 0.889603 60.6906C2.5606 60.6812 4.23002 60.6874 5.90101 60.6843C6.37441 60.6843 6.93559 60.8501 6.95753 60.0383C6.96223 59.8834 7.04688 59.3797 7.38077 59.5236C7.72719 59.6722 7.36979 59.96 7.29455 60.1759C7.23812 60.337 7.00142 60.4559 7.11272 60.6515C7.23342 60.8642 7.44347 60.6796 7.60806 60.6796C10.8701 60.689 14.1337 60.6859 17.3957 60.689C17.5212 60.689 17.6466 60.7219 17.772 60.7391C17.772 60.7985 17.772 60.858 17.772 60.9174L17.7735 60.9158Z" fill="#FEFEFE"/>
<path d="M57.9001 63.0916C57.9001 62.8836 57.9001 62.6771 57.9001 62.4691C57.9001 60.8938 57.9362 60.825 58.2293 60.9814C58.7999 61.2849 59.2968 60.7343 59.8689 60.9423C60.5869 61.2035 61.0352 62.0936 60.8016 63.0103C60.5979 63.8097 59.8313 64.329 59.0773 64.0115C58.339 63.7017 58.3218 64.0036 58.3375 64.5715C58.3437 64.7811 58.5334 65.1815 58.1306 65.1831C57.7261 65.1831 57.9236 64.7858 57.9095 64.5668C57.8797 64.0756 57.9001 63.5813 57.9001 63.0885V63.0916ZM59.4191 61.288C58.8391 61.2661 58.3861 61.726 58.3484 62.3783C58.3061 63.0979 58.756 63.6751 59.3673 63.6845C59.952 63.6939 60.3486 63.2543 60.3878 62.5551C60.4254 61.8652 60.0038 61.3115 59.4206 61.288H59.4191Z" fill="#FEFEFE"/>
<path d="M24.9302 63.8867C24.9114 64.123 24.7531 64.112 24.5979 64.0541C24.4035 63.9822 24.3424 63.7929 24.3095 63.6177C24.1668 62.8512 23.6793 62.737 22.9677 62.712C22.2262 62.6854 21.8657 62.9325 21.7058 63.6114C21.6478 63.8602 21.5443 64.2043 21.2105 64.0447C20.8985 63.8946 21.2042 63.6365 21.2747 63.4534C21.7011 62.3397 22.1478 61.2321 22.6009 60.1293C22.673 59.9557 22.6902 59.7054 22.9833 59.7085C23.1824 59.7101 23.3172 59.7492 23.4003 59.9651C23.8847 61.2275 24.3832 62.482 24.8769 63.7413C24.8957 63.7882 24.9114 63.8383 24.9287 63.8883L24.9302 63.8867ZM23.0147 60.2185C22.8062 60.7597 22.6698 61.1195 22.5288 61.4777C22.1839 62.3631 22.1839 62.3365 23.1307 62.3569C23.659 62.3678 23.8596 62.2708 23.5947 61.7233C23.394 61.3088 23.2592 60.8645 23.0131 60.2185H23.0147Z" fill="#FEFEFE"/>
<path d="M47.7514 60.9284C48.2279 60.8737 48.6245 61.0849 48.8957 61.5166C49.076 61.8044 49.2468 62.158 49.1042 62.4693C48.9631 62.7774 48.59 62.5803 48.322 62.6053C47.9865 62.6366 47.6464 62.6053 47.3078 62.6163C47.1354 62.621 46.9049 62.5412 46.8109 62.7227C46.7074 62.9229 46.8532 63.1231 46.9739 63.2889C47.3736 63.8411 48.1119 63.8239 48.5461 63.2405C48.6809 63.059 48.7593 62.7367 49.0399 62.9479C49.2515 63.1075 49.007 63.3327 48.9114 63.4939C48.5759 64.0554 47.7686 64.2604 47.1118 63.9757C46.4817 63.7019 46.1541 62.9354 46.3202 62.1235C46.4864 61.3164 46.9253 60.9378 47.7498 60.9284H47.7514ZM47.7514 62.2518C47.9348 62.0094 48.5273 62.5788 48.5885 62.0031C48.6355 61.5667 48.1621 61.3195 47.7185 61.3039C47.2451 61.2867 46.9598 61.5979 46.8344 62.0219C46.7701 62.2377 46.8109 62.2503 47.7498 62.2503L47.7514 62.2518Z" fill="#FEFEFE"/>
<path d="M89.2207 61.2707C89.2207 60.8249 89.2222 60.415 89.2207 60.0052C89.2207 59.819 89.2912 59.708 89.4918 59.7236C89.6674 59.7377 89.6752 59.8722 89.6752 60.0036C89.6752 61.2519 89.6768 62.5002 89.6752 63.7501C89.6752 63.905 89.5592 64.1647 89.4574 64.0395C89.1 63.6015 88.835 64.0458 88.5388 64.0724C87.8726 64.1302 87.2848 64.0301 86.9289 63.3856C86.5543 62.7067 86.6499 61.7588 87.1782 61.2832C87.7331 60.7842 88.346 60.7858 88.9667 61.1878C89.0247 61.2253 89.1015 61.2316 89.2238 61.2692L89.2207 61.2707ZM89.2034 62.5347C89.2191 61.8464 88.7755 61.3004 88.1924 61.2895C87.6406 61.2785 87.2048 61.7838 87.1876 62.4549C87.1688 63.1854 87.5795 63.6875 88.1892 63.6813C88.777 63.6766 89.1862 63.2136 89.2018 62.5347H89.2034Z" fill="#FEFEFE"/>
<path d="M107.808 62.2454C107.803 61.5775 108.239 61.0003 109.026 60.9314C109.938 60.8501 110.451 61.2631 110.625 62.1485C110.694 62.502 110.619 62.6256 110.261 62.6162C109.739 62.6021 109.217 62.624 108.697 62.6099C108.228 62.5974 108.236 62.8367 108.388 63.1527C108.711 63.8238 109.576 63.8754 110.045 63.2466C110.164 63.087 110.227 62.7757 110.475 62.9275C110.768 63.1058 110.504 63.3483 110.393 63.5235C110.011 64.1242 109.42 64.182 108.805 64.0256C108.054 63.8348 107.802 63.2654 107.81 62.2454H107.808ZM109.2 62.3299C109.442 62.0092 110.039 62.5802 110.095 62.003C110.134 61.5931 109.692 61.2865 109.225 61.2959C108.766 61.3053 108.343 61.5947 108.355 62.0186C108.372 62.5458 108.901 62.0953 109.2 62.3299Z" fill="#FEFEFE"/>
<path d="M137.105 62.5003C137.109 61.5039 137.575 60.9548 138.437 60.9282C139.288 60.9032 139.813 61.3725 139.915 62.1953C139.954 62.5097 139.887 62.6239 139.57 62.6145C139.075 62.602 138.58 62.6051 138.084 62.6145C137.917 62.6176 137.694 62.53 137.609 62.7584C137.54 62.9446 137.656 63.1104 137.757 63.2606C138.145 63.8378 138.881 63.8393 139.324 63.2559C139.457 63.0822 139.525 62.7256 139.809 62.9477C140.045 63.1323 139.787 63.3857 139.661 63.5578C139.252 64.1209 138.667 64.1835 138.05 64.0114C137.286 63.7987 137.101 63.1996 137.105 62.4987V62.5003ZM138.518 62.2923C138.807 62.1171 139.327 62.5128 139.381 62.0467C139.431 61.6071 139.003 61.313 138.54 61.2974C138.072 61.2802 137.636 61.5727 137.661 62.0029C137.692 62.5363 138.249 62.0858 138.518 62.2923Z" fill="#FEFEFE"/>
<path d="M63.154 62.4833C63.1618 61.5682 63.5991 61.0019 64.3484 60.9315C65.2059 60.8502 65.7733 61.26 65.952 62.061C66.0382 62.4458 65.9881 62.6507 65.5225 62.6194C65.0287 62.5881 64.5318 62.6241 64.0365 62.61C63.5694 62.596 63.5741 62.8306 63.7277 63.1497C64.0522 63.8239 64.8861 63.8693 65.3799 63.242C65.51 63.0762 65.5727 62.7164 65.8721 62.962C66.068 63.1231 65.8501 63.3468 65.7451 63.5048C65.3344 64.118 64.734 64.19 64.0851 64.0132C63.444 63.838 63.1461 63.3218 63.154 62.4849V62.4833ZM64.5789 62.3128C64.8218 62.0469 65.383 62.5568 65.4457 62.0406C65.4943 61.6386 65.0679 61.3101 64.6024 61.2992C64.1023 61.2866 63.6618 61.5917 63.6963 62.0531C63.7308 62.499 64.2591 62.1204 64.5789 62.3128Z" fill="#FEFEFE"/>
<path d="M69.0715 62.452C69.0605 61.6245 69.5637 60.9878 70.3302 60.93C71.1751 60.8658 71.7614 61.3085 71.9118 62.0922C71.9792 62.4473 71.9181 62.635 71.5011 62.6163C71.0074 62.5928 70.5105 62.6241 70.0167 62.6084C69.5041 62.5928 69.5104 62.8478 69.6969 63.1904C70.0371 63.8161 70.8522 63.8536 71.3193 63.2701C71.451 63.1059 71.5043 62.7289 71.8005 62.9401C72.0529 63.12 71.788 63.364 71.6689 63.5361C71.2456 64.1446 70.6359 64.1837 69.9963 63.9944C69.2705 63.7801 69.1248 63.1732 69.0715 62.452ZM69.6201 61.9718C69.6217 62.0813 69.5778 62.2236 69.7236 62.2252C70.2644 62.2361 70.8052 62.2361 71.3444 62.2174C71.4792 62.2127 71.4573 62.0547 71.4212 61.9687C71.2425 61.5557 70.929 61.2866 70.4697 61.3007C70.0418 61.3148 69.7722 61.5901 69.6201 61.9702V61.9718Z" fill="#FEFEFE"/>
<path d="M39.3479 62.5633C39.4905 62.9043 39.061 63.4424 39.6473 63.7521C39.7288 63.7959 39.7178 63.9508 39.6206 64.0227C39.4811 64.126 39.2852 64.1229 39.1896 64.0165C38.9325 63.7255 38.7366 63.8601 38.4716 64.0102C38.0672 64.2386 37.6267 64.2277 37.2051 64.0102C36.8696 63.8382 36.7191 63.5613 36.7317 63.1843C36.7442 62.7979 36.9402 62.5241 37.2866 62.4162C37.655 62.3005 38.0484 62.2629 38.4309 62.1894C38.6707 62.144 38.9027 62.0861 38.8808 61.7655C38.8635 61.5042 38.7334 61.3181 38.4732 61.2633C38.0155 61.1663 37.5781 61.1616 37.3556 61.6872C37.2882 61.8452 37.2051 61.9876 37.0201 61.9109C36.7677 61.8077 36.8822 61.6137 36.9621 61.4542C37.2709 60.8378 37.8211 60.7487 38.4246 60.8285C39.025 60.9067 39.3604 61.2414 39.3479 61.8734C39.3432 62.0815 39.3479 62.2895 39.3479 62.5601V62.5633ZM38.4638 62.5695C38.0829 62.6806 37.3493 62.4741 37.2239 63.25C37.1675 63.5957 37.5327 63.7928 37.8681 63.7756C38.4074 63.749 38.8196 63.5034 38.8792 62.9058C38.8964 62.7306 38.9717 62.4428 38.4638 62.5695Z" fill="#FEFEFE"/>
<path d="M52.5601 64.0867C51.6979 64.0773 51.1853 63.5736 51.1179 62.6679C51.0521 61.7825 51.5239 61.052 52.2356 60.9378C53.0805 60.8017 53.7185 61.1928 53.916 61.964C54.0226 62.3816 54.0132 62.6742 53.4347 62.6225C52.9425 62.5787 52.4441 62.6179 51.9472 62.6132C51.6086 62.61 51.538 62.7493 51.6713 63.0496C51.8186 63.3797 52.0271 63.6237 52.4049 63.6738C52.7968 63.7254 53.1275 63.6284 53.3564 63.2811C53.4755 63.1012 53.5555 62.7461 53.8407 62.9495C54.0978 63.1341 53.8078 63.3765 53.7028 63.5517C53.4504 63.9725 53.0256 64.0899 52.5585 64.0883L52.5601 64.0867ZM52.524 62.2925C52.8234 62.1126 53.3658 62.5052 53.4175 62.0219C53.463 61.5917 53.0256 61.3054 52.5616 61.2992C52.0882 61.2913 51.6619 61.6151 51.6807 62.0125C51.7026 62.5303 52.2591 62.0876 52.5256 62.2925H52.524Z" fill="#FEFEFE"/>
<path d="M125.844 62.6129C125.688 62.6129 125.526 62.5848 125.377 62.6192C125.133 62.6755 124.716 62.4158 124.675 62.835C124.644 63.1635 124.898 63.4889 125.236 63.6094C125.719 63.7814 126.167 63.7095 126.448 63.2152C126.551 63.0321 126.653 62.7756 126.891 62.9414C127.123 63.1025 126.896 63.3247 126.804 63.4874C126.496 64.027 125.755 64.2382 125.082 64.002C124.43 63.7736 124.09 63.1307 124.175 62.2891C124.25 61.5304 124.7 61.0095 125.344 60.9329C126.15 60.8374 126.714 61.1612 126.943 61.8574C127.108 62.3579 127.095 62.7318 126.391 62.616C126.214 62.5863 126.028 62.6113 125.846 62.6113L125.844 62.6129ZM124.65 62.2531C125.184 62.2531 125.67 62.2437 126.156 62.2563C126.57 62.2672 126.603 62.0795 126.416 61.787C126.21 61.4632 125.918 61.2332 125.512 61.3005C125.029 61.3818 124.761 61.6994 124.65 62.2531Z" fill="#FEFEFE"/>
<path d="M95.2819 62.438C95.2819 62.2049 95.2302 61.9546 95.2945 61.7419C95.376 61.4744 94.8744 60.6187 95.9011 61.1271C96.1127 61.2319 96.804 61.1522 97.1034 61.0395C97.7649 60.7892 97.6301 61.1287 97.6301 61.4713C97.6332 62.2237 97.6317 62.9761 97.6301 63.7286C97.6301 63.8881 97.6082 64.0633 97.4075 64.068C97.2006 64.0727 97.1786 63.8959 97.1786 63.7348C97.1786 63.1122 97.1457 62.4865 97.1865 61.867C97.2272 61.2507 96.9513 61.2366 96.4921 61.404C95.992 61.587 95.7396 61.9327 95.7302 62.4584C95.7224 62.8995 95.7271 63.3406 95.7224 63.7817C95.7224 63.9225 95.6691 64.0508 95.5202 64.0696C95.2929 64.0977 95.2851 63.9178 95.2835 63.763C95.2788 63.3218 95.2819 62.8807 95.2819 62.4396V62.438Z" fill="#FEFEFE"/>
<path d="M81.8902 62.4833C81.8902 62.4567 81.8839 62.4286 81.8902 62.4051C82.0485 61.9296 81.5202 61.1349 82.1566 61.0129C82.5924 60.93 83.1473 60.7861 83.6662 60.9269C84.1192 61.0504 84.4405 61.3007 84.4782 61.7544C84.5346 62.4254 84.5111 63.1028 84.5205 63.777C84.522 63.9162 84.4829 64.0492 84.3261 64.0648C84.1113 64.0883 84.0753 63.9209 84.0722 63.7598C84.0612 63.2138 84.0643 62.6695 84.0533 62.1235C84.0439 61.6871 83.8621 61.3508 83.3966 61.2976C82.9216 61.2428 82.6065 61.4994 82.4482 61.939C82.2491 62.4943 82.3635 63.0715 82.3338 63.6393C82.3244 63.8083 82.3933 64.0523 82.1221 64.057C81.8666 64.0601 81.8902 63.8286 81.8886 63.6503C81.8854 63.2608 81.8886 62.8713 81.8886 62.4818L81.8902 62.4833Z" fill="#FEFEFE"/>
<path d="M26.3922 64.1711C25.8717 64.1555 25.4532 64.0382 25.2181 63.5939C25.1256 63.4203 24.9688 63.1872 25.2259 63.0527C25.4407 62.9416 25.5081 63.1637 25.6037 63.328C25.8874 63.8113 26.3185 63.8817 26.8154 63.6971C27.0239 63.6189 27.1869 63.4781 27.1916 63.2482C27.1963 63.0167 27.0396 62.8587 26.8279 62.7914C26.5301 62.6976 26.2213 62.6381 25.9219 62.5474C25.4877 62.4144 25.1538 62.1532 25.1789 61.6667C25.204 61.1786 25.5849 60.9534 26.0113 60.8564C26.6226 60.7172 27.1571 60.8345 27.4769 61.443C27.5443 61.5728 27.6619 61.734 27.4753 61.8513C27.3233 61.9467 27.1853 61.9013 27.1007 61.7214C27.0458 61.6057 26.9878 61.4649 26.8891 61.3992C26.5928 61.199 26.2605 61.138 25.9297 61.3179C25.7699 61.4039 25.6131 61.5384 25.6711 61.748C25.7605 62.0781 26.0724 62.1235 26.342 62.2095C26.4408 62.2408 26.5458 62.2533 26.6477 62.2768C27.2261 62.4019 27.745 62.6428 27.6493 63.3374C27.549 64.0632 26.9251 64.1273 26.3922 64.1743V64.1711Z" fill="#FEFEFE"/>
<path d="M29.2604 64.174C28.7337 64.1568 28.2776 64.0129 28.0706 63.4701C28.0189 63.334 27.9484 63.1494 28.1224 63.054C28.2979 62.9586 28.4296 63.0774 28.4766 63.2417C28.5581 63.5264 28.7588 63.6813 29.019 63.7438C29.4548 63.8502 29.9282 63.8111 30.074 63.3465C30.226 62.8616 29.7463 62.7927 29.4015 62.6911C29.2761 62.6551 29.1507 62.6238 29.0237 62.5956C28.5017 62.4768 28.0612 62.2515 28.1083 61.6305C28.1475 61.0986 28.5644 60.9093 29.0253 60.8311C29.6194 60.7294 30.1084 60.8984 30.4031 61.4584C30.4752 61.5961 30.5301 61.776 30.3561 61.8698C30.1884 61.9621 30.0551 61.8573 29.9924 61.693C29.8326 61.2769 29.4955 61.1956 29.1068 61.23C28.8623 61.2519 28.6365 61.3505 28.5785 61.6133C28.5127 61.9058 28.74 62.0262 28.961 62.1123C29.1287 62.178 29.3074 62.2218 29.4846 62.2593C30.0802 62.3876 30.6649 62.5956 30.5646 63.334C30.469 64.0364 29.8514 64.138 29.2573 64.174H29.2604Z" fill="#FEFEFE"/>
<path d="M33.3381 64.1679C32.8428 64.1679 32.3945 64.0569 32.1609 63.5719C32.0872 63.4202 31.8584 63.1934 32.164 63.0463C32.3992 62.9337 32.454 63.1527 32.5418 63.3138C32.7957 63.7721 33.2049 63.8691 33.6767 63.733C33.9024 63.6673 34.1313 63.55 34.1501 63.2747C34.1689 62.9963 33.9573 62.8586 33.7331 62.7741C33.5152 62.6928 33.2817 62.6521 33.0544 62.5927C32.5481 62.4581 32.0715 62.2626 32.1452 61.6259C32.222 60.9658 32.7707 60.8688 33.3021 60.8094C33.6265 60.7734 33.9291 60.8735 34.1579 61.1082C34.3476 61.3021 34.6831 61.5681 34.4197 61.8137C34.0921 62.1187 34.0545 61.64 33.9071 61.4789C33.6689 61.2177 33.3663 61.1879 33.0466 61.2489C32.8318 61.2912 32.65 61.4054 32.6155 61.6416C32.5779 61.8934 32.744 62.0217 32.9556 62.0937C33.1516 62.1609 33.3522 62.2204 33.5544 62.2642C34.1234 62.3909 34.6799 62.6099 34.6141 63.2888C34.5467 63.9943 33.94 64.1288 33.3334 64.1648L33.3381 64.1679Z" fill="#FEFEFE"/>
<path d="M72.3846 62.4798C72.3846 62.4532 72.3784 62.4251 72.3846 62.4016C72.5367 61.9245 72.0272 61.1157 72.6511 61.0125C73.0869 60.9405 73.6324 60.7732 74.1481 60.9249C74.6387 61.0688 74.9319 61.3457 74.9554 61.8416C74.9852 62.4642 74.9648 63.0899 74.9616 63.7156C74.9616 63.8658 74.9852 64.0613 74.7657 64.0644C74.5102 64.0676 74.5086 63.8611 74.5086 63.6718C74.5086 63.1775 74.5102 62.6832 74.5086 62.1888C74.5071 61.7305 74.3801 61.3316 73.8471 61.3003C73.3016 61.2675 72.9364 61.5725 72.8706 62.1059C72.8079 62.619 72.847 63.1446 72.8345 63.664C72.8298 63.8376 72.8643 64.0769 72.6025 64.0691C72.3439 64.0629 72.3846 63.8267 72.3831 63.6499C72.3784 63.2588 72.3831 62.8693 72.3831 62.4782L72.3846 62.4798Z" fill="#FEFEFE"/>
<path d="M136.581 62.5302C136.581 62.5567 136.581 62.5818 136.581 62.6084C136.581 63.6439 136.068 64.1356 135.043 64.0835C134.441 64.0522 134.048 63.755 134.001 63.1418C133.954 62.5223 133.974 61.8966 133.958 61.2756C133.954 61.1082 133.96 60.9502 134.173 60.9408C134.389 60.9314 134.407 61.0863 134.405 61.2568C134.4 61.7496 134.389 62.2439 134.408 62.7366C134.426 63.1981 134.509 63.6392 135.107 63.6752C135.728 63.7128 136.017 63.3467 136.082 62.7976C136.139 62.3362 136.12 61.8653 136.139 61.3992C136.147 61.2099 136.04 60.9346 136.382 60.944C136.67 60.9518 136.575 61.1989 136.579 61.3616C136.589 61.7511 136.582 62.1406 136.582 62.5302H136.581Z" fill="#FEFEFE"/>
<path d="M99.3936 64.1696C98.859 64.1633 98.4233 63.9897 98.2022 63.4609C98.1411 63.3154 98.0862 63.1356 98.2602 63.0495C98.4217 62.9697 98.5502 63.0699 98.6192 63.2388C98.8418 63.7785 99.2807 63.8551 99.776 63.73C100.002 63.6737 100.234 63.5407 100.243 63.2685C100.253 63.001 100.061 62.8462 99.8231 62.7695C99.5754 62.6913 99.3199 62.6397 99.0691 62.5693C98.6129 62.441 98.2273 62.2251 98.254 61.6776C98.2822 61.091 98.7305 60.919 99.2102 60.8282C99.7447 60.7281 100.193 60.8892 100.486 61.3632C100.571 61.4993 100.742 61.6839 100.522 61.8388C100.314 61.9858 100.201 61.8497 100.119 61.6542C100.08 61.5603 100.017 61.4649 99.9391 61.4039C99.6444 61.1739 99.3152 61.163 98.9829 61.31C98.8073 61.3882 98.6788 61.5337 98.7274 61.7402C98.8057 62.0797 99.1177 62.1203 99.3873 62.2048C99.4861 62.2361 99.5911 62.2486 99.693 62.2721C100.268 62.3988 100.797 62.6319 100.695 63.328C100.593 64.0382 99.9877 64.1367 99.3904 64.1696H99.3936Z" fill="#FEFEFE"/>
<path d="M79.9047 60.9302C80.8343 60.9271 81.4205 61.545 81.4142 62.5179C81.4064 63.4784 80.7888 64.1041 79.864 64.0869C78.9893 64.0713 78.3873 63.4362 78.3795 62.5195C78.3701 61.5559 78.9673 60.9349 79.9047 60.9302ZM79.8859 63.6849C80.4925 63.6943 80.9581 63.1765 80.9581 62.4945C80.9581 61.8375 80.4565 61.2728 79.8875 61.2868C79.3545 61.2994 78.8607 61.85 78.8372 62.4569C78.8121 63.0967 79.3075 63.6771 79.8859 63.6865V63.6849Z" fill="#FEFEFE"/>
<path d="M112.751 62.4629C112.751 62.4363 112.75 62.4113 112.751 62.3847C112.787 61.9264 112.557 61.1896 112.838 61.066C113.352 60.8392 114.024 60.9377 114.628 60.9628C114.915 60.9753 115.164 61.188 115.259 61.4805C115.516 62.2658 115.363 63.0777 115.382 63.8786C115.385 63.9803 115.299 64.0741 115.175 64.0694C114.963 64.0616 114.941 63.9052 114.94 63.7425C114.933 63.2232 114.933 62.7038 114.921 62.1845C114.91 61.7246 114.756 61.3523 114.233 61.3069C113.706 61.2615 113.418 61.5681 113.275 62.039C113.135 62.4973 113.242 62.9697 113.195 63.4328C113.171 63.6549 113.361 64.0616 112.968 64.046C112.612 64.0303 112.773 63.633 112.756 63.3984C112.732 63.0886 112.75 62.7758 112.75 62.4629H112.751Z" fill="#FEFEFE"/>
<path d="M40.0174 62.4973C40.0174 62.4707 40.0111 62.4441 40.0174 62.4191C40.1663 61.9357 39.6631 61.1145 40.2729 61.0175C40.7134 60.9471 41.2604 60.786 41.7809 60.9221C42.3138 61.0597 42.6054 61.371 42.6399 61.8872C42.679 62.4817 42.6587 63.0824 42.6618 63.6799C42.6618 63.8661 42.6634 64.0913 42.4063 64.0647C42.1586 64.0397 42.2088 63.8019 42.2072 63.6267C42.1994 63.1324 42.2041 62.6397 42.1931 62.1453C42.1821 61.6698 41.9752 61.3303 41.4658 61.3006C40.9845 61.274 40.6977 61.554 40.5566 61.9967C40.4108 62.4551 40.5064 62.9275 40.4641 63.3905C40.4422 63.6205 40.6271 64.0319 40.2729 64.0366C39.8434 64.0413 40.055 63.6001 40.0252 63.353C39.9907 63.0714 40.0174 62.782 40.0174 62.4957V62.4973Z" fill="#FEFEFE"/>
<path d="M92.9456 62.5287C92.9456 62.8666 92.9597 63.206 92.9409 63.5423C92.9237 63.8442 93.0569 64.4168 92.4565 63.8411C92.3061 63.6972 92.1681 63.9631 92.0067 64.0116C91.0019 64.3167 90.3545 63.8693 90.3388 62.8275C90.331 62.3081 90.3404 61.7872 90.3341 61.2679C90.3325 61.0973 90.3435 60.9503 90.5598 60.944C90.7777 60.9378 90.7965 61.0817 90.795 61.2553C90.7887 61.7747 90.7918 62.2956 90.7918 62.8149C90.7918 63.2357 90.8749 63.6002 91.3844 63.6706C91.9048 63.741 92.2261 63.5157 92.3923 63.0246C92.5459 62.5662 92.4424 62.0938 92.5004 61.6339C92.5302 61.3993 92.2731 60.9503 92.7293 60.9691C93.1525 60.9878 92.8939 61.4274 92.9331 61.6746C92.977 61.953 92.9425 62.2455 92.9441 62.5318L92.9456 62.5287Z" fill="#FEFEFE"/>
<path d="M107.247 62.549V63.9459C106.85 63.9412 106.471 63.9584 106.069 64.0554C105.243 64.2525 104.734 63.7848 104.715 62.9197C104.704 62.4254 104.701 61.9311 104.72 61.4383C104.726 61.2647 104.569 60.9612 104.913 60.9518C105.305 60.9409 105.152 61.2756 105.16 61.4759C105.178 61.917 105.171 62.3597 105.163 62.8008C105.156 63.2607 105.246 63.6361 105.809 63.6768C106.344 63.7159 106.635 63.4343 106.765 62.9541C106.911 62.4176 106.834 61.8685 106.849 61.3241C106.853 61.1442 106.811 60.9268 107.095 60.9471C107.32 60.9628 107.283 61.152 107.283 61.3022C107.283 61.7183 107.283 62.1344 107.283 62.5505C107.27 62.5505 107.258 62.5505 107.244 62.5505L107.247 62.549Z" fill="#FEFEFE"/>
<path d="M43.1499 62.4944C43.1499 61.731 43.5747 61.0803 44.2174 60.9661C44.8209 60.8597 45.4307 60.8613 45.7959 61.4948C45.89 61.6575 46.089 61.8781 45.8163 62.0267C45.6235 62.1315 45.5075 61.9547 45.415 61.7733C45.194 61.3447 44.8225 61.1726 44.3726 61.3494C43.8302 61.5605 43.5873 61.9923 43.617 62.5805C43.6437 63.1029 43.8929 63.4893 44.382 63.6395C44.8648 63.7865 45.2582 63.5847 45.4495 63.1076C45.5326 62.9027 45.6533 62.765 45.8414 62.8652C46.0546 62.9778 45.9213 63.1749 45.8445 63.3391C45.5263 64.0149 44.9667 64.1823 44.2895 64.0462C43.5716 63.9007 43.1483 63.3063 43.1499 62.4975V62.4944Z" fill="#FEFEFE"/>
<path d="M118.652 62.5332C118.652 62.8461 118.665 63.1574 118.649 63.4687C118.634 63.769 118.797 64.3212 118.146 63.8488C118.055 63.7831 117.793 63.9708 117.605 64.0224C116.688 64.2805 116.053 63.8284 116.02 62.8836C116.002 62.3643 116.017 61.8434 116.017 61.324C116.017 61.1473 115.972 60.9283 116.256 60.9423C116.533 60.9548 116.474 61.1754 116.475 61.349C116.478 61.8434 116.474 62.3377 116.481 62.832C116.488 63.2512 116.582 63.6141 117.096 63.672C117.618 63.7299 117.933 63.4906 118.094 63.0072C118.271 62.4738 118.155 61.9231 118.198 61.3819C118.212 61.2051 118.085 60.9142 118.45 60.9423C118.729 60.9642 118.652 61.1926 118.654 61.3616C118.659 61.7511 118.654 62.1421 118.654 62.5316L118.652 62.5332Z" fill="#FEFEFE"/>
<path d="M14.119 62.5101C13.5328 62.3521 12.8963 63.0373 12.3367 62.4053C12.3305 62.3975 12.2928 62.4053 12.2772 62.4178C11.3805 63.0873 10.9698 62.7713 10.8868 61.6732C10.8899 62.1096 10.3413 62.1409 10.4055 62.5633C10.4275 62.7134 10.2692 62.6947 10.1829 62.6822C10.0481 62.6634 10.0387 62.5476 10.0857 62.4475C10.2315 62.1394 10.0716 61.8343 10.0779 61.5168C10.6046 61.304 11.0184 61.925 11.5483 61.7123C11.6266 61.681 11.7756 61.8656 11.6987 62.0033C11.5921 62.1941 11.5577 62.374 11.7897 62.4428C12.0232 62.5117 12.0311 62.2379 12.1361 62.1143C12.227 62.0064 12.1596 61.7936 12.3743 61.7498C12.6581 61.8938 12.5186 62.4647 12.8869 62.4162C13.2365 62.3693 12.9512 61.9798 12.9841 61.7577C13.4669 61.7373 13.8306 61.8046 13.818 62.3771C13.8133 62.582 13.9403 62.6431 14.1284 62.5508L14.1206 62.5101H14.119ZM10.5889 62.033C10.6407 61.9219 10.7018 61.8515 10.6924 61.7905C10.6845 61.7405 10.5952 61.6748 10.5388 61.6716C10.4917 61.6685 10.4071 61.7436 10.4008 61.7921C10.3946 61.8343 10.4729 61.8906 10.5889 62.033ZM13.4497 62.4804C13.3666 62.3803 13.3086 62.2973 13.2365 62.2301C13.2255 62.2191 13.1095 62.2942 13.1127 62.302C13.1471 62.3912 13.1895 62.4819 13.2475 62.557C13.2584 62.5711 13.3572 62.5163 13.4497 62.4804Z" fill="#FEFEFE"/>
<path d="M67.5199 63.5426C67.8365 62.6697 68.103 61.9752 68.3397 61.2713C68.4165 61.0429 68.5184 60.8473 68.7629 60.9584C69.0106 61.0726 68.8006 61.2681 68.7441 61.4199C68.4776 62.1504 68.2033 62.8793 67.9353 63.6083C67.8553 63.8257 67.8177 64.0932 67.5073 64.0823C67.2518 64.0729 67.1891 63.8476 67.1139 63.6521C66.8255 62.8997 66.5308 62.1488 66.2549 61.3917C66.2047 61.2541 65.9665 61.0554 66.2643 60.9474C66.512 60.8567 66.6264 61.0413 66.7032 61.2634C66.9462 61.9658 67.2032 62.6635 67.5199 63.5426Z" fill="#FEFEFE"/>
<path d="M34.6201 61.1613C35.1625 60.9517 35.454 60.7624 35.3333 60.2853C35.291 60.1148 35.3788 59.9756 35.581 59.9881C35.7425 59.9975 35.8067 60.1273 35.7754 60.2634C35.6484 60.8062 35.9901 60.9626 36.6015 61.0143C36.1281 61.3256 35.5967 61.3709 35.7597 62.006C35.8726 62.4456 35.7942 62.9336 35.8114 63.3998C35.8146 63.4686 35.8663 63.5469 35.9165 63.6016C36.0513 63.7518 36.4745 63.5594 36.3867 63.9504C36.335 64.1804 36.0764 64.085 35.9118 64.0787C35.5873 64.0678 35.3616 63.8988 35.3475 63.5578C35.3271 63.0651 35.3427 62.5723 35.3271 62.0795C35.3145 61.6728 35.5387 61.1269 34.6201 61.1629V61.1613Z" fill="#FEFEFE"/>
<path d="M54.0063 61.1191C54.5001 60.9564 54.7901 60.7421 54.6757 60.2431C54.6428 60.0977 54.7384 59.9881 54.8951 59.9913C55.0597 59.9944 55.1115 60.1195 55.0942 60.2603C55.0394 60.7249 55.0973 61.1004 55.8701 60.9752C54.9218 61.5165 54.8121 63.1918 55.53 63.6814C55.624 63.7456 55.6961 63.7925 55.6805 63.913C55.6648 64.0397 55.5817 64.0788 55.4642 64.0788C55.0409 64.0803 54.6647 64.0272 54.671 63.4687C54.6757 63.026 54.6663 62.5833 54.6726 62.1406C54.6788 61.6854 54.7917 61.177 54.0063 61.1207V61.1191Z" fill="#FEFEFE"/>
<path d="M75.2633 61.1272C75.663 60.9552 76.0032 60.8425 75.8746 60.3513C75.8417 60.2231 75.8198 60.0135 76.0439 59.99C76.2947 59.9634 76.3731 60.1386 76.3214 60.3388C76.1772 60.902 76.5941 60.9442 77.1145 61.0021C76.696 61.3306 76.1364 61.3556 76.3041 61.9938C76.4186 62.4319 76.3308 62.9215 76.3433 63.3876C76.3465 63.4846 76.3684 63.5816 76.486 63.6364C76.649 63.713 76.9782 63.5894 76.9343 63.9179C76.9014 64.1635 76.6443 64.079 76.4781 64.0775C76.163 64.0744 75.8966 63.9476 75.8793 63.5988C75.8511 63.056 75.8527 62.5101 75.8715 61.9657C75.8856 61.5605 75.895 61.1882 75.2617 61.1257L75.2633 61.1272Z" fill="#FEFEFE"/>
<path d="M61.3929 62.4314C61.3929 62.2233 61.3317 61.9903 61.407 61.8135C61.5198 61.546 60.932 60.5777 62.0152 61.1581C62.1625 61.2363 62.4494 60.8984 62.7284 60.9484C62.8193 60.9641 62.94 61.0173 62.9745 61.0877C63.02 61.18 62.9573 61.3051 62.8444 61.3286C61.6985 61.5648 61.7973 62.4455 61.8145 63.2855C61.8177 63.4419 61.8145 63.5968 61.8145 63.7532C61.8145 63.8846 61.8083 64.0426 61.6531 64.0614C61.454 64.0849 61.3944 63.93 61.3929 63.7579C61.3913 63.3168 61.3929 62.8741 61.3929 62.433V62.4314Z" fill="#FEFEFE"/>
<path d="M2.43435 61.651C2.69613 61.7135 2.95791 61.7761 3.21969 61.8371C3.20715 61.9278 3.19617 62.017 3.1852 62.1077C2.4516 62.7585 1.56751 62.6724 0.675578 62.6881C0.315045 62.6943 0.208452 62.6302 0.33072 62.3752C0.471798 62.0796 -0.0972171 61.5368 0.620714 61.4804C0.954599 61.4539 1.28221 61.5383 1.03611 62.0201C0.887195 62.3095 1.138 62.4143 1.32454 62.5817C1.48599 62.3596 1.39037 62.1234 1.42643 61.9106C1.47659 61.6072 1.66156 61.6181 1.87004 61.7824C1.89042 61.9654 1.93744 62.1515 1.80107 62.3142C1.79323 62.3783 1.75404 62.4816 1.78069 62.5019C1.8622 62.5645 1.89355 62.4832 1.91707 62.4159C2.07539 62.5348 2.25095 62.9196 2.35911 62.3783C2.4077 62.1374 2.2776 61.8778 2.43435 61.6494V61.651Z" fill="#FEFEFE"/>
<path d="M127.472 62.4425C127.472 62.0546 127.472 61.6666 127.472 61.2771C127.472 61.1254 127.569 60.8516 127.652 60.9627C128.069 61.5212 128.392 60.8986 128.751 60.9299C128.878 60.9408 129.024 60.908 129.083 61.0597C129.14 61.2067 129.066 61.3319 128.927 61.3569C127.793 61.5618 127.939 62.4285 127.917 63.2309C127.909 63.5109 128.088 64.0256 127.729 64.0272C127.24 64.0303 127.535 63.5047 127.481 63.2153C127.434 62.965 127.472 62.6991 127.47 62.441L127.472 62.4425Z" fill="#FEFEFE"/>
<path d="M31.0783 62.421C31.0783 62.0315 31.0846 61.642 31.0736 61.2541C31.0689 61.0726 31.105 60.9475 31.3119 60.9412C31.5313 60.9334 31.5502 61.0789 31.5502 61.2494C31.547 62.08 31.5502 62.9107 31.5486 63.7397C31.5486 63.9009 31.5313 64.0714 31.3197 64.0698C31.1191 64.0698 31.0799 63.9102 31.0799 63.7444C31.0799 63.3033 31.0799 62.8622 31.0799 62.421H31.0783Z" fill="#FEFEFE"/>
<path d="M77.4234 62.5101C77.4234 62.1206 77.4187 61.7327 77.425 61.3432C77.4281 61.1758 77.3529 60.9505 77.6444 60.9412C77.9156 60.9333 77.8984 61.1242 77.8968 61.315C77.8921 62.0925 77.8968 62.8715 77.8937 63.6489C77.8937 63.8273 77.9234 64.051 77.6695 64.0666C77.3999 64.0823 77.4265 63.8554 77.425 63.6755C77.4218 63.286 77.425 62.8981 77.425 62.5086L77.4234 62.5101Z" fill="#FEFEFE"/>
<path d="M7.42904 61.9012C7.57483 62.0435 8.09995 61.1394 7.95887 62.0951C7.93693 62.2437 7.90244 62.5065 8.194 62.4565C8.39151 62.4221 8.7254 62.4753 8.68778 62.1249C8.64075 61.6884 8.90566 61.6055 9.20036 61.6947C9.65338 61.8323 9.3383 62.2625 9.38533 62.5347C9.4496 62.9054 8.96836 62.7381 8.87274 62.6692C8.44951 62.3658 8.14698 62.6958 7.8225 62.8194C7.64536 62.8867 7.52153 63.0228 7.37888 62.7991C7.37418 62.7662 7.38672 62.7428 7.41964 62.7302C7.55758 62.688 7.7159 62.8225 7.84444 62.6849C7.60304 62.4784 7.91812 61.9888 7.44315 61.9027H7.43218L7.42904 61.9012ZM8.70345 62.5691C8.71599 62.322 9.01382 62.1468 8.81631 61.8902C8.78496 61.8495 8.59999 61.8667 8.54356 61.9184C8.29119 62.1514 8.39778 62.372 8.70188 62.5675L8.70345 62.5691Z" fill="#FEFEFE"/>
<path d="M16.545 60.2699C15.5747 60.0587 14.6217 60.0352 13.6765 60.3215C13.4884 60.3794 13.294 60.3168 13.2281 60.115C13.1937 60.0086 13.2203 59.8491 13.2814 59.7537C13.3849 59.5925 13.631 59.4737 13.7501 59.5847C14.2204 60.0196 14.6499 59.6551 15.1029 59.591C15.6939 59.5065 16.3397 59.3673 16.5435 60.2683L16.545 60.2699Z" fill="#FEFEFE"/>
<path d="M129.825 62.5114C129.825 62.9244 129.829 63.3389 129.821 63.7519C129.818 63.9005 129.826 64.0882 129.596 64.0663C129.451 64.0538 129.372 63.9443 129.372 63.7988C129.368 62.9197 129.368 62.0421 129.365 61.163C129.365 60.9925 129.48 60.9471 129.616 60.9393C129.79 60.9315 129.823 61.0535 129.825 61.1927C129.825 61.6323 129.825 62.0719 129.825 62.5114Z" fill="#FEFEFE"/>
<path d="M16.8429 61.9796C16.879 62.2752 16.9558 62.4723 17.1972 62.4442C17.4072 62.4192 17.3571 62.197 17.332 62.0656C17.2583 61.7012 17.4825 61.7043 17.7302 61.6965C18.1926 61.6808 17.8509 61.9483 17.8744 62.0891C17.9841 62.7633 17.8054 62.8259 17.1941 62.5334C16.9166 62.4004 16.3398 62.7539 16.8445 61.9796H16.8429ZM16.81 62.3394C16.8304 62.3597 16.8476 62.3769 16.8664 62.3957C16.8837 62.3613 16.9072 62.3269 16.915 62.2909C16.9182 62.2784 16.8837 62.2565 16.8664 62.2393C16.8476 62.2737 16.8288 62.3065 16.81 62.3394Z" fill="#FEFEFE"/>
<path d="M14.1182 62.5096L14.126 62.5503C14.6213 62.458 15.1574 62.4658 15.496 61.9902C15.4976 62.0027 15.5023 62.0168 15.5007 62.0293C15.4584 62.2155 15.8754 62.3813 15.5728 62.5424C15.3346 62.6691 14.9223 62.569 14.7703 62.7364C14.2953 63.2542 14.3799 62.4251 14.1182 62.5096Z" fill="#FEFEFE"/>
<path d="M105.165 57.9856C104.806 58.0451 104.735 57.8558 104.726 57.5367C104.715 57.1878 104.85 57.0893 105.18 57.0908C105.516 57.0908 105.638 57.2066 105.635 57.5476C105.63 57.8886 105.502 58.0294 105.166 57.9872L105.165 57.9856Z" fill="#FEFEFE"/>
<path d="M129.293 57.4931C129.332 57.8122 129.238 57.9827 128.885 57.9858C128.576 57.9889 128.409 57.9279 128.412 57.5713C128.415 57.2662 128.462 57.0817 128.824 57.1004C129.103 57.1145 129.362 57.1098 129.291 57.4931H129.293Z" fill="#FEFEFE"/>
<path d="M64.252 60.6061C64.4839 60.2323 64.5137 59.6034 65.3414 59.7661C64.9354 60.093 64.7426 60.5044 64.252 60.6061Z" fill="#FEFEFE"/>
<path d="M6.12598 58.1895C6.57899 57.9768 7.12763 58.0409 7.53833 57.7046C7.59632 57.7609 7.65432 57.8172 7.71232 57.872C7.58849 58.1488 7.09785 58.0456 7.10412 58.457C6.7091 58.6166 6.29214 58.8543 6.12598 58.188V58.1895Z" fill="#FEFEFE"/>
<path d="M125.133 60.7813C125.515 60.1087 125.935 59.7703 126.394 59.7661C125.969 60.0899 125.771 60.5092 125.133 60.7813Z" fill="#FEFEFE"/>
<path d="M3.18408 62.1075C3.19505 62.0168 3.20603 61.9261 3.21857 61.8369C3.66375 61.8604 3.24208 62.3641 3.5791 62.4548C4.02585 62.3531 3.60732 61.8979 3.91299 61.668C3.91299 61.9761 3.91299 62.2421 3.91299 62.5064L3.92082 62.483C3.42392 62.849 3.18565 62.7098 3.18565 62.1075H3.18408Z" fill="#FEFEFE"/>
<path d="M7.10459 58.4582C7.09675 58.0468 7.58739 58.1485 7.71279 57.8732C7.90873 57.8904 8.05765 57.6088 8.29434 57.7856C8.0357 58.2627 7.64538 58.4911 7.10615 58.4582H7.10459Z" fill="#FEFEFE"/>
<path d="M3.92044 62.4833C3.92044 62.4833 3.91417 62.5084 3.9126 62.5068C4.13205 62.682 4.23394 62.5162 4.33897 62.3598C4.53021 62.2284 4.62269 62.0406 4.65561 61.817C4.72615 61.8013 4.79825 61.7857 4.86879 61.77C4.89231 62.0156 4.81863 62.2737 4.95971 62.5052C4.60388 62.9198 4.26529 62.474 3.9173 62.4833H3.92044Z" fill="#FEFEFE"/>
<path d="M5.79843 62.6695C5.58681 62.6366 5.34071 62.7993 5.16828 62.5553C5.24195 62.2909 5.2153 62.0265 5.16357 61.7622C5.35481 61.7507 5.47342 61.9598 5.5194 62.3894C5.46924 62.6257 5.69967 62.5819 5.79999 62.6695H5.79843Z" fill="#FEFEFE"/>
<path d="M2.43358 61.6509C2.27682 61.8793 2.40693 62.1389 2.35834 62.3798C2.25018 62.9195 2.07461 62.5363 1.91629 62.4174C1.88024 62.3798 1.84105 62.347 1.80029 62.3157C1.93667 62.153 1.89121 61.9669 1.86926 61.7838C2.05737 61.74 2.24547 61.6947 2.43201 61.6509H2.43358Z" fill="#FEFEFE"/>
<path d="M7.42919 61.9012C7.42919 61.9012 7.44016 61.9012 7.44173 61.9043C7.448 62.0295 7.45427 62.1515 7.45897 62.275C7.21444 61.9575 6.91974 61.8511 6.5498 62.0576C6.75358 61.5038 7.05925 61.5179 7.42919 61.9012Z" fill="#FEFEFE"/>
<path d="M6.5504 62.0563C6.92033 61.8514 7.21503 61.9577 7.45957 62.2737H7.46427C7.31222 62.3566 7.16173 62.4411 7.00968 62.524C6.9705 62.6241 6.91563 62.6539 6.83569 62.56C6.74791 62.3942 6.66169 62.2299 6.57391 62.0641L6.54883 62.0547L6.5504 62.0563Z" fill="#FEFEFE"/>
<path d="M5.79789 62.6692C5.69757 62.5816 5.46714 62.6254 5.51731 62.3892C5.85119 62.4236 6.18351 62.4596 6.51739 62.494L6.51426 62.4971C6.35907 62.9022 6.12708 62.9898 5.79789 62.6676V62.6692Z" fill="#FEFEFE"/>
<path d="M4.65496 61.8182C4.62204 62.0419 4.52798 62.2296 4.33831 62.361C4.25367 61.8969 4.35921 61.716 4.65496 61.8182Z" fill="#FEFEFE"/>
<path d="M5.16119 61.7623C5.21292 62.0267 5.24113 62.291 5.16589 62.5554C5.09692 62.5382 5.02952 62.5226 4.96055 62.5053C4.81947 62.2738 4.89157 62.0173 4.86963 61.7701C4.96682 61.767 5.064 61.7639 5.16119 61.7607V61.7623Z" fill="#FEFEFE"/>
<path d="M6.57519 62.0654C6.66297 62.2312 6.74918 62.3955 6.83696 62.5613C6.70216 62.6833 6.61281 62.5613 6.51405 62.4987L6.51719 62.4956C6.50308 62.347 6.30557 62.1749 6.57675 62.0654H6.57519Z" fill="#FEFEFE"/>
<path d="M7.00987 62.5257C7.16192 62.4428 7.3124 62.3583 7.46289 62.2754C7.44721 62.4271 7.43154 62.5789 7.41586 62.7306C7.38451 62.7431 7.3704 62.765 7.3751 62.7994C7.1823 62.8026 7.00987 62.7775 7.0083 62.5257H7.00987Z" fill="#FEFEFE"/>
<path d="M6.28584 61.7684C6.16044 61.9451 6.03034 61.9545 5.82812 61.748C6.02407 61.7574 6.15574 61.7637 6.28741 61.7699L6.28584 61.7684Z" fill="#FEFEFE"/>
<path d="M6.28516 61.7692C6.30775 61.7491 6.32885 61.7276 6.35144 61.7075C6.34692 61.7214 6.34843 61.7414 6.33939 61.7491C6.32433 61.7599 6.30323 61.763 6.28516 61.7692Z" fill="#FEFEFE"/>
<path d="M3.33839 59.6066C3.28666 59.6613 3.23493 59.7177 3.18477 59.7724C3.16439 59.7505 3.14402 59.7302 3.12207 59.7098L3.2898 59.5581L3.33996 59.6066H3.33839Z" fill="#FEFEFE"/>
<path d="M3.28809 59.558C3.32131 59.5408 3.35295 59.5236 3.38617 59.5063C3.37035 59.5392 3.35453 59.5721 3.33713 59.6065L3.28809 59.558Z" fill="#FEFEFE"/>
<path d="M3.18422 59.7725C3.14625 59.7882 3.10828 59.8038 3.07031 59.8195C3.08772 59.7835 3.10512 59.7459 3.12094 59.71C3.14309 59.7303 3.16365 59.7506 3.18422 59.7725Z" fill="#FEFEFE"/>
<path d="M4.76765 56.0386C4.57014 56.5439 4.11399 56.7065 3.49951 57.0335C3.86004 56.4203 4.2676 56.1606 4.62814 55.854C4.67516 55.915 4.72062 55.9776 4.76765 56.0386Z" fill="#FEFEFE"/>
<path d="M4.62891 55.8541C4.76998 55.7227 4.94555 55.5053 5.10544 55.7243C5.18538 55.8353 4.9142 55.9574 4.76842 56.0387C4.72139 55.9777 4.67593 55.9151 4.62891 55.8541Z" fill="#FEFEFE"/>
<path d="M1.91734 62.4161C1.89383 62.4834 1.86248 62.5632 1.78096 62.5022C1.75588 62.4818 1.7935 62.3802 1.80134 62.3145C1.8421 62.3457 1.88129 62.3786 1.91734 62.4161Z" fill="#FEFEFE"/>
</g>
<defs>
<clipPath id="clip0_743_8526">
<rect width="140.037" height="64.8321" fill="white" transform="translate(0.130859 0.373047)"/>
</clipPath>
</defs>
</svg>
