<svg width="165" height="50" viewBox="0 0 165 50" fill="none" xmlns="http://www.w3.org/2000/svg">
<g clip-path="url(#clip0_743_8508)">
<path d="M75.5332 29.7483C76.1573 29.8519 76.7174 29.9556 77.2776 30.0281C77.5816 30.0696 77.715 30.1214 77.491 30.4323C77.0002 31.1216 76.5307 31.8212 76.072 32.5311C75.9172 32.7747 75.7412 32.8006 75.4851 32.7643C72.8232 32.3549 70.1559 32.0958 67.4566 32.0906C63.653 32.0803 60.4256 29.94 59.2306 26.7374C57.4756 22.0268 60.3989 17.0001 65.5361 16.0517C67.9634 15.6009 70.4226 15.5905 72.7805 16.5026C78.2485 18.6169 79.7902 25.2398 75.8052 29.4425C75.7252 29.5254 75.6559 29.6084 75.5278 29.7431L75.5332 29.7483ZM68.5342 19.1662C67.7073 19.1662 67.0352 19.1662 66.363 19.2854C64.0051 19.7104 62.3194 21.4516 62.1913 23.6126C62.0526 25.9653 63.4023 27.8568 65.8082 28.489C67.5793 28.9554 69.3984 28.9554 71.1641 28.4372C73.2766 27.8153 74.5676 26.0948 74.5836 24.0479C74.5996 21.9024 73.3513 20.2078 71.2335 19.5031C70.3053 19.1921 69.3504 19.1351 68.5288 19.1714L68.5342 19.1662Z" fill="#FEFEFE"/>
<path d="M37.6786 23.7528C37.6786 21.3379 37.6893 18.923 37.668 16.5081C37.668 16.1194 37.732 15.9795 38.1801 15.9795C42.9385 15.995 47.697 15.995 52.4555 15.9795C52.8876 15.9795 52.9942 16.1039 52.9729 16.5029C52.9409 17.2077 52.9409 17.9176 52.9729 18.6224C52.9889 19.0007 52.8876 19.1147 52.4821 19.1095C48.8759 19.094 45.2698 19.1095 41.6636 19.0888C41.2208 19.0888 41.0768 19.1821 41.1034 19.6226C41.1461 20.2755 41.1408 20.9389 41.1034 21.5918C41.0874 21.9598 41.1835 22.053 41.5729 22.053C44.5709 22.0375 47.569 22.053 50.5617 22.0323C51.0205 22.0323 51.1645 22.1308 51.1378 22.5868C51.0951 23.2916 51.1058 24.0015 51.1378 24.7063C51.1538 25.0743 51.0471 25.1727 50.663 25.1727C47.665 25.1572 44.667 25.1727 41.6742 25.152C41.1888 25.152 41.0874 25.2971 41.1088 25.7272C41.1408 26.4838 41.1408 27.2404 41.1088 27.9918C41.0928 28.3805 41.2315 28.4479 41.5996 28.4427C45.2217 28.4323 48.8439 28.4427 52.4715 28.4271C52.8449 28.4271 53.0049 28.4893 52.9836 28.8987C52.9462 29.6709 52.9622 30.443 52.9836 31.2152C52.9889 31.4795 52.9036 31.5468 52.6368 31.5468C47.777 31.5416 42.9172 31.5365 38.0574 31.5468C37.7106 31.5468 37.684 31.4121 37.6893 31.1426C37.7 28.6759 37.6893 26.2143 37.6893 23.7476L37.6786 23.7528Z" fill="#FEFEFE"/>
<path d="M140.855 26.147C140.855 22.877 140.866 19.7418 140.844 16.6065C140.844 16.1298 140.924 15.9432 141.463 15.9795C142.274 16.0313 143.09 16.0054 143.901 15.9847C144.2 15.9795 144.306 16.0365 144.306 16.3578C144.296 21.3016 144.296 26.2506 144.306 31.1944C144.306 31.4743 144.221 31.5572 143.938 31.5468C143.213 31.5261 142.482 31.5261 141.756 31.5468C141.452 31.5572 141.26 31.4432 141.063 31.2359C137.98 28.0488 134.891 24.8722 131.802 21.6903C131.69 21.5711 131.583 21.4467 131.439 21.2912C131.311 21.5141 131.359 21.6903 131.359 21.8613C131.359 24.9188 131.349 27.9711 131.365 31.0286C131.365 31.4328 131.274 31.5676 130.842 31.552C130.031 31.5209 129.215 31.5209 128.404 31.552C128.009 31.5676 127.903 31.4639 127.903 31.0701C127.919 26.7015 127.913 22.3277 127.913 17.9591C127.913 17.4512 127.945 16.9382 127.903 16.4303C127.871 16.0417 128.025 15.9639 128.388 15.9795C129.113 16.0054 129.844 16.0054 130.57 15.9795C130.89 15.9691 131.098 16.0831 131.311 16.3008C134.299 19.3894 137.297 22.478 140.289 25.5614C140.449 25.722 140.61 25.8879 140.855 26.1418V26.147Z" fill="#FEFEFE"/>
<path d="M104.024 31.5417C104.995 29.4066 105.94 27.3389 106.878 25.2764C108.217 22.3226 109.562 19.3739 110.89 16.4149C111.029 16.1039 111.183 15.9692 111.557 15.9796C112.672 16.0055 113.792 16.0003 114.907 15.9796C115.179 15.9796 115.323 16.0417 115.44 16.3009C117.692 21.281 119.954 26.2559 122.215 31.2308C122.247 31.3033 122.269 31.3811 122.327 31.5365C121.426 31.5365 120.567 31.4692 119.724 31.5573C118.839 31.6505 118.385 31.3552 118.118 30.5312C117.873 29.7694 117.462 29.0594 117.137 28.3236C117.046 28.1163 116.929 28.0334 116.689 28.0334C114.352 28.0437 112.016 28.0437 109.679 28.0334C109.423 28.0334 109.327 28.1474 109.242 28.3391C108.81 29.2978 108.367 30.2565 107.94 31.2152C107.855 31.407 107.785 31.5469 107.519 31.5469C106.388 31.5313 105.251 31.5417 104.03 31.5417H104.024ZM113.163 24.9914C113.872 24.9914 114.582 24.9862 115.291 24.9914C115.536 24.9914 115.584 24.9189 115.488 24.7064C114.795 23.1984 114.107 21.6903 113.424 20.1771C113.376 20.0683 113.339 19.9647 113.189 19.9647C112.997 19.9595 112.981 20.1098 112.933 20.2238C112.261 21.7007 111.594 23.188 110.911 24.6649C110.789 24.9344 110.842 25.0018 111.135 24.9966C111.813 24.981 112.485 24.9966 113.163 24.9966V24.9914Z" fill="#FEFEFE"/>
<path d="M99.6832 21.058C99.6832 22.4209 99.6885 23.7838 99.6832 25.1467C99.6618 29.0178 96.9839 31.7333 92.9936 31.8732C91.5746 31.9199 90.1449 32.0028 88.7473 31.6659C85.6372 30.9301 83.6901 28.4789 83.6527 25.2037C83.6207 22.2654 83.6527 19.3219 83.6367 16.3836C83.6367 16.0364 83.7594 15.9794 84.0742 15.9846C84.9384 16.0001 85.8026 16.0105 86.6614 15.9846C87.0295 15.9742 87.0989 16.1038 87.0989 16.4303C87.0882 19.2546 87.0989 22.0789 87.0882 24.9083C87.0882 25.4369 87.1362 25.9603 87.3069 26.463C87.7497 27.7482 88.6672 28.5463 90.0489 28.7121C91.1212 28.8416 92.2201 28.8468 93.2923 28.7121C95.0474 28.4893 96.205 27.1471 96.221 25.3488C96.2477 22.4105 96.2424 19.467 96.221 16.5287C96.221 16.1142 96.2957 15.9587 96.7651 15.9794C97.576 16.0209 98.3922 16.0157 99.2031 15.9794C99.6245 15.9587 99.6938 16.109 99.6885 16.4769C99.6672 18.0057 99.6778 19.5344 99.6778 21.058H99.6832Z" fill="#FEFEFE"/>
<path d="M157.921 15.6373C159.922 15.6736 161.666 16.0415 163.267 16.964C163.544 17.1246 163.592 17.2386 163.4 17.5081C162.888 18.2181 162.392 18.9436 161.922 19.6846C161.741 19.9696 161.629 19.9282 161.399 19.752C160.066 18.7104 158.545 18.4772 156.902 18.7881C156.566 18.8503 156.252 18.9695 155.979 19.1716C155.281 19.6794 155.254 20.5811 155.931 21.1097C156.481 21.5398 157.148 21.742 157.809 21.9389C158.983 22.2964 160.183 22.5763 161.33 23.022C161.96 23.2655 162.568 23.5505 163.117 23.9392C165.011 25.2814 165.363 27.7015 163.907 29.4945C162.893 30.7486 161.485 31.3757 159.922 31.6555C157.084 32.1634 154.368 31.811 151.829 30.417C151.413 30.1889 151.04 29.9143 150.677 29.6137C150.506 29.4738 150.501 29.3857 150.677 29.2406C151.429 28.6291 152.181 28.0124 152.912 27.3802C153.131 27.1936 153.238 27.2817 153.414 27.4216C155.014 28.7172 156.865 29.0748 158.882 28.7327C159.303 28.6602 159.692 28.5099 160.034 28.2508C160.861 27.6238 160.829 26.6391 159.97 26.0691C159.474 25.7426 158.914 25.5612 158.348 25.385C157.094 24.9912 155.809 24.7114 154.587 24.2139C154.054 24.0014 153.542 23.7526 153.067 23.4313C150.784 21.8974 150.64 18.985 152.757 17.2438C153.883 16.3214 155.222 15.9068 156.652 15.7254C157.121 15.6684 157.596 15.6477 157.911 15.627L157.921 15.6373Z" fill="#FEFEFE"/>
<path d="M67.8244 47.5338C65.9519 49.4875 63.7167 49.928 61.4228 48.8657C59.2837 47.8707 58.0194 45.6061 58.3501 43.357C58.7289 40.7866 60.516 38.978 63.0339 38.5997C65.7652 38.1903 68.1711 39.434 69.046 41.7142C69.1918 42.0977 69.0531 42.2894 68.6299 42.2894C68.5765 42.2894 68.5285 42.2843 68.4752 42.2894C67.771 42.3827 67.3336 42.2169 66.9281 41.5225C66.0853 40.0611 63.8447 39.6672 62.1377 40.5275C60.7347 41.2323 59.8705 42.8958 60.0945 44.4608C60.3399 46.1916 61.4068 47.368 63.0712 47.7308C64.965 48.1453 66.7414 47.1866 67.3069 45.4609C67.4083 45.1552 67.3656 45.0516 67.0135 45.0567C66.0639 45.0723 65.1197 45.0567 64.1702 45.0671C63.8928 45.0671 63.7914 45.0049 63.7861 44.7147C63.7487 43.5124 63.7381 43.5124 64.965 43.5124C66.2507 43.5124 67.5363 43.5228 68.8219 43.5073C69.1793 43.5073 69.3234 43.5643 69.318 43.9581C69.2914 45.5853 69.2967 47.2074 69.318 48.8346C69.318 49.1714 69.206 49.2595 68.8859 49.244C67.8297 49.2025 67.931 49.4461 67.867 48.3112C67.8564 48.0883 67.8404 47.8603 67.819 47.5442L67.8244 47.5338Z" fill="#CECDDC"/>
<path d="M37.6686 43.9321C37.6686 42.3204 37.6686 40.7139 37.6686 39.1023C37.6686 38.9261 37.5833 38.6825 37.93 38.6929C39.5677 38.7447 41.2161 38.5581 42.8432 38.7965C45.6278 39.2111 47.5483 41.455 47.4256 44.0824C47.2922 46.8548 45.1691 48.9795 42.3417 49.1713C40.9227 49.2697 39.4984 49.192 38.0794 49.2283C37.738 49.2387 37.6526 49.1195 37.6579 48.8033C37.6739 47.1761 37.6633 45.5541 37.6633 43.9269L37.6686 43.9321ZM39.4184 43.9321C39.4184 45.0514 39.4184 46.1656 39.4184 47.285C39.4184 47.5026 39.4184 47.6684 39.7278 47.6581C40.5866 47.6218 41.4508 47.6995 42.315 47.5959C44.1021 47.3782 45.5211 45.9583 45.6332 44.2637C45.7559 42.3671 44.6569 40.8487 42.8165 40.403C41.8349 40.1646 40.8267 40.3149 39.8345 40.2631C39.4877 40.2423 39.413 40.3771 39.4184 40.688C39.4344 41.7711 39.4237 42.8542 39.4237 43.9424L39.4184 43.9321Z" fill="#CECDDC"/>
<path d="M101.326 49.2284C101.139 49.2284 100.952 49.2181 100.766 49.2284C100.504 49.2492 100.371 49.1352 100.275 48.902C100.008 48.2646 99.7093 47.6375 99.448 47.0001C99.3519 46.7669 99.2186 46.6892 98.9572 46.6892C97.4315 46.6995 95.9111 46.6995 94.3854 46.6892C94.124 46.6892 93.996 46.7773 93.9 47.0053C93.6333 47.6427 93.3398 48.2697 93.0731 48.9072C92.9771 49.1404 92.8384 49.2388 92.577 49.2284C92.2409 49.2129 91.8995 49.2025 91.5634 49.2284C91.1153 49.2647 91.094 49.1196 91.2594 48.7621C92.4276 46.2331 93.5799 43.699 94.7322 41.1649C95.0629 40.4446 95.3937 39.7295 95.7084 39.004C95.8044 38.7811 95.9325 38.6878 96.1939 38.6827C97.4635 38.6568 97.4688 38.6464 97.9809 39.7761C99.3199 42.7144 100.659 45.6527 101.998 48.591C102.286 49.2181 102.281 49.2181 101.566 49.2181C101.48 49.2181 101.395 49.2181 101.31 49.2181L101.326 49.2284ZM94.7002 45.1967C95.9111 45.1967 97.0581 45.1811 98.205 45.2019C98.6211 45.2122 98.6051 45.0723 98.4664 44.7769C98.0663 43.8908 97.6822 42.9994 97.2928 42.1081C97.1007 41.6728 96.9034 41.2375 96.674 40.7296C95.9965 42.2584 95.3617 43.699 94.7002 45.1967Z" fill="#CECDDC"/>
<path d="M84.8787 38.6984C86.2977 38.6984 87.722 38.7087 89.141 38.688C89.5038 38.688 89.5944 38.7968 89.5944 39.1337C89.5944 40.2582 89.6051 40.2582 88.4688 40.2582C87.7754 40.2582 87.0819 40.2893 86.3884 40.2478C85.8976 40.2219 85.7322 40.3256 85.7375 40.8541C85.7695 43.466 85.7375 46.0778 85.7642 48.6896C85.7642 49.1301 85.6415 49.2441 85.1987 49.239C84.0198 49.213 84.0198 49.239 84.0198 48.0781C84.0198 45.6632 84.0038 43.2483 84.0358 40.8334C84.0411 40.3359 83.8864 40.2323 83.4117 40.253C82.4834 40.2893 81.5499 40.253 80.6217 40.2737C80.2589 40.2841 80.1682 40.1597 80.1736 39.8229C80.1736 38.7035 80.1629 38.6984 81.3365 38.6984C82.5101 38.6984 83.7051 38.6984 84.8893 38.6984H84.8787Z" fill="#CECDDC"/>
<path d="M106.282 43.9269C106.282 42.3153 106.292 40.7088 106.276 39.0971C106.276 38.7707 106.372 38.6877 106.703 38.6877C108.026 38.6826 108.026 38.6722 108.026 39.9418C108.026 42.3412 108.037 44.7354 108.016 47.1347C108.016 47.5338 108.101 47.6633 108.538 47.6581C110.144 47.6322 111.755 47.6581 113.361 47.6426C113.713 47.6426 113.82 47.7307 113.82 48.0779C113.814 49.2076 113.83 49.2076 112.657 49.2076C110.71 49.2076 108.762 49.1972 106.815 49.218C106.405 49.218 106.266 49.1351 106.271 48.7101C106.298 47.1192 106.282 45.5231 106.282 43.9321V43.9269Z" fill="#CECDDC"/>
<path d="M51.997 43.9322C51.997 42.3257 52.0024 40.714 51.9917 39.1076C51.9917 38.7966 52.0664 38.6878 52.4078 38.6878C53.7414 38.6826 53.7414 38.6671 53.7414 39.9419C53.7414 42.8647 53.7361 45.7822 53.7521 48.705C53.7521 49.104 53.6614 49.244 53.224 49.2388C51.997 49.2232 51.997 49.2388 51.997 48.0676C51.997 46.6891 51.997 45.3107 51.997 43.9322Z" fill="#CECDDC"/>
<path d="M76.2423 43.9839C76.2423 45.5748 76.2316 47.171 76.253 48.7619C76.253 49.1298 76.1516 49.2335 75.7675 49.2335C74.4872 49.2283 74.4872 49.2438 74.4872 48.0105C74.4872 45.0722 74.4979 42.1339 74.4766 39.1956C74.4766 38.7758 74.6046 38.6825 75.0154 38.6877C76.237 38.7084 76.237 38.6877 76.237 39.9003C76.237 41.2633 76.237 42.6262 76.237 43.9891L76.2423 43.9839Z" fill="#CECDDC"/>
<path d="M40.6771 0.830917C39.5995 0.732455 38.5326 0.561442 37.455 0.462981C33.3367 0.0950442 29.2131 0.00694674 25.0894 0.431887C21.1312 0.841281 17.2849 1.66007 13.6307 3.22509C9.69381 4.91449 6.30635 7.29831 3.82576 10.7704C3.00424 11.9156 2.26806 13.1076 1.80929 14.4394C0.881068 16.5537 0.390285 18.7613 0.208909 21.0363C-0.100497 24.9385 0.52365 28.7267 1.64391 32.4579C1.88397 33.2508 2.10802 34.0592 2.50812 34.8832C1.87864 30.7322 1.97999 26.2237 3.89511 22.1609C3.93245 22.109 3.98047 22.0624 4.00714 22.0054C6.07163 17.8804 9.50177 15.2374 13.8175 13.6154C17.7064 12.154 21.7873 11.6151 25.9376 11.5011C28.4076 11.4337 30.8775 11.5166 33.3421 11.7187C33.6355 11.7446 33.8008 11.6565 33.9609 11.4233C34.7344 10.2625 35.5239 9.11726 36.3028 7.96681C37.8231 5.73328 39.3381 3.49975 40.8692 1.2714C41.0612 0.986383 41.0932 0.877557 40.6718 0.836099L40.6771 0.830917Z" fill="#CECDDC"/>
<path d="M22.7627 16.1141C20.1381 16.311 17.5721 16.7929 15.1076 17.6946C11.6347 18.9694 8.72205 20.9594 6.72158 24.0532C5.99608 25.1777 5.3826 26.3645 5.07853 27.6755C4.89182 28.0798 4.82247 28.5099 4.72111 28.9348C4.03295 31.842 4.18232 35.4644 4.76912 38.1332C4.91849 36.931 5.04652 35.7857 5.29191 34.6663C5.5373 33.5263 5.88405 32.4121 6.30548 31.3238C6.44418 31.215 6.46552 31.044 6.53487 30.8937C7.28171 29.2561 8.26328 27.774 9.60759 26.5355C11.8268 24.4781 14.5314 23.395 17.4975 22.825C20.3248 22.2809 23.1788 22.2601 26.0381 22.3534C26.3849 22.3638 26.5876 22.2653 26.7743 21.9803C27.9639 20.2028 29.1749 18.446 30.3752 16.6737C30.4605 16.5442 30.6152 16.4353 30.5725 16.2436C30.5192 16.2332 30.4712 16.2177 30.4232 16.2125C27.8732 15.9534 25.3233 15.9223 22.7734 16.1141H22.7627Z" fill="#CECDDC"/>
<path d="M16.9914 27.178C13.3212 27.8983 10.4352 29.7069 8.59476 32.9458C7.54385 34.7958 7.03173 36.8065 6.79167 38.8898C6.69565 39.6982 6.66364 40.5066 6.72232 41.3202C7.13842 40.1646 7.57586 39.0297 8.13066 37.9414C10.6593 32.9769 14.7509 31.0076 20.1975 31.474C20.4802 31.4999 20.6243 31.4067 20.7683 31.1942C21.6378 29.9038 22.518 28.6186 23.3876 27.3283C23.4463 27.2402 23.5636 27.1624 23.4889 27.007C21.3178 26.7841 19.1466 26.753 16.9861 27.178H16.9914Z" fill="#CECDDC"/>
</g>
<defs>
<clipPath id="clip0_743_8508">
<rect width="164.674" height="49.2724" fill="white" transform="translate(0.128662 0.152832)"/>
</clipPath>
</defs>
</svg>
