<svg width="156" height="48" viewBox="0 0 156 48" fill="none" xmlns="http://www.w3.org/2000/svg">
<g clip-path="url(#clip0_743_8480)">
<path d="M65.1874 47.1251V21.3355H70.8066C75.1987 21.3355 79.5908 21.2938 83.9791 21.3583C85.4164 21.3811 86.8422 21.6996 88.2489 22.0789C91.3681 22.9208 93.0194 26.2431 92.6792 28.6363C92.5416 29.6034 92.1823 30.5515 91.586 31.4048C91.0088 32.2278 90.5539 32.6829 89.2466 33.0812C89.0401 33.1456 88.9178 33.2063 88.8872 33.4149C88.8567 33.6235 88.9408 33.8093 89.1319 33.8435C90.2481 34.0559 90.8673 34.9357 91.6395 35.6222C92.1593 36.0811 92.5951 36.6576 92.6716 37.2758C92.8245 38.5159 93.5546 39.7675 92.9086 41.0153C92.5645 41.6752 92.7901 42.392 92.3581 43.0708C90.9744 45.244 89.2542 46.761 86.5096 46.7534C86.2344 46.7534 85.8292 46.6055 85.8254 47.1251H65.1836H65.1874ZM69.0673 43.3325C71.8463 43.3325 74.5756 43.3894 77.2973 43.3173C80.0457 43.2453 82.7903 43.5221 85.5502 43.0177C87.0104 42.7523 88.0616 42.0203 88.6617 40.9735C89.2045 40.0292 89.1013 38.7207 88.6426 37.583C88.096 36.2101 86.8613 35.8232 85.619 35.7815C82.6335 35.6791 79.6405 35.7474 76.6513 35.7474H73.2071C73.2415 34.5148 73.1613 33.4149 73.2606 32.334C77.3775 32.334 81.3186 32.3416 85.2635 32.3227C85.7375 32.3227 86.1885 32.2961 86.6931 32.1027C88.6541 31.3593 88.849 28.86 88.2106 27.2823C87.9928 26.74 87.6526 26.5086 87.1747 26.1863C86.3414 25.625 85.5234 25.496 84.5831 25.4998C79.8737 25.515 75.1681 25.4998 70.4587 25.5188C69.9771 25.5188 69.4534 25.3405 69.0597 25.6363V43.3363L69.0673 43.3325Z" fill="#CECDDC"/>
<path d="M150.048 47.1253C148.412 45.0887 146.711 43.1089 144.781 41.334C144.33 40.9206 144.081 40.2 143.653 39.9876C143.095 39.7108 142.288 39.9194 141.589 39.9194H133.691V36.5061C137.269 36.5061 140.82 36.5061 144.375 36.5061C146.034 36.5061 147.437 35.9561 148.611 34.7387C149.291 34.0333 149.593 33.2217 149.651 32.3228C149.719 31.1889 149.62 30.0473 149.685 28.9171C149.723 28.2989 149.387 27.8172 149.089 27.4607C148.087 26.2661 146.833 25.4886 145.151 25.4962C139.941 25.5303 134.735 25.5076 129.406 25.5076V47.1253H125.584V21.5178C126.012 21.1537 126.539 21.3433 127.013 21.3433C132.87 21.3281 138.729 21.3054 144.586 21.3471C146.585 21.3623 148.11 21.696 150.056 22.8641C151.566 23.7668 152.418 25.2269 153.118 26.797C153.645 27.9765 153.339 29.3039 153.871 30.4683C153.702 32.7514 153.251 34.9663 151.806 36.8132C150.874 38.0079 149.482 38.6602 148.16 39.3695C150.415 41.6071 152.659 43.8447 154.922 46.0634C155.178 46.3137 155.342 46.7081 155.782 46.7384C155.698 46.856 155.973 47.1253 155.591 47.1215C153.744 47.1101 151.894 47.1177 150.048 47.1177V47.1253Z" fill="#CECDDC"/>
<path d="M0.203285 31.5757C0.444106 31.6174 0.574073 31.4733 0.577896 31.2761C0.650524 29.0195 1.93872 27.2559 3.12372 25.5113C4.2743 23.8199 6.26203 23.1144 7.99747 22.1549C8.46 21.897 9.15188 22.3635 9.54178 21.7415C10.4936 21.9501 11.3116 21.3319 12.2367 21.3319C16.69 21.3433 21.1432 21.3319 25.6003 21.3433C25.9558 21.3433 26.3266 21.2181 26.6515 21.5784C27.0988 22.0715 27.0911 24.8666 26.6171 25.299C26.4031 25.4924 26.1928 25.5189 25.9367 25.5113C25.5545 25.5038 25.1722 25.5113 24.7899 25.5113C20.589 25.5113 16.388 25.5644 12.1908 25.4848C10.6541 25.4545 9.31625 25.8451 8.08921 26.6605C6.26203 27.8741 5.15349 29.0422 4.63362 31.223C4.2896 32.6717 3.47539 34.166 4.37369 35.7627C4.64509 36.2481 4.14434 37.0142 4.78653 37.4845C5.52046 40.7651 8.60143 42.5476 11.346 43.0217C13.2229 43.3479 15.0654 43.2948 16.927 43.3213C20.2258 43.3706 23.5285 43.3365 26.9612 43.3365V47.1291H10.9064C10.937 46.7574 10.6733 46.7233 10.4171 46.7536C9.28185 46.9015 8.28798 46.3933 7.33235 45.9609C5.82244 45.2783 4.53424 44.2239 3.46392 42.9572C1.90814 41.114 0.769023 39.0736 0.585541 36.6122C0.566428 36.3543 0.574073 36.1002 0.199463 36.1268V31.5757H0.203285Z" fill="#CECDDC"/>
<path d="M43.7803 47.125C43.7803 44.1592 43.7688 41.1934 43.7918 38.2238C43.7956 37.6852 43.6427 37.3211 43.2643 36.9115C41.46 34.9621 39.7857 32.9028 38.0197 30.9155C36.5098 29.2164 34.9808 27.5097 33.5932 25.7234C32.4579 24.2671 30.841 23.2317 30.1223 21.3961C30.8066 21.2368 31.6169 21.3544 32.412 21.3354C33.2377 21.3164 34.0672 21.3506 34.8929 21.324C35.2828 21.3126 35.4777 21.5705 35.6421 21.8057C36.7315 23.3682 38.1076 24.6956 39.2735 26.1861C40.8943 28.2531 42.8399 30.0508 44.3002 32.2505C44.6327 32.7549 45.1641 33.1303 45.6572 33.6234C47.3391 32.2315 48.3674 30.411 49.8658 29.0268C50.0149 28.8864 50.1066 28.4882 50.3398 28.2986C51.7503 27.1418 52.6677 25.5528 53.9445 24.2633C54.6669 23.5351 55.248 22.64 56.001 21.9043C56.368 21.544 56.6891 21.2671 57.293 21.3089C58.4857 21.3847 59.6859 21.3316 60.8212 21.3316C61.2111 21.8815 60.7907 22.0825 60.546 22.3291C58.4971 24.3998 56.7464 26.7322 54.7816 28.8788C53.2067 30.6007 51.7809 32.4628 50.1793 34.1771C49.3842 35.0266 48.7649 36.0468 47.8551 36.8053C47.4805 37.1163 47.6105 37.4918 47.6105 37.8445C47.599 40.9355 47.6028 44.0302 47.6028 47.1212H43.7803V47.125Z" fill="#CECDDC"/>
<path d="M155.782 14.509C153.622 14.509 151.462 14.5204 149.299 14.5052C148.473 14.5014 148.148 14.2094 148.14 13.4395C148.121 10.4244 148.133 7.40551 148.133 4.26904H155.778V5.78608H150.14V8.50156H154.96C154.99 9.03632 155.155 9.52177 154.784 10.0224H150.017C150.101 10.9326 149.929 11.7859 150.136 12.6127H155.774V14.509H155.782Z" fill="#FEFEFE"/>
<path d="M0.203285 4.26896C1.41503 4.26896 2.62296 4.2993 3.83089 4.26137C5.45547 4.20828 6.629 4.97817 7.64197 6.13491C7.94778 6.48003 7.84075 6.84033 7.8331 7.19304C7.81399 8.09567 8.0357 8.99452 7.14122 9.7682C6.21616 10.5646 5.35991 11.2397 4.0526 11.1108C3.36071 11.0425 2.65354 11.0994 1.8661 11.0994C1.52971 12.0362 1.88521 13.045 1.6635 14.0387C1.20097 14.2624 0.68875 14.0614 0.199463 14.1335V4.26896H0.203285ZM1.73231 9.57857C2.55033 9.57857 3.24222 9.52927 3.92263 9.58995C4.67567 9.65822 5.2223 9.44963 5.72305 8.86557C6.41111 8.06533 6.38435 6.71517 5.44018 6.2904C4.51895 5.87701 3.47921 5.56981 2.43183 5.80495C2.01518 5.89598 1.70937 6.22593 1.72466 6.74931C1.7476 7.62919 1.73231 8.50527 1.73231 9.57857Z" fill="#FEFEFE"/>
<path d="M120.614 46.7456V47.1249H98.0605V46.7456H120.614Z" fill="#CECDDC"/>
<path d="M98.0947 25.4432V21.3965H120.537C120.743 21.9692 120.575 22.6594 120.61 23.3231C120.64 24.0058 120.617 24.696 120.617 25.4432H98.0986H98.0947Z" fill="#FEFEFE"/>
<path d="M98.0947 36.062V32.3945H120.529C120.736 32.9027 120.587 33.5285 120.61 34.1353C120.632 34.7573 120.613 35.3793 120.613 36.0658H98.0947V36.062Z" fill="#FEFEFE"/>
<path d="M120.614 46.746H98.0605V43.5261C99.6928 43.2454 114.543 43.1544 120.614 43.3971V46.746Z" fill="#FEFEFE"/>
<path d="M126.413 4.26905C126.849 4.26905 127.227 4.31077 127.59 4.25768C128.049 4.18941 128.347 4.43213 128.531 4.74313C129.788 6.88973 131.684 8.55847 133.064 10.8795C133.347 9.93896 133.206 9.16149 133.225 8.40297C133.252 7.45862 133.217 6.51047 133.233 5.56612C133.252 4.50799 133.447 4.31836 134.547 4.27285C134.723 4.26526 134.899 4.31457 135.106 4.33732V14.3953C134.173 14.6456 133.382 14.6456 133.141 13.4699C131.665 12.2297 130.912 10.3903 129.49 9.11218C129.032 8.70258 129.054 7.96682 128.263 7.65204C128.263 9.44972 128.271 11.1981 128.263 12.9427C128.256 14.437 128.198 14.4787 126.417 14.4446V4.26905H126.413Z" fill="#FEFEFE"/>
<path d="M44.5829 14.5358V4.26928C46.0584 4.26928 47.5225 4.11379 48.9368 4.31479C50.2021 4.49684 51.582 4.88368 52.4268 5.89251C53.4436 7.10614 53.9826 8.61938 53.7074 10.2502C53.3824 12.1844 51.2074 13.8607 49.8733 14.1831C48.1379 14.6041 46.4254 14.4069 44.5791 14.532L44.5829 14.5358ZM46.4904 12.613C47.4231 12.613 48.1838 12.6281 48.9445 12.6054C49.3 12.594 49.6172 12.5599 49.9918 12.3854C51.2418 11.7976 51.8152 10.9025 51.8152 9.55614C51.8152 7.33748 50.7067 6.17695 48.5202 6.16557C47.8436 6.16557 47.1631 6.16557 46.4904 6.16557V12.613Z" fill="#FEFEFE"/>
<path d="M67.0989 4.26874V5.96782C66.9842 6.14227 66.8122 6.16882 66.6134 6.16882C64.9047 6.16503 63.196 6.16882 61.4262 6.16882V8.39886H66.1738C66.4299 8.94499 66.3229 9.37356 66.3038 9.93486H61.4109V12.5479H66.8657C67.3282 13.1775 66.946 13.8033 67.1982 14.5163C64.8932 14.5163 62.7488 14.5277 60.6005 14.5125C59.7099 14.5049 59.4652 14.2319 59.4576 13.2382C59.4423 10.9664 59.4538 8.69468 59.4538 6.41913C59.4538 6.03988 59.4346 5.66062 59.4576 5.28136C59.4996 4.62145 59.8131 4.29149 60.4935 4.28012C62.1487 4.25736 63.8038 4.27253 65.4552 4.27253H67.0989V4.26874Z" fill="#FEFEFE"/>
<path d="M14.8253 4.26879C18.1012 3.85919 20.0469 7.09047 20.0736 9.41912C20.1042 12.1119 17.4628 14.4064 14.5424 14.5429C12.2106 14.6491 9.25579 11.6264 9.33989 9.41912C9.43928 6.83637 11.599 3.81748 14.8253 4.26879ZM11.2894 9.26742C11.3085 11.1372 13.1739 13.0828 14.8482 12.9879C16.3925 12.9007 18.1432 10.9968 18.1738 9.40774C18.1967 8.31169 17.5584 7.50007 16.9659 6.70363C16.4345 5.99063 15.628 5.74411 14.7068 5.76686C12.8413 5.81617 11.2703 7.39009 11.2894 9.26362V9.26742Z" fill="#FEFEFE"/>
<path d="M32.7336 9.89341V12.5596H38.154C38.5057 12.7985 38.4445 13.0678 38.4254 13.3067C38.349 14.2663 38.1311 14.4976 37.2099 14.5052C35.1189 14.5204 33.0242 14.509 30.8606 14.509V4.26901C33.0471 4.26901 35.1992 4.25763 37.3513 4.2766C38.0814 4.28418 38.4407 4.63689 38.4331 5.23233C38.4254 5.8088 38.0508 6.15013 37.3207 6.16151C35.807 6.18047 34.2971 6.1653 32.7413 6.1653V8.36879H37.4239C37.8215 8.86941 37.638 9.35486 37.6227 9.89341H32.7336Z" fill="#FEFEFE"/>
<path d="M123.633 8.37621V9.90841H118.79V12.5746H124.21C124.585 12.9539 124.436 13.3559 124.421 13.7048C124.398 14.1902 124.077 14.5012 123.576 14.505C121.604 14.5202 119.635 14.5278 117.662 14.5012C117.093 14.4936 116.799 14.0727 116.799 13.3369C116.787 10.3749 116.795 7.4091 116.795 4.35986H124.44C124.44 4.59121 124.459 4.83014 124.44 5.06528C124.363 5.90344 124.126 6.14996 123.308 6.16134C121.844 6.1803 120.384 6.16513 118.813 6.16513V8.37621H123.637H123.633Z" fill="#FEFEFE"/>
<path d="M91.2145 5.71753V8.4406C92.6327 8.4406 94.0164 8.42543 95.4002 8.44819C96.2985 8.46336 96.4437 8.69091 96.417 9.95763C95.2855 9.95763 94.1502 9.99935 93.0149 9.94626C91.3177 9.86661 91.0578 10.1511 91.1763 11.8767C91.1877 12.0625 91.1763 12.2521 91.1763 12.5707H96.7687C96.9942 13.1169 96.9025 13.5454 96.8795 14.0498H89.6931V4.34082H96.8757V5.71753H91.2183H91.2145Z" fill="#FEFEFE"/>
<path d="M77.7777 14.448C76.6386 14.5997 75.5798 14.6604 75.1211 13.2534C74.9834 12.8362 74.563 12.639 74.3336 12.2559C73.2327 10.4127 73.141 10.3938 72.0974 12.199C71.6999 12.8855 70.878 13.2306 70.7251 14.0953C70.6831 14.3456 70.3543 14.5808 69.9644 14.5087C69.5439 14.4329 69.0891 14.6301 68.6074 14.3381C68.6648 13.5909 69.2611 13.0524 69.6816 12.5859C70.5455 11.6302 70.9927 10.4014 71.9292 9.51769C72.1471 9.30909 72.1203 9.1043 71.9292 8.86916C71.0653 7.77689 70.2549 6.64291 69.3452 5.58857C69.0088 5.19794 68.9629 4.85281 69.0432 4.40908C69.3719 4.13222 69.7657 4.32185 70.125 4.26496C70.7022 4.17394 71.0883 4.43563 71.2909 4.95142C71.6655 5.89956 72.5599 6.52534 72.8772 7.519C72.9575 7.76931 73.378 7.79965 73.4926 7.56071C73.9361 6.62015 74.7885 5.96783 75.2434 5.0614C75.553 4.447 75.9238 4.15498 76.6118 4.26117C76.845 4.2953 77.0897 4.26496 77.4413 4.26496C77.3267 5.45583 76.4016 6.0854 76.0079 6.97666C75.9353 7.13974 75.7365 7.24214 75.6142 7.38246C74.2113 8.99052 74.196 9.15739 75.3925 10.7882C76.1417 11.8084 76.91 12.8172 77.686 13.8185C77.8236 13.9967 77.7815 14.156 77.7739 14.448H77.7777Z" fill="#FEFEFE"/>
<path d="M145.277 6.91271C144.746 6.95443 144.608 6.62068 144.387 6.41968C143.255 5.3843 141.963 5.71426 140.82 6.2035C139.75 6.6624 139.257 7.6864 139.341 8.90002C139.356 9.08965 139.318 9.28308 139.348 9.46891C139.436 10.0568 139.134 10.6787 139.658 11.24C140.381 12.0175 141.183 12.704 142.2 12.9202C142.705 13.0264 143.328 12.6736 143.871 12.4651C144.253 12.3171 144.57 11.991 144.956 11.8696C145.396 11.7293 145.805 11.8962 146.107 12.2944C146.458 12.7609 146.076 12.9846 145.809 13.2084C143.695 14.9719 141.371 15.0364 139.196 13.3866C137.961 12.4499 137.131 11.2628 137.426 9.57131C137.51 9.08207 137.468 8.56248 137.43 8.05807C137.399 7.65226 137.609 7.39437 137.8 7.06821C138.427 5.97974 139.226 5.09986 140.384 4.5651C140.438 4.53855 140.468 4.44753 140.522 4.43616C142.437 4.04931 144.283 4.08724 145.935 5.30086C146.302 5.57014 146.378 5.87734 145.992 6.21488C145.717 6.4576 145.468 6.72688 145.285 6.90892L145.277 6.91271Z" fill="#FEFEFE"/>
<path d="M86.6777 6.95016C86.0776 6.6733 85.401 6.43437 84.8047 6.07028C84.0937 5.63792 83.44 5.70619 82.7252 6.01339C79.9615 7.20047 79.6328 10.6328 81.9837 12.3963C82.882 13.0676 84.5142 12.9955 85.6265 12.2408C86.4904 11.653 87.1441 11.7667 87.339 12.5821C87.4002 12.8325 87.4767 13.151 87.0944 13.3786C85.4889 14.3343 83.8988 14.9525 81.976 14.1599C81.0548 13.7806 80.1871 13.3634 79.5754 12.6239C78.9715 11.8957 78.7039 10.94 78.5816 10.0146C78.2872 7.78832 79.1588 5.49381 81.9875 4.49256C83.5471 3.93885 85.122 4.19295 86.6013 4.87561C86.9109 5.01973 87.167 5.38003 87.3352 5.69481C87.5149 6.02856 86.9797 6.16509 86.9759 6.47608C86.9759 6.68088 86.9147 6.825 86.6701 6.94636L86.6777 6.95016Z" fill="#FEFEFE"/>
<path d="M108.064 4.31104H109.88V12.6092C111.378 12.6092 112.762 12.5978 114.142 12.613C114.868 12.6206 115.247 12.9619 115.258 13.5308C115.273 14.1262 114.914 14.4903 114.192 14.4979C112.169 14.5169 110.151 14.5055 108.064 14.5055V4.31104Z" fill="#FEFEFE"/>
<path d="M101.119 12.6049H106.019V14.5012C103.84 14.5164 101.593 14.5012 99.2725 14.5088V4.26884C99.5515 4.26884 99.7962 4.24609 100.037 4.27264C100.878 4.36366 101.107 4.58363 101.111 5.42179C101.126 7.75043 101.115 10.0829 101.115 12.6087L101.119 12.6049Z" fill="#FEFEFE"/>
<path d="M28.838 12.5446V14.4447H22.1256C22.1485 14.4675 22.095 14.4295 22.0606 14.384C22.0262 14.3385 21.9956 14.2778 21.9956 14.2247C21.9956 10.9555 21.9956 7.68631 21.9956 4.49296C22.16 4.2161 22.3664 4.2654 22.5461 4.27678C23.6661 4.34505 23.8916 4.53468 23.9031 5.52075C23.9222 7.21983 23.9069 8.9189 23.9069 10.6218V12.5522H28.8418L28.838 12.5446Z" fill="#FEFEFE"/>
<path d="M17.1646 2.70265H12.1685C11.9965 2.32339 12.4322 2.25892 12.5775 2.05791C12.761 1.80381 13.0171 1.6028 13.2426 1.38283C13.4681 1.15907 13.6746 0.912551 13.923 0.719129C14.3588 0.38159 14.7984 0.332286 15.2265 0.776018C15.7999 1.36766 16.3924 1.94034 17.1646 2.70265Z" fill="#CECDDC"/>
<path d="M55.2485 8.06123C55.4206 7.48855 55.9901 7.25341 56.3036 6.80589C56.3877 6.68452 56.3724 6.3356 56.3418 6.32423C55.1377 6.00944 55.8487 5.0575 55.5429 4.33691H57.5421C57.5421 4.98924 57.5497 5.60364 57.5421 6.21803C57.523 7.52648 57.0681 7.95883 55.6308 8.06123H55.2485Z" fill="#FEFEFE"/>
<path d="M55.2485 8.06152H55.6308C55.6461 8.24736 55.6079 8.41423 55.3785 8.36114C55.3173 8.34597 55.2906 8.16392 55.2485 8.06152Z" fill="#CECDDC"/>
</g>
<defs>
<clipPath id="clip0_743_8480">
<rect width="155.597" height="46.6791" fill="white" transform="translate(0.203369 0.449707)"/>
</clipPath>
</defs>
</svg>
