<svg width="159" height="45" viewBox="0 0 159 45" fill="none" xmlns="http://www.w3.org/2000/svg">
<g clip-path="url(#clip0_743_8648)">
<path d="M40.0608 20.4696C39.5684 15.5358 36.5042 12.4369 31.8679 12.2454C28.5448 12.1075 25.2143 12.2186 21.7197 12.2186V41.7674H28.76V33.3211C30.1972 33.233 31.4557 33.1908 32.7105 33.0721C36.7559 32.6852 39.6742 29.8429 40.0572 25.7596C40.225 24.0128 40.2323 22.2163 40.0608 20.4696ZM32.4406 27.4795C31.9044 29.1994 30.7772 30.1762 28.8512 29.9234V15.4707C30.7042 15.2753 31.8642 16.1755 32.3713 17.815C33.3598 21.0058 33.4437 24.2656 32.4406 27.4795Z" fill="#CECDDC"/>
<path d="M18.9007 20.5002C18.5505 15.781 16.1211 13.1724 11.6598 12.4446C10.3065 12.2262 8.92761 12.1764 7.31164 12.0271V3.61133H0.497559V33.0491C0.822212 33.1104 1.05202 33.187 1.28183 33.187C4.42988 33.187 7.58158 33.2751 10.7223 33.1411C14.9027 32.961 17.6458 30.5976 18.5177 26.3227C18.9043 24.438 19.043 22.427 18.9007 20.5002ZM11.1053 27.5331C10.5983 29.1956 9.47114 30.1226 7.48309 29.9617V15.6393C9.48573 15.3673 10.6968 16.0261 11.2221 18.0065C12.0684 21.1667 12.0684 24.3844 11.1053 27.5331Z" fill="#CECDDC"/>
<path d="M117.986 33.3746C115.834 33.3746 113.791 33.4512 111.766 33.298C111.42 33.275 110.887 32.2714 110.873 31.7083C110.763 27.6019 110.822 23.4879 110.705 19.3778C110.617 16.4435 109.713 15.6736 106.638 15.7272V22.5035C106.638 25.6062 106.608 28.7051 106.652 31.8079C106.667 32.9034 106.386 33.4435 105.226 33.4014C103.362 33.3286 101.494 33.3822 99.5171 33.3822V12.5479C103.821 12.5479 108.002 12.2836 112.138 12.6245C116.082 12.9463 117.964 15.5127 117.982 19.6267C118 24.1123 117.986 28.5979 117.986 33.3746Z" fill="#FEFEFE"/>
<path d="M95.6974 18.4817C95.5551 15.3368 93.7604 13.138 90.8057 12.1459C88.0917 11.2343 85.3632 11.2687 82.5653 11.7437C79.6179 12.2455 79.3078 12.6209 80.1359 15.7466C86.3955 14.1876 88.9198 15.1797 88.2486 19.0026C87.8473 19.0218 87.4242 19.0141 87.0083 19.0716C84.5023 19.3972 81.9488 19.5236 79.8149 21.2511C77.349 23.2507 77.1921 26.0202 77.6882 28.8088C78.1114 31.1761 79.8185 32.8462 82.0838 32.9688C86.5378 33.214 91.01 33.0416 95.7558 33.0416C95.7558 28.2074 95.9199 23.335 95.6974 18.4817ZM88.4127 29.8124C85.7207 30.0308 84.9072 29.3757 84.7978 26.9663C84.6628 24.0283 85.8192 22.5842 88.4127 22.5152V29.8124Z" fill="#FEFEFE"/>
<path d="M153.832 12.2341C149.575 10.3954 144.552 11.5867 141.973 15.0419C139.34 18.5775 139.405 25.8555 142.159 29.6439C145.599 34.3747 150.465 34.1372 155.368 33.6315C156.273 33.5358 157.156 33.1604 157.903 32.9535V29.303C149.885 30.4752 147.182 28.851 147.223 22.8332H158.564C159.173 17.4359 157.509 13.8199 153.832 12.2341ZM151.381 19.2746H147.303C147.649 15.7007 148.226 14.6435 149.674 14.835C150.885 14.9921 151.512 16.5626 151.381 19.2746Z" fill="#FEFEFE"/>
<path d="M61.3392 12.1687H65.8369V15.5549H61.1787V24.9934C61.1787 27.2687 61.1349 29.5441 61.2006 31.8194C61.2298 32.9341 60.9307 33.4398 59.7816 33.3976C57.9176 33.3325 56.0536 33.3823 53.9196 33.3823V31.2027C53.9196 24.8172 53.9159 18.4316 53.9196 12.0461C53.9232 7.07789 56.1958 4.3965 60.989 3.79128C62.8385 3.55761 64.7025 3.46185 66.7234 3.28564C66.8182 3.97514 66.8875 4.27776 66.8948 4.5842C66.913 5.26604 66.8948 5.94788 66.8948 6.59141C61.0985 7.82102 60.9343 7.97807 61.3356 12.1687H61.3392Z" fill="#FEFEFE"/>
<path d="M138.541 29.1955C139.019 32.9878 139.048 33.2138 135.747 33.6466C131.785 34.1637 127.78 34.3208 124.369 31.3713C119.368 27.0427 119.357 16.7309 124.471 13.1647C129.108 9.93167 137.239 10.9008 138.858 17.7537C139.052 18.5811 139.055 19.4583 139.161 20.4274H132.391C132.205 19.1825 132.186 17.8992 131.785 16.7654C131.515 16.0108 130.72 14.9842 130.133 14.965C129.516 14.942 128.484 15.8729 128.302 16.5777C127.422 19.9715 127.302 23.4497 128.557 26.7746C129.604 29.5518 132.741 30.7316 136.137 29.8735C136.936 29.6705 137.727 29.4253 138.541 29.1955Z" fill="#FEFEFE"/>
<path d="M75.7701 15.3749C73.8659 16.2253 73.7164 18.0448 73.6908 19.8298C73.6361 23.5608 73.6726 27.2956 73.6726 31.0304V33.2981H66.6798C66.636 32.6047 66.5631 31.942 66.5631 31.2755C66.5521 27.8587 66.5558 24.4418 66.5558 21.025C66.5558 14.7888 69.4448 11.6669 75.46 11.4141C76.1677 11.3835 76.879 11.4103 77.5429 11.4103C78.1448 14.2564 78.0974 14.333 75.7701 15.3749Z" fill="#FEFEFE"/>
<path d="M49.8193 12.272H43.0854V33.0451H49.8193V12.272Z" fill="#CECDDC"/>
<path d="M50.2831 40.7944C50.2648 43.0506 48.5029 44.8701 46.3763 44.8318C44.1876 44.7935 42.5716 43.0199 42.5826 40.6756C42.5935 38.4118 44.3773 36.554 46.4821 36.6152C48.6707 36.6765 50.3013 38.4731 50.2831 40.7944Z" fill="#FEFEFE"/>
<path d="M50.2786 4.82946C50.2275 6.98606 48.4985 8.74429 46.4192 8.74812C44.267 8.75578 42.5745 6.92477 42.6109 4.63027C42.6474 2.40089 44.278 0.746094 46.4302 0.746094C48.597 0.746094 50.3297 2.58859 50.2786 4.82946Z" fill="#CECDDC"/>
</g>
<defs>
<clipPath id="clip0_743_8648">
<rect width="158.19" height="44.0858" fill="white" transform="translate(0.496582 0.746094)"/>
</clipPath>
</defs>
</svg>
