<svg width="87" height="86" viewBox="0 0 87 86" fill="none" xmlns="http://www.w3.org/2000/svg">
<g clip-path="url(#clip0_743_8404)">
<path d="M78.2212 37.2057C78.2212 36.8958 78.2212 36.586 78.2212 36.2823C75.2889 34.8818 72.6921 32.9856 70.2941 30.8291C69.0702 29.7323 67.9271 28.5363 66.7903 27.3465C64.5848 25.0351 61.9073 23.4425 58.8694 22.6059C56.3347 21.9057 53.7752 22.1783 51.3709 23.3991C50.2651 23.9568 49.1283 24.4526 47.7801 25.0784V29.156C47.19 30.2156 46.3575 31.046 45.2952 31.6347V20.6663C48.2523 20.1953 51.1784 19.365 54.2225 19.241C54.4275 19.2348 54.707 19.3278 54.8313 19.2286C56.6764 17.7042 58.4656 18.894 60.0932 19.5261C62.2738 20.375 64.2618 21.6578 65.9267 23.3867C67.7905 25.3139 69.6542 27.2473 71.6422 29.0444C72.425 29.7509 72.6051 30.7547 73.332 31.4736C74.0588 32.1986 75.2392 32.2172 75.7362 33.1901C76.1897 34.0824 77.3204 34.0019 77.836 34.6464C79.9545 35.1793 81.7374 34.2993 83.3651 33.438C83.8621 33.7416 83.8 34.0639 83.8062 34.3613C82.0915 35.6069 79.8675 35.8485 78.215 37.2181L78.2212 37.2057Z" fill="#CECDDC"/>
<path d="M39.7035 29.1498V25.0785C37.877 24.3596 36.2183 23.2256 34.2365 22.7175C32.2237 22.2031 28.5273 22.1288 26.9555 22.9901C24.5451 24.3101 22.2154 25.7601 20.2895 27.7679C17.7859 30.3768 15.1208 32.7688 12.0829 34.7703C11.1821 35.3652 10.1695 35.6627 9.28728 36.2576C9.76564 36.679 9.9955 37.1933 9.88368 37.8316C9.57306 37.8316 9.10091 37.9617 8.98287 37.813C7.59128 36.0531 5.46662 35.4334 3.67122 34.349C3.67122 34.0019 3.64016 33.6859 4.18686 33.438C5.73997 34.4419 7.57265 35.0926 9.58548 34.603C10.6478 34.2312 11.356 33.3389 12.2568 32.775C13.2943 32.1243 14.4126 31.4922 14.9593 30.4945C15.45 29.6022 16.7298 29.3915 16.7422 28.2079C19.9976 25.2644 22.526 21.4409 26.9058 19.8607C27.5768 18.5966 28.9746 19.65 29.9251 18.8754C30.6954 18.2434 31.8261 18.3797 32.6399 19.2411C35.2678 18.9622 37.7031 19.8236 40.1818 20.4618C40.7472 20.6044 41.387 20.4804 42.1947 20.4804V29.156H39.7097L39.7035 29.1498Z" fill="#CECDDC"/>
<path d="M47.1587 67.5701V85.3798C46.115 85.7455 44.9843 85.479 43.8971 85.5286C42.7789 85.5781 41.6482 85.541 40.325 85.541V68.1898C42.2819 69.3796 44.3879 68.5306 46.233 68.8405C46.6865 68.2766 46.3262 67.502 47.1587 67.5701ZM44.5929 70.4826C43.9033 70.8421 43.3566 70.4331 42.9093 70.873C42.5925 72.1372 42.9901 72.9552 44.363 73.2092C44.9035 72.4346 44.6426 71.6476 44.5929 70.4826Z" fill="#CECDDC"/>
<path d="M43.4311 29.7696V15.7028C41.4742 14.9282 40.3684 17.4007 38.3245 16.4836C40.0205 11.0366 41.6171 5.55237 43.7045 0C44.6736 2.83196 45.7421 5.4966 46.5001 8.25419C47.2704 11.0676 48.78 13.6826 49.0285 17.0227C47.4816 16.1614 46.1708 15.8701 44.6736 16.2977C44.6736 20.6541 44.6736 24.9671 44.6674 29.2863C44.6674 29.7324 44.9097 30.3893 44.0524 30.3955C43.6237 30.4141 43.4125 30.2034 43.4311 29.7758V29.7696Z" fill="#CECDDC"/>
<path d="M43.4318 29.7696C43.4132 30.1972 43.6244 30.4079 44.0531 30.3893C44.1276 30.9718 43.8791 31.5915 44.2581 32.1554C44.7551 32.2856 45.2521 32.4157 45.2956 31.6287C46.3579 31.04 47.1904 30.2096 47.7806 29.15C49.4641 29.1809 51.2098 28.8711 52.7008 30.0299C52.9555 30.947 52.1976 31.2197 51.6136 31.6907C50.3774 30.9966 49.0914 30.3769 47.8427 31.889V35.7124C48.2403 36.2639 49.315 35.5203 49.1908 36.6977C50.483 36.3569 51.508 35.3344 52.7319 36.2515C51.7068 38.2531 50.6631 38.786 48.9485 38.0052C48.526 37.8131 48.1657 37.9061 47.7806 37.8193C46.7493 37.336 46.1653 36.5304 45.6807 35.4955C45.4136 34.9254 45.3515 34.1508 44.6681 33.748C44.3948 33.5869 44.1649 33.463 43.6803 33.4939C43.5809 33.9897 42.7174 34.0393 42.8665 35.3034C42.9907 35.7434 43.1274 36.6791 44.0593 37.1996C43.7673 38.3956 42.8044 37.5838 42.1956 37.8193C41.6986 36.8092 41.2016 35.7992 40.7046 34.7891C40.2262 34.7891 39.7478 34.7891 39.0893 34.7891V37.8193C38.7787 37.8193 38.4681 37.8193 38.1637 37.8193C38.0581 37.6582 37.8655 37.4971 37.8655 37.336C37.8468 34.6775 37.853 32.0191 37.853 29.4164C38.4991 28.9579 39.1266 29.2243 39.7168 29.1438H42.2018C42.2577 30.0733 42.9721 29.6705 43.4443 29.7634L43.4318 29.7696ZM43.1833 32.0996C42.5559 31.6721 42.1459 31.3994 41.7234 31.1082H39.1639C39.108 31.9757 38.8719 32.7627 39.2943 33.3948H41.9905C42.326 33.0292 42.5931 32.7379 43.1771 32.0935L43.1833 32.0996Z" fill="#FEFEFE"/>
<path d="M30.6216 52.6729C31.6591 54.0981 31.7461 55.3685 31.5659 56.9983C31.0627 57.4011 30.3483 57.9836 29.7395 58.4793C29.9196 60.0037 31.4914 60.9023 30.8701 62.4453C30.4042 62.7675 29.901 62.5692 29.4102 62.5754C28.1118 61.5901 28.2609 59.4274 26.335 58.6652C25.7386 59.9975 26.2605 61.2493 25.9499 62.4143C25.3038 62.8419 24.5707 62.5258 23.8811 62.6188C23.8066 62.5506 23.6699 62.4825 23.6699 62.4081C23.6575 59.037 23.6575 55.6659 23.6575 52.0408C26.0182 52.2763 28.4286 51.5946 30.6216 52.6729ZM26.0368 55.1764V57.0354H27.9006C28.4908 56.7566 29.0872 56.4715 29.6836 56.1865C30.0439 55.1764 29.5593 54.4947 28.9194 54.0362H25.5274C25.3783 54.6373 25.2479 55.133 26.0306 55.1702L26.0368 55.1764Z" fill="#FEFEFE"/>
<path d="M33.4915 60.1342C33.9636 58.0458 34.7154 55.9885 33.5226 53.8506C33.1063 53.107 33.9015 52.5802 34.4234 52.0783C35.3304 52.0783 36.2747 52.1898 37.1755 52.0473C38.1633 51.8924 38.741 52.9892 39.704 52.698C40.6855 54.241 40.5551 55.784 39.735 57.0482C40.1202 58.2627 41.0893 58.9506 40.9465 60.1342C40.5302 60.9584 40.1202 61.7887 39.704 62.6129H33.4915V61.3735C33.8705 61.4417 34.063 61.2124 34.1003 60.9026C34.15 60.4874 34.0755 60.0908 33.4915 60.1342ZM35.1627 58.3309C35.5478 59.2728 35.0943 60.004 35.5913 60.7043H38.2875C38.4118 60.2333 39.1262 60.159 39.0765 59.248C38.8156 59.1241 38.3559 58.9072 37.8961 58.6903C38.008 58.5726 38.1198 58.4486 38.2316 58.3309H35.1627ZM35.3552 56.2859C36.3927 56.4904 37.4302 56.4966 38.4863 56.2674C38.3745 55.406 38.6665 54.681 38.1757 53.894C37.2873 54.148 36.2747 53.6275 35.3552 54.2162V56.2921V56.2859Z" fill="#FEFEFE"/>
<path d="M17.0401 52.1029C17.8664 52.0409 18.177 52.4623 18.2888 52.7597C19.4319 55.7962 21.0099 58.6343 22.2897 61.6026C22.3891 61.8381 22.2462 62.1727 22.2213 62.4268C20.5688 63.0713 20.0035 62.0798 19.6183 60.797H15.866C15.369 61.1689 14.6608 61.4663 14.8968 62.402C14.0395 62.7119 13.2692 62.6685 12.2876 62.4516C13.6419 58.8141 15.2696 55.412 17.0463 52.0967L17.0401 52.1029ZM17.6179 56.2795C16.4375 56.6452 16.8227 57.6924 16.1083 58.0023C16.0337 58.0333 15.9654 58.5786 16.3568 58.8264C17.0588 58.876 17.8353 59.0991 18.5932 58.6281C18.6119 57.6862 17.8353 57.1595 17.6179 56.2795Z" fill="#FEFEFE"/>
<path d="M47.7802 52.0781C47.7181 53.9 48.6437 55.4182 49.3085 57.0232C49.998 58.7025 51.253 60.1278 51.5077 61.9931V62.6128H49.9732C48.9854 62.3773 49.3333 61.2061 48.6562 60.7537C47.3267 60.7537 45.9972 60.7537 44.6678 60.7537C43.4688 61.045 44.2826 62.0055 44.0465 62.6128H40.9403C40.8285 61.6151 42.015 62.3029 42.1828 61.6398V60.134C43.6986 58.5414 44.2018 56.3849 45.289 54.5569C45.289 54.0673 45.1834 53.5592 45.7052 53.1998C46.1215 52.9147 45.8357 52.4499 45.9102 52.0781H47.774H47.7802ZM45.9165 57.6553C45.991 58.151 45.5002 58.2688 45.2704 58.653C45.5375 58.7397 45.7922 58.9008 46.0407 58.8823C46.5998 58.8451 47.2086 59.1115 47.7243 58.6592C47.8113 58.1758 47.9169 57.6863 47.1652 57.6615C47.0968 57.0852 47.3329 56.4717 46.8918 55.7714C46.6309 56.0317 46.3886 56.292 46.1215 56.5275C45.7487 56.8559 46.0034 57.2835 45.9289 57.6553H45.9165Z" fill="#FEFEFE"/>
<path d="M78.7985 56.4345H82.9297C83.3584 56.9984 83.1347 57.5128 83.1658 58.2192H78.9165V60.7351H83.756V62.5136H77.1211V52.1587H83.5945C84.0604 52.5367 83.6504 53.1068 83.9796 53.8009H79.1836C78.6369 54.6808 78.9289 55.412 78.7985 56.4345Z" fill="#FEFEFE"/>
<path d="M62.6462 60.7725H67.3925C67.8336 61.3302 67.5976 61.8508 67.641 62.4767H60.9067V52.2085H67.5044C68.0076 53.0265 67.2745 53.3115 66.8396 53.8569H63.0749C62.3045 54.6934 62.9444 55.499 62.5717 56.3666H66.0569C66.6719 56.8871 66.3116 57.4448 66.4669 58.0707C65.3176 58.5541 64.0627 58.0583 62.8885 58.3743C62.4847 59.025 62.7829 59.7562 62.6524 60.7725H62.6462Z" fill="#FEFEFE"/>
<path d="M66.6789 31.0214H62.9638C62.5041 31.5729 62.765 32.0934 62.7029 32.6202C63.6099 33.2151 64.6909 32.5892 65.6227 33.0106C65.9334 33.4753 65.747 33.9773 65.7408 34.5288C64.8338 35.0555 63.7466 34.4297 62.8085 34.9068C62.5538 35.3716 62.6843 35.8611 62.765 36.5676H66.1632C66.7348 37.5529 66.0079 37.8379 65.5855 38.3646H61.0379C60.8081 38.1354 60.5161 37.8441 60.28 37.6086V30.0051C60.5844 29.7015 60.8019 29.4846 61.0752 29.2119H66.1632C66.6726 29.6767 66.2191 30.2406 66.6726 31.0276L66.6789 31.0214Z" fill="#FEFEFE"/>
<path d="M45.2946 54.5569C44.2074 56.3849 43.7042 58.5414 42.1884 60.134H40.9459C41.0887 58.9504 40.1196 58.2626 39.7344 57.048C40.5545 55.7838 40.6849 54.2408 39.7034 52.6978V47.7403H42.1884V54.4267C41.3683 54.5569 40.6911 54.5817 40.9769 55.5236C41.9585 56.2424 42.6543 55.7095 43.4308 54.8543C43.4308 52.8403 43.4308 50.69 43.4308 48.5397C43.4308 48.1184 43.4246 47.6908 42.8096 47.7403V46.501H44.0521C44.0521 48.2113 44.0645 49.9216 44.0521 51.632C44.0397 52.797 44.1266 53.9 45.3008 54.5569H45.2946Z" fill="#CECDDC"/>
<path d="M70.8782 53.9559H68.6169C68.0702 53.423 68.3994 52.8838 68.2876 52.4067C68.3559 52.3323 68.4243 52.196 68.4926 52.196C70.8347 52.1836 73.1768 52.1836 75.5375 52.1836C75.96 52.5864 75.6307 53.1317 75.7425 53.6275C75.0902 54.3277 74.1708 53.6646 73.357 54.0984V62.2349C72.5556 62.8607 71.7541 62.5633 70.8782 62.5447V53.9559Z" fill="#FEFEFE"/>
<path d="M30.4963 29.2056H35.7334C36.2242 29.6951 35.808 30.2404 36.0503 30.7362C34.8513 31.3497 33.5777 30.7424 32.4346 31.139C32.0929 31.6037 32.3042 32.1119 32.2917 32.6448C33.1988 33.2211 34.2859 32.5643 35.2861 33.0662V34.7022H32.3166V36.586H35.8577C35.926 36.995 35.9571 37.1871 36.0006 37.4907C35.2551 38.3645 33.7268 37.1933 33.0931 38.4884C32.242 38.2715 31.5462 37.5775 30.4963 37.7882V29.2056Z" fill="#FEFEFE"/>
<path d="M24.9307 29.1376C25.8688 29.0818 27.2541 29.0756 28.4531 30.0052C28.5339 30.4885 28.6395 30.9781 28.3786 31.4862C27.4094 32.1617 26.9808 30.6001 25.8936 30.9037C25.1295 31.1206 24.5952 31.8518 23.6509 31.7217V35.1547C24.2038 35.8612 25.1792 36.1276 26.0489 36.611C26.7323 36.2392 27.3722 35.6877 28.2916 36.0285C28.7575 36.3941 28.4283 36.958 28.5277 37.429C26.3533 39.5297 24.4275 37.8752 22.5327 37.0696C21.9984 35.9851 21.489 34.9626 21.1162 34.219C20.9174 32.9735 22.1599 32.3848 21.6816 31.3933C22.4146 30.3956 23.3713 29.7015 24.9307 29.15V29.1376Z" fill="#FEFEFE"/>
<path d="M52.7495 61.9929V52.1523H55.1662V60.6668H58.5395C59.2912 61.2617 58.7135 61.8814 59.1918 62.6126H52.7495V61.9929Z" fill="#FEFEFE"/>
<path d="M54.1045 29.2802C55.0985 28.9331 55.7881 29.2058 56.4404 30.092V36.3322C57.453 36.9519 58.5588 36.2268 59.4721 36.7845C59.5093 36.9766 59.6398 37.2183 59.5652 37.3484C59.3727 37.6955 59.0931 37.9867 58.8011 38.3647H54.8438L54.1045 37.6273V29.2802Z" fill="#FEFEFE"/>
<path d="M3.77734 52.1336H5.43607V60.5242C6.86494 61.0695 8.31865 60.5056 9.6916 60.8588C10.1327 61.2864 9.71024 61.8379 10.0209 62.4576H3.77734V52.1274V52.1336Z" fill="#FEFEFE"/>
<path d="M17.339 45.2619H0C2.57196 44.4934 30.5094 44.3261 36.492 44.8405C36.0944 44.9582 36.7529 44.7351 36.492 45.0574C36.4298 45.1317 36.3429 45.2495 36.2683 45.2495C30.3727 45.2557 24.4833 45.2557 18.5877 45.2557H17.3452L17.339 45.2619Z" fill="#FEFEFE"/>
<path d="M68.9024 45.2619H50.3271C52.8867 44.4934 80.7868 44.3261 86.8067 44.8405C86.4091 44.9582 87.0676 44.7351 86.8067 45.0574C86.7446 45.1317 86.6576 45.2495 86.583 45.2495C80.8986 45.2557 75.208 45.2557 69.5236 45.2557H68.9024V45.2619Z" fill="#FEFEFE"/>
<path d="M44.0525 37.2056C43.1206 36.6851 42.9839 35.7493 42.8597 35.3094C42.7168 34.0452 43.5803 33.9956 43.6735 33.4999C44.1581 33.4689 44.3879 33.5928 44.6613 33.754C45.3447 34.1568 45.4068 34.9314 45.6739 35.5015C46.1585 36.5363 46.7487 37.3419 47.7737 37.8253V42.1631H45.2887V35.8733C44.3755 36.1583 45.0402 37.3047 44.0463 37.2056H44.0525Z" fill="#CECDDC"/>
<path d="M39.0828 37.8257V34.7954C39.7413 34.7954 40.2196 34.7954 40.698 34.7954C41.195 35.8055 41.692 36.8156 42.189 37.8257V42.1635H39.704C39.704 40.9675 39.704 39.7777 39.704 38.5817C39.704 38.1603 39.6481 37.7823 39.0828 37.8257Z" fill="#CECDDC"/>
<path d="M43.431 62.6128H44.0523C44.0523 62.9164 43.9405 63.2944 44.0771 63.5175C44.4188 64.069 48.0158 66.0458 49.0223 66.3309C48.78 67.31 48.1215 67.6694 47.1585 67.5703V66.616C46.121 66.461 45.3258 65.0667 44.0896 65.9653C43.8349 66.4858 44.4623 67.1861 43.5864 67.5579C43.2012 66.9816 43.7106 66.2689 43.226 65.8104C42.0208 65.3084 41.3064 66.4362 40.3248 66.6283V68.1899C39.3433 67.9483 38.9829 67.2914 39.0823 66.3309C40.1757 65.7546 40.9958 64.7445 42.288 64.4409C43.1204 64.2426 43.5801 63.5547 43.431 62.6128Z" fill="#CECDDC"/>
<path d="M39.7042 42.1631H42.1892C42.3942 43.1794 43.8355 42.7642 44.053 43.8796V46.5009C43.6367 46.5009 43.2267 46.5009 42.767 46.4575C42.7235 45.7139 42.7235 44.9331 42.7235 44.27C41.8165 43.0926 40.779 43.3715 39.7788 43.5078V46.4203C40.8349 46.4203 41.8227 46.4203 42.767 46.4637C42.8105 46.9161 42.8105 47.3313 42.8105 47.7464H39.7042C39.5303 47.6721 39.201 47.6039 39.201 47.5295C39.17 45.813 39.17 44.0965 39.201 42.3862C39.201 42.3118 39.5303 42.2436 39.7042 42.1693V42.1631Z" fill="#FEFEFE"/>
<path d="M47.7802 52.0783H45.9165C45.7425 52.0101 45.4257 51.9543 45.4195 51.8676C45.3449 51.1735 45.1896 50.4485 45.3325 49.7916C45.5002 49.017 44.7237 48.4779 45.0032 47.7467C45.0156 47.7157 45.1958 47.7467 45.2952 47.7467H47.7802V52.0845V52.0783Z" fill="#CECDDC"/>
<path d="M47.7801 47.7404H45.2952V42.1632H47.7801C48.2088 42.1447 48.42 42.3553 48.4014 42.7829C47.6124 42.8883 46.7862 42.5784 46.022 42.9316C45.9475 43.5575 45.6493 44.1586 46.2332 44.642H47.7739C48.0783 44.6172 48.3517 44.6792 48.2647 45.051C48.2399 45.1501 47.9417 45.1935 47.7739 45.2617C47.19 45.3422 46.5625 45.0758 46.0096 45.4662C45.9537 46.0425 45.6431 46.6436 46.2395 47.1207H48.4014C48.42 47.5483 48.2088 47.759 47.7801 47.7404Z" fill="#FEFEFE"/>
<path d="M11.1886 54.1047C10.6295 53.9622 10.3499 53.8878 10.0704 53.8134C9.71624 53.3611 9.95232 52.8467 9.90883 52.3138C10.6543 51.9358 11.4309 52.0411 12.3441 52.2085C12.4621 54.0675 12.2882 55.7035 10.1698 56.5401C9.3932 55.1891 10.7786 54.9475 11.1948 54.1047H11.1886Z" fill="#FEFEFE"/>
<path d="M64.3671 51.5639C63.8079 50.8513 62.7767 50.4981 62.6338 49.2897C63.9757 48.385 64.7771 49.6987 65.7959 49.9032C65.8643 50.8761 65.2492 51.2045 64.3671 51.5639Z" fill="#FEFEFE"/>
<path d="M73.8718 41.5437C74.2943 39.8396 75.2696 38.8667 76.9781 38.4453C76.5556 40.1494 75.5803 41.1223 73.8718 41.5437Z" fill="#CECDDC"/>
<path d="M47.7795 44.6418H46.2389C45.6549 44.1585 45.9531 43.5574 46.0276 42.9315C46.7918 42.5783 47.618 42.8881 48.407 42.7828C48.32 43.4397 47.4813 43.8548 47.7858 44.6418H47.7795Z" fill="#CECDDC"/>
<path d="M17.3389 45.2617H18.5814C18.5565 45.869 19.097 46.0921 19.4387 46.3895C19.8984 46.7923 19.8176 47.2571 19.8239 47.7405C18.2272 47.4244 17.6557 46.8543 17.3389 45.2617Z" fill="#CECDDC"/>
<path d="M48.4013 47.1206H46.2394C45.643 46.6434 45.9536 46.0361 46.0095 45.466C46.5624 45.0818 47.1899 45.3421 47.7738 45.2615C47.4694 46.0485 48.3081 46.4637 48.3951 47.1206H48.4013Z" fill="#CECDDC"/>
<path d="M52.7498 61.9932V62.6128C52.3833 63.4866 51.762 64.1063 50.8861 64.4719C50.5816 63.6849 51.4203 63.2697 51.5073 62.6128V61.9932H52.7498Z" fill="#CECDDC"/>
<path d="M21.6939 49.5991C22.6423 49.8553 23.218 50.4543 23.421 51.3962C23.1228 51.3962 22.7562 51.5077 22.5761 51.3776C22.0045 50.95 21.433 50.4667 21.6939 49.5991Z" fill="#CECDDC"/>
<path d="M33.4915 60.1341C34.0755 60.0907 34.15 60.4873 34.1003 60.9025C34.0631 61.2124 33.8705 61.4417 33.4915 61.3735C32.8144 61.2248 32.3981 60.8096 32.249 60.1341H33.4915Z" fill="#CECDDC"/>
<path d="M21.6873 49.5992H20.4448V48.3599H21.6873V49.5992Z" fill="#CECDDC"/>
<path d="M39.0831 66.3312H37.8406V65.0918C38.5177 65.2405 38.934 65.6557 39.0831 66.3312Z" fill="#CECDDC"/>
<path d="M37.8397 65.0914H36.5972V63.8521C37.2743 64.0008 37.6906 64.416 37.8397 65.0914Z" fill="#CECDDC"/>
<path d="M35.355 62.6128H35.9762C36.1812 63.028 36.3925 63.437 36.5975 63.8522H35.355V62.6128Z" fill="#CECDDC"/>
<path d="M68.9019 45.2617H69.5231C69.4299 45.7327 69.8337 46.4453 68.9019 46.5011V45.2617Z" fill="#CECDDC"/>
<path d="M15.481 43.4088C15.7791 43.353 15.9655 43.4893 16.0339 43.7744C16.0463 43.824 15.8972 43.9665 15.8537 43.9541C15.5679 43.8921 15.4313 43.7 15.4872 43.4026L15.481 43.4088Z" fill="#CECDDC"/>
<path d="M11.7482 39.6842C12.1769 39.6656 12.3881 39.8763 12.3695 40.3039C11.9408 40.3225 11.7296 40.1118 11.7482 39.6842Z" fill="#CECDDC"/>
<path d="M12.9898 40.924C12.5612 40.9426 12.3499 40.7319 12.3686 40.3044C12.7972 40.2858 13.0084 40.4965 12.9898 40.924Z" fill="#CECDDC"/>
<path d="M13.6116 41.5437C13.183 41.5623 12.9718 41.3516 12.9904 40.924C13.4191 40.9054 13.6303 41.1161 13.6116 41.5437Z" fill="#CECDDC"/>
<path d="M13.612 41.5436C14.0406 41.525 14.2519 41.7357 14.2332 42.1633C13.8046 42.1819 13.5933 41.9712 13.612 41.5436Z" fill="#CECDDC"/>
<path d="M73.2514 42.1633C73.2327 41.7357 73.444 41.525 73.8726 41.5436C73.8913 41.9712 73.68 42.1819 73.2514 42.1633Z" fill="#CECDDC"/>
<path d="M14.2326 42.1632C14.6612 42.1447 14.8725 42.3553 14.8538 42.7829C14.4252 42.8015 14.2139 42.5908 14.2326 42.1632Z" fill="#CECDDC"/>
<path d="M31.6274 59.5143C31.3292 59.5701 31.1428 59.4338 31.0745 59.1487C31.062 59.0992 31.2111 58.9566 31.2546 58.969C31.5404 59.031 31.6771 59.2231 31.6212 59.5205L31.6274 59.5143Z" fill="#CECDDC"/>
<path d="M31.6271 59.5143C32.0558 59.4957 32.267 59.7064 32.2484 60.134C31.8197 60.1526 31.6085 59.9419 31.6271 59.5143Z" fill="#CECDDC"/>
<path d="M67.0384 48.3664C67.0943 48.6639 66.9577 48.8498 66.6719 48.918C66.6222 48.9303 66.4793 48.7816 66.4917 48.7382C66.5539 48.4532 66.7464 48.3169 67.0446 48.3726L67.0384 48.3664Z" fill="#CECDDC"/>
<path d="M67.6602 47.7404C67.6789 48.168 67.4676 48.3787 67.039 48.3601C67.0203 47.9325 67.2316 47.7218 67.6602 47.7404Z" fill="#CECDDC"/>
<path d="M72.6302 42.7829C72.6488 43.2105 72.4376 43.4211 72.0089 43.4026C71.9903 42.975 72.2015 42.7643 72.6302 42.7829Z" fill="#CECDDC"/>
<path d="M10.5048 38.445C10.9335 38.4264 11.1447 38.6371 11.126 39.0647C10.6974 39.0833 10.4862 38.8726 10.5048 38.445Z" fill="#CECDDC"/>
<path d="M20.4456 48.3601C20.017 48.3787 19.8057 48.168 19.8244 47.7404C20.253 47.7218 20.4643 47.9325 20.4456 48.3601Z" fill="#CECDDC"/>
<path d="M67.6596 47.7404C67.6409 47.3129 67.8522 47.1022 68.2808 47.1208C68.2995 47.5483 68.0882 47.759 67.6596 47.7404Z" fill="#CECDDC"/>
<path d="M68.2812 47.1208C68.2625 46.6932 68.4737 46.4825 68.9024 46.5011C68.921 46.9287 68.7098 47.1394 68.2812 47.1208Z" fill="#CECDDC"/>
<path d="M77.6004 37.8254C77.619 38.2529 77.4078 38.4636 76.9792 38.445C76.9605 38.0175 77.1717 37.8068 77.6004 37.8254Z" fill="#CECDDC"/>
<path d="M10.5054 38.445C10.0768 38.4636 9.86555 38.2529 9.88419 37.8254C10.3129 37.8068 10.5241 38.0175 10.5054 38.445Z" fill="#CECDDC"/>
<path d="M73.2508 42.1632C73.2694 42.5908 73.0582 42.8015 72.6296 42.7829C72.6109 42.3553 72.8221 42.1447 73.2508 42.1632Z" fill="#CECDDC"/>
<path d="M50.8863 64.4718C50.9049 64.8994 50.6937 65.1101 50.2651 65.0915C50.2464 64.6639 50.4576 64.4532 50.8863 64.4718Z" fill="#CECDDC"/>
<path d="M15.4754 43.4026C15.0467 43.4211 14.8355 43.2105 14.8542 42.7829C15.2828 42.7643 15.494 42.975 15.4754 43.4026Z" fill="#CECDDC"/>
<path d="M50.2645 65.0915C50.2831 65.519 50.0719 65.7297 49.6432 65.7111C49.6246 65.2836 49.8358 65.0729 50.2645 65.0915Z" fill="#CECDDC"/>
<path d="M77.5995 37.8254C77.5809 37.3978 77.7921 37.1871 78.2208 37.2057C78.2394 37.6333 78.0282 37.844 77.5995 37.8254Z" fill="#CECDDC"/>
<path d="M49.6441 65.7111C49.6627 66.1387 49.4515 66.3494 49.0229 66.3308C49.0042 65.9032 49.2154 65.6925 49.6441 65.7111Z" fill="#CECDDC"/>
<path d="M72.0084 43.4084C72.0643 43.7059 71.9276 43.8918 71.6419 43.9599C71.5922 43.9723 71.4493 43.8236 71.4617 43.7802C71.5238 43.4952 71.7164 43.3589 72.0146 43.4146L72.0084 43.4084Z" fill="#CECDDC"/>
<path d="M11.1264 39.0651C11.555 39.0465 11.7663 39.2572 11.7476 39.6848C11.319 39.7034 11.1077 39.4927 11.1264 39.0651Z" fill="#CECDDC"/>
<path d="M43.1832 32.0996C42.593 32.744 42.3321 33.0291 41.9966 33.4009H39.3004C38.8779 32.7626 39.114 31.9818 39.1699 31.1143H41.7295C42.1519 31.3993 42.5619 31.6782 43.1894 32.1058L43.1832 32.0996Z" fill="#CECDDC"/>
<path d="M26.036 55.1765C25.2532 55.1331 25.3837 54.6436 25.5328 54.0425H28.9248C29.5647 54.501 30.043 55.1827 29.6889 56.1928C29.0925 56.4778 28.4961 56.7567 27.906 57.0418C27.7755 55.6537 27.4338 55.3128 26.0422 55.1827L26.036 55.1765Z" fill="#CECDDC"/>
<path d="M44.6736 60.7538C45.1706 62.2472 46.7982 62.1914 47.7736 62.8545C47.786 63.3192 47.8046 63.6229 47.4195 63.8646C46.2142 63.8026 45.4004 62.4455 44.0523 62.6066C44.2884 61.9993 43.4746 61.0388 44.6736 60.7476V60.7538Z" fill="#CECDDC"/>
<path d="M47.1582 57.6553H45.9157C45.9903 57.2835 45.7418 56.8559 46.1083 56.5275C46.3755 56.292 46.6177 56.0318 46.8787 55.7715C47.3197 56.4717 47.0837 57.079 47.152 57.6615L47.1582 57.6553Z" fill="#CECDDC"/>
<path d="M42.7228 46.4204H39.7781V43.5079C40.7783 43.3778 41.8158 43.0927 42.7228 44.2701V46.4204Z" fill="#CECDDC"/>
<path d="M43.7415 42.1634C43.3563 41.1285 43.3563 40.0998 43.7415 39.0649C44.1267 40.0998 44.1267 41.1285 43.7415 42.1634Z" fill="#CECDDC"/>
<path d="M39.7039 62.6128H40.9464C40.934 63.2944 41.1142 64.1496 39.9089 63.753C39.5176 63.4308 39.7785 62.9908 39.7039 62.6128Z" fill="#CECDDC"/>
</g>
<defs>
<clipPath id="clip0_743_8404">
<rect width="86.875" height="85.5784" fill="white"/>
</clipPath>
</defs>
</svg>
