<svg width="24" height="25" viewBox="0 0 24 25" fill="none" xmlns="http://www.w3.org/2000/svg">
<path fill-rule="evenodd" clip-rule="evenodd" d="M18.5399 4.83992L19.9999 4.98992C21.7284 5.18529 23.0264 6.66064 22.9999 8.39992V16.5999C23.0264 18.3392 21.7284 19.8146 19.9999 20.0099L18.5999 20.1599C14.2315 20.6099 9.82835 20.6099 5.45991 20.1599L3.99991 20.0099C2.27143 19.8146 0.973464 18.3392 0.999909 16.5999V8.39992C0.973464 6.66064 2.27143 5.18529 3.99991 4.98992L5.39991 4.83992C9.76835 4.38995 14.1715 4.38995 18.5399 4.83992ZM11.1099 15.7199L14.9999 13.1199H15.0599C15.2695 12.9833 15.3959 12.7501 15.3959 12.4999C15.3959 12.2497 15.2695 12.0165 15.0599 11.8799L11.1699 9.27992C10.9402 9.12469 10.6437 9.10879 10.3987 9.23859C10.1538 9.36839 10.0004 9.62271 9.99991 9.89992V15.0999C10.0128 15.358 10.1576 15.5913 10.3832 15.7173C10.6088 15.8433 10.8834 15.8443 11.1099 15.7199Z" fill="#FEFEFE"/>
</svg>
